<svg width="299" height="309" viewBox="0 0 299 309" fill="none" xmlns="http://www.w3.org/2000/svg">
<path fill-rule="evenodd" clip-rule="evenodd" d="M253.023 309H99.4767C96.2185 305.184 91.9646 301.857 87.9975 300.066C80.5449 296.748 72.0686 296.585 63.8416 296.427C63.4172 296.419 62.9934 296.411 62.5705 296.403C53.9497 296.228 44.8935 295.705 37.4918 291.343C25.3008 284.19 25.5621 269.012 28.9581 257.062C30.4221 251.76 27.4443 245.546 24.6624 239.741C23.1421 236.569 21.6802 233.518 21.034 230.806C20.284 227.714 20.1646 225.225 20.0587 223.015C19.8449 218.556 19.6857 215.235 14.5031 210.394C12.4296 208.457 10.1815 207.044 8.11419 205.745C2.45455 202.189 -1.85089 199.483 2.48621 189.197C5.06808 183.124 9.91708 177.455 14.7946 171.752C21.2679 164.183 27.7915 156.555 29.1323 147.85C29.8744 143.142 28.5365 138.687 27.1787 134.166C26.1466 130.729 25.1029 127.254 24.9525 123.6C24.1688 105.979 32.3542 80.0717 40.4525 64.8936C78.4188 -6.63514 181.346 -18.1495 244.739 25.989C280.964 51.1985 303.517 96.6454 297.16 140.348C293.727 163.915 283.74 184.792 273.846 205.475C259.9 234.629 246.14 263.395 251.183 298.758C251.723 302.479 252.264 305.821 253.023 309Z" fill="url(#paint0_linear)"/>
<defs>
<linearGradient id="paint0_linear" x1="151.936" y1="-6.63692e-10" x2="152" y2="369" gradientUnits="userSpaceOnUse">
<stop offset="0.398611" stop-color="#EFE9C2"/>
<stop offset="0.84154" stop-color="#EFE9C2" stop-opacity="0"/>
</linearGradient>
</defs>
</svg>
