<svg width="207" height="194" viewBox="0 0 207 194" fill="none" xmlns="http://www.w3.org/2000/svg">
<path d="M178.913 129.769C177.421 129.769 175.847 129.52 174.355 129.022C170.295 127.613 166.566 124.959 165.157 122.47C163.666 119.982 162.754 117.328 161.843 114.757C160.517 111.025 160.434 106.878 157.7 104.224C154.634 101.239 150.076 99.7458 145.85 100.492L145.187 94.189C150.656 93.2767 156.539 95.1842 160.517 99.0823C163.914 102.483 165.986 106.63 167.395 110.61C168.306 113.099 168.555 117.743 169.798 119.899C171.372 122.553 173.444 124.461 175.681 125.207C179.244 126.451 183.47 125.207 187.779 123.632L189.105 127.447C185.708 128.691 182.31 129.769 178.913 129.769Z" fill="#B5376A"/>
<path d="M192.917 123.714C194.325 123.632 195.817 123.3 197.143 122.719C197.474 122.553 197.889 122.387 198.137 122.056C198.469 121.724 198.634 121.392 198.883 121.06C199.297 120.397 199.794 119.734 200.292 119.153C201.037 118.241 201.866 117.411 202.778 116.665C203.192 116.416 203.855 115.835 204.435 116.084C204.932 116.25 204.766 116.997 204.683 117.411C204.186 119.153 203.109 120.729 202.032 122.139L200.374 125.124L198.883 124.876L196.397 126.286C196.314 126.368 195.154 125.373 195.071 125.29C194.325 124.793 193.663 124.212 192.917 123.714Z" fill="#842353"/>
<path d="M192.917 123.714C194.325 123.963 195.817 123.963 197.226 123.632C197.64 123.549 197.971 123.466 198.386 123.217C198.8 122.968 198.966 122.636 199.297 122.387C199.877 121.807 200.457 121.309 201.12 120.812C202.032 120.065 203.026 119.402 204.103 118.987C204.518 118.821 205.346 118.407 205.844 118.738C206.341 119.07 206.009 119.734 205.761 120.065C204.932 121.641 203.44 122.968 202.197 124.129L199.96 126.7L198.551 126.12L195.9 126.866C195.817 126.866 194.905 125.705 194.823 125.622C194.077 125.041 193.497 124.378 192.917 123.714Z" fill="#842353"/>
<path d="M193.165 123.466C192.917 123.051 192.751 122.636 192.834 122.139C192.834 120.978 193.994 120.314 194.988 119.982C195.568 119.816 197.06 119.816 197.474 119.07C197.557 118.821 197.391 118.738 197.226 118.572C196.314 118.075 195.237 117.909 194.243 118.075C192.42 118.407 191.011 119.899 190.016 121.475C189.851 121.724 187.945 123.549 187.779 123.714L188.939 127.53C206.258 134.082 205.761 119.485 198.469 118.987C198.22 118.987 197.723 119.07 197.64 119.402C197.557 119.651 197.889 119.982 198.054 120.148C198.8 120.978 199.712 121.641 200.292 122.636C200.623 123.051 200.789 123.549 200.955 124.129C201.12 124.876 200.955 125.539 200.126 125.788C198.634 126.203 197.06 126.12 195.651 125.456C194.74 125.041 193.663 124.378 193.165 123.466Z" fill="#B5376A"/>
<path d="M27.1058 129.769C28.5973 129.769 30.1718 129.52 31.6633 129.022C35.7237 127.613 39.4525 124.959 40.8612 122.47C42.3528 119.982 43.2643 117.328 44.1758 114.757C45.5016 111.025 45.5845 106.878 48.319 104.224C51.385 101.239 55.9425 99.7458 60.1685 100.492L60.8315 94.189C55.3624 93.2767 49.4791 95.1842 45.5016 99.0823C42.1042 102.483 40.0326 106.63 38.6239 110.61C37.7124 113.099 37.4638 117.743 36.2208 119.899C34.6464 122.553 32.5748 124.461 30.3375 125.207C26.7743 126.451 22.5483 125.207 18.2393 123.632L16.9135 127.447C20.3109 128.691 23.7084 129.769 27.1058 129.769Z" fill="#B5376A"/>
<path d="M13.1018 123.714C11.6931 123.632 10.2015 123.3 8.8757 122.719C8.54425 122.553 8.12993 122.387 7.88134 122.056C7.54988 121.724 7.38415 121.392 7.13556 121.06C6.72124 120.397 6.22405 119.734 5.72687 119.153C4.98109 118.241 4.15245 117.411 3.24095 116.665C2.82663 116.416 2.16372 115.835 1.58367 116.084C1.08648 116.25 1.25221 116.997 1.33508 117.411C1.83226 119.153 2.90949 120.729 3.98673 122.139L5.64401 125.124L7.13556 124.876L9.53862 126.203C9.62148 126.286 10.7816 125.29 10.8644 125.207C11.6102 124.793 12.356 124.212 13.1018 123.714Z" fill="#842353"/>
<path d="M13.1018 123.714C11.6931 123.963 10.2015 123.963 8.79284 123.632C8.37852 123.549 8.04706 123.466 7.63274 123.217C7.21842 122.968 7.05269 122.636 6.72124 122.387C6.14119 121.807 5.56114 121.309 4.98109 120.812C4.06959 120.065 3.07522 119.402 1.99799 118.987C1.58367 118.821 0.755025 118.407 0.257841 118.738C-0.239344 119.07 0.0921124 119.734 0.340705 120.065C1.16935 121.641 2.6609 122.968 3.90386 124.129L6.14119 126.7L7.54988 126.12L10.2015 126.866C10.2844 126.866 11.1959 125.705 11.2788 125.622C11.9417 125.041 12.5217 124.378 13.1018 123.714Z" fill="#842353"/>
<path d="M12.8532 123.466C13.1018 123.051 13.2675 122.636 13.1846 122.139C13.1846 120.978 12.0245 120.314 11.0302 119.982C10.4501 119.816 8.95857 119.816 8.54425 119.07C8.46138 118.821 8.62711 118.738 8.79284 118.572C9.70434 118.075 10.7816 117.909 11.7759 118.075C13.599 118.407 15.0076 119.899 16.002 121.475C16.1677 121.724 18.0736 123.549 18.2393 123.714L17.0792 127.53C-0.239339 134.165 0.340708 119.568 7.54988 119.07C7.79847 119.07 8.29566 119.153 8.37852 119.485C8.46138 119.734 8.12993 120.065 7.9642 120.231C7.21842 121.061 6.30692 121.724 5.72687 122.719C5.39541 123.134 5.22969 123.632 5.06396 124.212C4.89823 124.959 5.06396 125.622 5.8926 125.871C7.38415 126.286 8.95857 126.203 10.3673 125.539C11.2788 125.041 12.2731 124.378 12.8532 123.466Z" fill="#B5376A"/>
<path d="M145.436 145.361L114.61 133.75V129.188H93.8942V132.92L60.9972 145.361C60.1685 145.527 59.5885 146.273 59.5885 147.103C59.5885 147.932 60.2514 148.678 61.08 148.761L96.7116 153.074V154.65C96.7116 157.387 97.7059 160.041 99.5289 162.114L99.6118 162.197C100.192 162.861 101.352 162.446 101.352 161.534V152.245C101.352 152.162 101.435 151.996 101.435 151.913C101.518 151.415 101.352 150.918 101.021 150.503C100.606 149.84 99.8604 149.425 99.0318 149.425C98.6174 149.425 98.286 149.508 97.9545 149.674L71.9352 146.522L99.8604 142.375H106.324L134.249 146.522L108.23 149.674C107.898 149.508 107.567 149.425 107.152 149.425C106.324 149.425 105.578 149.84 105.164 150.503C104.832 150.835 104.667 151.332 104.749 151.913C104.749 151.996 104.749 152.162 104.832 152.245V161.534C104.832 162.446 105.992 162.861 106.572 162.197L106.655 162.114C108.478 160.041 109.473 157.387 109.473 154.65V153.074L145.104 148.761C145.933 148.678 146.596 147.932 146.596 147.103C146.844 146.273 146.264 145.527 145.436 145.361Z" fill="#B5376A"/>
<path d="M102.761 128.359V77.4358C102.844 76.9381 102.844 76.4405 102.844 76.0258C102.844 69.9714 97.9545 65.1611 91.9883 65.1611C89.0052 65.1611 86.2707 66.3222 84.3648 68.3127C82.3761 66.4052 79.7244 65.1611 76.7413 65.1611C71.7695 65.0782 67.7092 68.2298 66.3005 72.7084C65.1404 72.2937 63.9803 72.1278 62.6545 72.1278C56.6054 72.1278 51.7993 77.0211 51.7993 82.9925C51.7993 83.1584 51.7993 83.3243 51.7993 83.4072C47.3246 84.7342 44.01 88.881 44.01 93.8572C44.01 95.9307 44.5901 97.8382 45.5845 99.4969C43.0985 101.487 41.5241 104.556 41.5241 107.956C41.5241 113.513 45.6673 118.075 50.9706 118.738C50.4734 119.982 50.142 121.392 50.142 122.885C50.142 128.939 55.031 133.75 60.9972 133.75C62.2401 133.75 63.4002 133.584 64.4775 133.169C66.3005 136.57 69.9465 138.892 74.0897 138.892C77.4043 138.892 80.3874 137.399 82.3761 135.077C84.282 138.394 87.7623 140.634 91.8226 140.634C97.3745 140.634 101.932 136.487 102.595 131.179C102.678 130.681 102.678 130.184 102.678 129.769C102.844 129.271 102.844 128.774 102.761 128.359Z" fill="#FF679B"/>
<path d="M91.9883 141.629C87.7623 141.629 83.7848 139.307 81.7132 135.657C81.4646 135.16 81.6303 134.579 82.0446 134.33C82.5418 134.082 83.1219 134.247 83.3705 134.662C85.1106 137.731 88.4252 139.721 91.9883 139.721C97.4574 139.721 101.932 135.243 101.932 129.769V75.9429C101.932 70.4691 97.4574 65.9905 91.9883 65.9905C87.928 65.9905 84.1991 68.5615 82.7076 72.3766C82.5418 72.8742 81.9618 73.123 81.4646 72.9572C80.9674 72.7913 80.7188 72.2107 80.8845 71.7131C82.6247 67.1516 87.0993 64.0829 91.9883 64.0829C98.5346 64.0829 103.838 69.3909 103.838 75.9429V129.769C103.838 136.321 98.5346 141.629 91.9883 141.629Z" fill="#E0558B"/>
<path d="M65.8033 76.9381C65.3061 76.9381 64.8089 76.5234 64.8089 75.9429C64.8089 69.3909 70.1122 64.0829 76.6585 64.0829C79.8073 64.0829 82.7904 65.327 85.0277 67.4833C85.4421 67.898 85.4421 68.4786 85.0277 68.8933C84.6134 69.3079 84.0334 69.3079 83.6191 68.8933C81.7132 67.0687 79.3101 66.0734 76.6585 66.0734C71.1895 66.0734 66.7148 70.552 66.7148 76.0258C66.7977 76.5234 66.3005 76.9381 65.8033 76.9381Z" fill="#E0558B"/>
<path d="M51.7993 83.9048C51.3021 83.9048 50.8049 83.4901 50.8049 82.9096C50.8049 76.3576 56.1082 71.0496 62.6545 71.0496C63.8146 71.0496 65.0575 71.2155 66.2176 71.5472C66.7148 71.7131 67.0462 72.2937 66.8805 72.7913C66.7148 73.2889 66.1347 73.6207 65.6376 73.4548C64.7261 73.123 63.7317 73.0401 62.6545 73.0401C57.1854 73.0401 52.7108 77.5187 52.7108 82.9925C52.7936 83.4901 52.2965 83.9048 51.7993 83.9048Z" fill="#E0558B"/>
<path d="M47.9047 103.146C47.6561 103.146 47.4903 103.063 47.2417 102.897C44.5072 100.658 43.0157 97.3406 43.0157 93.7743C43.0157 87.2223 48.319 81.9143 54.8652 81.9143C56.4396 81.9143 58.0141 82.2461 59.5056 82.8266C60.0028 83.0755 60.2514 83.5731 60.0028 84.0707C59.7542 84.5683 59.257 84.8171 58.7598 84.5683C57.5169 84.0707 56.2739 83.8219 54.8652 83.8219C49.3962 83.8219 44.9216 88.3005 44.9216 93.7743C44.9216 96.76 46.2474 99.4969 48.4847 101.404C48.899 101.736 48.9819 102.4 48.5676 102.814C48.4847 103.063 48.2361 103.146 47.9047 103.146Z" fill="#E0558B"/>
<path d="M52.4622 119.816C45.9159 119.816 40.6126 114.508 40.6126 107.956C40.6126 104.39 42.187 101.073 44.9216 98.8334C45.3359 98.5017 45.9159 98.5846 46.3302 98.9993C46.6617 99.414 46.5788 99.9946 46.1645 100.409C43.8443 102.317 42.5185 105.054 42.5185 108.039C42.5185 113.513 46.9932 117.992 52.4622 117.992C53.8709 117.992 55.2796 117.66 56.5225 117.162C57.0197 116.914 57.5998 117.162 57.8483 117.66C58.0969 118.158 57.8483 118.738 57.3512 118.987C55.7767 119.485 54.1195 119.816 52.4622 119.816Z" fill="#E0558B"/>
<path d="M61.1629 134.745C54.6167 134.745 49.3134 129.437 49.3134 122.885C49.3134 121.309 49.6448 119.816 50.2249 118.407C50.3906 117.909 50.9706 117.66 51.4678 117.909C51.965 118.075 52.2136 118.655 51.965 119.153C51.4678 120.314 51.2192 121.641 51.2192 122.885C51.2192 128.359 55.6939 132.838 61.1629 132.838C62.2401 132.838 63.3174 132.672 64.3117 132.34C64.8089 132.174 65.389 132.423 65.5547 132.92C65.7204 133.418 65.4718 133.999 64.9747 134.165C63.7317 134.579 62.4059 134.745 61.1629 134.745Z" fill="#E0558B"/>
<path d="M74.1726 139.97C67.6263 139.97 62.323 134.662 62.323 128.11C62.323 127.613 62.7373 127.115 63.3174 127.115C63.8974 127.115 64.3117 127.53 64.3117 128.11C64.3117 133.584 68.7864 138.063 74.2554 138.063C79.7244 138.063 84.1991 133.584 84.1991 128.11C84.1991 127.613 84.6134 127.115 85.1935 127.115C85.7735 127.115 86.1878 127.53 86.1878 128.11C86.105 134.662 80.7188 139.97 74.1726 139.97Z" fill="#E0558B"/>
<path d="M78.0672 125.207C73.2611 125.207 69.035 122.387 67.1291 117.992C66.8805 117.494 67.1291 116.914 67.6263 116.748C68.1235 116.499 68.7035 116.748 68.8693 117.245C70.4437 120.895 74.0068 123.3 77.9843 123.3C80.0559 123.3 81.9618 122.719 83.6191 121.558C84.0334 121.226 84.6963 121.392 84.9449 121.807C85.2763 122.222 85.1106 122.885 84.6963 123.134C82.8733 124.461 80.5531 125.207 78.0672 125.207Z" fill="#E0558B"/>
<path d="M83.6191 85.8953C83.1219 85.8953 82.6247 85.4806 82.6247 84.9001C82.6247 81.3338 79.7244 78.5139 76.2442 78.5139C72.7639 78.5139 69.8636 81.4167 69.8636 84.9001C69.8636 85.3977 69.4493 85.8953 68.8693 85.8953C68.2892 85.8953 67.8749 85.4806 67.8749 84.9001C67.8749 80.2556 71.6038 76.5235 76.2442 76.5235C80.8845 76.5235 84.5306 80.2556 84.5306 84.9001C84.5306 85.3977 84.1162 85.8953 83.6191 85.8953Z" fill="#E0558B"/>
<path d="M103.175 128.359V77.4358C103.092 76.9381 103.092 76.4405 103.092 76.0258C103.092 69.9715 107.981 65.1611 113.947 65.1611C116.93 65.1611 119.665 66.3222 121.571 68.3127C123.56 66.4052 126.211 65.1611 129.194 65.1611C134.083 65.1611 138.226 68.3957 139.552 72.7913C140.712 72.3766 141.872 72.2107 143.198 72.2107C149.247 72.2107 154.053 77.104 154.053 83.0755C154.053 83.2413 154.053 83.4072 154.053 83.4901C158.528 84.8171 161.843 88.964 161.843 93.9402C161.843 96.0136 161.263 97.9211 160.268 99.5799C162.754 101.57 164.329 104.639 164.329 108.039C164.329 113.596 160.185 118.158 154.882 118.821C155.379 120.065 155.711 121.475 155.711 122.968C155.711 129.022 150.822 133.833 144.856 133.833C143.613 133.833 142.453 133.667 141.375 133.252C139.552 136.653 135.906 138.975 131.763 138.975C128.449 138.975 125.465 137.482 123.477 135.16C121.571 138.477 118.091 140.717 114.03 140.717C108.478 140.717 103.921 136.57 103.258 131.262C103.175 130.764 103.175 130.266 103.175 129.852C103.009 129.271 103.092 128.774 103.175 128.359Z" fill="#FF679B"/>
<path d="M113.947 141.629C107.401 141.629 102.098 136.321 102.098 129.769V75.9429C102.098 69.3909 107.401 64.0829 113.947 64.0829C118.836 64.0829 123.311 67.1516 125.051 71.7131C125.217 72.2107 124.968 72.7913 124.471 72.9572C123.974 73.123 123.394 72.8742 123.228 72.3766C121.737 68.5615 118.008 65.9905 113.947 65.9905C108.478 65.9905 104.004 70.4691 104.004 75.9429V129.769C104.004 135.243 108.478 139.721 113.947 139.721C117.51 139.721 120.825 137.814 122.565 134.662C122.814 134.165 123.394 133.999 123.891 134.33C124.388 134.579 124.554 135.16 124.222 135.657C122.151 139.307 118.173 141.629 113.947 141.629Z" fill="#E0558B"/>
<path d="M140.132 76.9381C139.635 76.9381 139.138 76.5235 139.138 75.9429C139.138 70.4691 134.663 65.9905 129.194 65.9905C126.543 65.9905 124.057 66.9857 122.234 68.8103C121.819 69.225 121.239 69.225 120.825 68.8103C120.411 68.3956 120.411 67.8151 120.825 67.4004C123.062 65.1611 126.045 64 129.194 64C135.741 64 141.044 69.308 141.044 75.86C141.044 76.5235 140.63 76.9381 140.132 76.9381Z" fill="#E0558B"/>
<path d="M154.136 83.9048C153.639 83.9048 153.142 83.4901 153.142 82.9096C153.142 77.4358 148.667 72.9572 143.198 72.9572C142.204 72.9572 141.21 73.123 140.215 73.3719C139.718 73.5377 139.138 73.206 138.972 72.7084C138.807 72.2107 139.138 71.6302 139.635 71.4643C140.795 71.1326 141.955 70.9667 143.198 70.9667C149.745 70.9667 155.048 76.2746 155.048 82.8266C155.048 83.4901 154.634 83.9048 154.136 83.9048Z" fill="#E0558B"/>
<path d="M157.948 103.146C157.7 103.146 157.368 103.063 157.202 102.814C156.871 102.4 156.954 101.819 157.285 101.404C159.523 99.4969 160.848 96.76 160.848 93.7743C160.848 88.3005 156.374 83.8219 150.905 83.8219C149.579 83.8219 148.253 84.0707 147.01 84.5683C146.513 84.8171 145.933 84.5683 145.767 84.0707C145.518 83.5731 145.767 82.9925 146.264 82.8266C147.756 82.2461 149.247 81.9143 150.905 81.9143C157.451 81.9143 162.754 87.2223 162.754 93.7743C162.754 97.3406 161.18 100.658 158.528 102.897C158.362 103.146 158.197 103.146 157.948 103.146Z" fill="#E0558B"/>
<path d="M153.473 119.816C151.816 119.816 150.159 119.485 148.584 118.738C148.087 118.489 147.839 117.909 148.087 117.411C148.336 116.914 148.916 116.665 149.413 116.914C150.656 117.494 152.065 117.743 153.473 117.743C158.942 117.743 163.417 113.264 163.417 107.791C163.417 104.805 162.091 102.068 159.771 100.16C159.357 99.8287 159.274 99.1652 159.605 98.7505C159.937 98.3358 160.6 98.2529 161.014 98.5846C163.749 100.824 165.323 104.224 165.323 107.708C165.323 114.508 160.02 119.816 153.473 119.816Z" fill="#E0558B"/>
<path d="M144.773 134.745C143.447 134.745 142.204 134.496 140.961 134.082C140.464 133.916 140.215 133.335 140.381 132.838C140.547 132.34 141.127 132.091 141.624 132.257C142.618 132.589 143.695 132.755 144.773 132.755C150.242 132.755 154.716 128.276 154.716 122.802C154.716 121.475 154.468 120.231 153.971 119.07C153.805 118.572 153.971 117.992 154.468 117.826C154.965 117.66 155.545 117.826 155.711 118.324C156.291 119.734 156.622 121.226 156.622 122.802C156.622 129.437 151.319 134.745 144.773 134.745Z" fill="#E0558B"/>
<path d="M131.68 139.97C125.134 139.97 119.831 134.662 119.831 128.11C119.831 127.613 120.245 127.115 120.825 127.115C121.405 127.115 121.819 127.53 121.819 128.11C121.819 133.584 126.294 138.063 131.763 138.063C137.232 138.063 141.707 133.584 141.707 128.11C141.707 127.613 142.121 127.115 142.701 127.115C143.281 127.115 143.695 127.53 143.695 128.11C143.53 134.662 138.226 139.97 131.68 139.97Z" fill="#E0558B"/>
<path d="M127.786 125.207C125.383 125.207 122.979 124.461 120.991 123.051C120.576 122.719 120.411 122.139 120.742 121.724C121.074 121.309 121.654 121.143 122.068 121.475C123.725 122.636 125.714 123.217 127.703 123.217C131.68 123.217 135.243 120.812 136.818 117.162C137.066 116.665 137.564 116.416 138.061 116.665C138.558 116.914 138.806 117.411 138.558 117.909C136.901 122.387 132.592 125.207 127.786 125.207Z" fill="#E0558B"/>
<path d="M137.066 85.8953C136.569 85.8953 136.072 85.4806 136.072 84.9001C136.072 81.3338 133.172 78.5139 129.691 78.5139C126.211 78.5139 123.311 81.4167 123.311 84.9001C123.311 85.3977 122.897 85.8953 122.317 85.8953C121.737 85.8953 121.322 85.4806 121.322 84.9001C121.322 80.2556 125.051 76.5235 129.691 76.5235C134.332 76.5235 138.061 80.2556 138.061 84.9001C138.061 85.3977 137.646 85.8953 137.066 85.8953Z" fill="#E0558B"/>
<path d="M83.7848 102.068C79.5587 102.068 76.1613 98.6676 76.1613 94.4378C76.1613 93.9402 76.5756 93.5255 77.0728 93.5255C77.57 93.5255 77.9843 93.9402 77.9843 94.4378C77.9843 97.5894 80.5531 100.16 83.7019 100.16C86.8508 100.16 89.4195 97.5894 89.4195 94.4378C89.4195 93.9402 89.8339 93.5255 90.331 93.5255C90.8282 93.5255 91.2425 93.9402 91.2425 94.4378C91.4083 98.6676 87.928 102.068 83.7848 102.068Z" fill="#33081D"/>
<path d="M124.968 102.068C120.742 102.068 117.345 98.6676 117.345 94.4378C117.345 93.9402 117.759 93.5255 118.256 93.5255C118.753 93.5255 119.168 93.9402 119.168 94.4378C119.168 97.5894 121.737 100.16 124.885 100.16C128.034 100.16 130.603 97.5894 130.603 94.4378C130.603 93.9402 131.017 93.5255 131.514 93.5255C132.012 93.5255 132.426 93.9402 132.426 94.4378C132.592 98.6676 129.194 102.068 124.968 102.068Z" fill="#33081D"/>
<path d="M102.844 120.812C96.463 120.812 91.2426 115.587 91.2426 109.201C91.2426 108.371 91.9055 107.708 92.7341 107.708C93.5627 107.708 94.2257 108.371 94.2257 109.201C94.2257 114.011 98.1203 117.909 102.926 117.909C107.732 117.909 111.627 114.011 111.627 109.201C111.627 108.371 112.29 107.708 113.119 107.708C113.947 107.708 114.61 108.371 114.61 109.201C114.444 115.67 109.224 120.812 102.844 120.812Z" fill="#B5376A"/>
<g opacity="0.45" filter="url(#filter0_f)">
<path d="M58.0092 176.479C58.0092 174.073 77.8966 172.083 102.507 172.083C127.035 172.083 147.005 174.073 147.005 176.479C147.005 178.884 127.118 180.874 102.507 180.874C77.8966 180.957 58.0092 178.967 58.0092 176.479Z" fill="#425461"/>
</g>
<circle cx="19" cy="64" r="19" fill="white"/>
<path d="M8.06055 84.0322V85.2451H8.87354V85.6846H8.06055V88.8442C8.06055 89.105 8.09863 89.2998 8.1748 89.4287C8.25391 89.5547 8.38428 89.6177 8.56592 89.6177C8.64502 89.6177 8.76221 89.603 8.91748 89.5737L8.93066 90.0132C8.81934 90.063 8.65967 90.0879 8.45166 90.0879C7.88037 90.0879 7.5874 89.6953 7.57275 88.9102V85.6846H6.83887V85.2451H7.57275V84.0322H8.06055ZM10.4819 90H9.98975V85.2451H10.4819V90ZM9.91943 83.874C9.91943 83.7744 9.94727 83.6895 10.0029 83.6191C10.0586 83.5488 10.1377 83.5137 10.2402 83.5137C10.3428 83.5137 10.4219 83.5488 10.4775 83.6191C10.5361 83.6895 10.5654 83.7744 10.5654 83.874C10.5654 83.9736 10.5361 84.0586 10.4775 84.1289C10.4219 84.1963 10.3428 84.23 10.2402 84.23C10.1377 84.23 10.0586 84.1963 10.0029 84.1289C9.94727 84.0586 9.91943 83.9736 9.91943 83.874ZM12.3013 85.2451L12.3145 86.001C12.4551 85.7432 12.6338 85.5381 12.8506 85.3857C13.0703 85.2334 13.3193 85.1572 13.5977 85.1572C14.4268 85.1572 14.8516 85.7095 14.8721 86.814V90H14.3887V86.8667C14.3857 86.4419 14.311 86.1284 14.1646 85.9263C14.0181 85.7241 13.7881 85.623 13.4746 85.623C13.2197 85.623 12.9897 85.7197 12.7847 85.9131C12.5825 86.1035 12.4287 86.3657 12.3232 86.6997V90H11.8354V85.2451H12.3013ZM18.6821 90C18.6382 89.8477 18.6089 89.6279 18.5942 89.3408C18.4478 89.5781 18.2588 89.7627 18.0273 89.8945C17.7988 90.0234 17.5498 90.0879 17.2803 90.0879C16.8701 90.0879 16.5508 89.9722 16.3223 89.7407C16.0938 89.5093 15.9795 89.1797 15.9795 88.752C15.9795 88.2861 16.1377 87.917 16.4541 87.6445C16.7734 87.3721 17.2129 87.2344 17.7725 87.2314H18.5898V86.5679C18.5898 86.228 18.5049 85.9849 18.335 85.8384C18.168 85.689 17.9219 85.6143 17.5967 85.6143C17.2949 85.6143 17.0474 85.7021 16.854 85.8779C16.6606 86.0537 16.564 86.2808 16.564 86.5591L16.0762 86.5547C16.0762 86.165 16.2227 85.8354 16.5156 85.5659C16.8086 85.2935 17.1763 85.1572 17.6187 85.1572C18.0962 85.1572 18.458 85.2773 18.7041 85.5176C18.9502 85.7578 19.0732 86.1079 19.0732 86.5679V88.9014C19.0732 89.3672 19.1157 89.7158 19.2007 89.9473V90H18.6821ZM17.3418 89.6177C17.6289 89.6177 17.8823 89.543 18.1021 89.3936C18.3247 89.2441 18.4873 89.0449 18.5898 88.7959V87.6401H17.8164C17.3711 87.646 17.0356 87.7456 16.8101 87.939C16.5845 88.1294 16.4717 88.3872 16.4717 88.7124C16.4717 89.3159 16.7617 89.6177 17.3418 89.6177ZM20.8706 85.2451L20.8838 86.001C21.0244 85.7432 21.2031 85.5381 21.4199 85.3857C21.6396 85.2334 21.8887 85.1572 22.167 85.1572C22.9961 85.1572 23.4209 85.7095 23.4414 86.814V90H22.958V86.8667C22.9551 86.4419 22.8804 86.1284 22.7339 85.9263C22.5874 85.7241 22.3574 85.623 22.0439 85.623C21.7891 85.623 21.5591 85.7197 21.354 85.9131C21.1519 86.1035 20.998 86.3657 20.8926 86.6997V90H20.4048V85.2451H20.8706ZM27.2515 90C27.2075 89.8477 27.1782 89.6279 27.1636 89.3408C27.0171 89.5781 26.8281 89.7627 26.5967 89.8945C26.3682 90.0234 26.1191 90.0879 25.8496 90.0879C25.4395 90.0879 25.1201 89.9722 24.8916 89.7407C24.6631 89.5093 24.5488 89.1797 24.5488 88.752C24.5488 88.2861 24.707 87.917 25.0234 87.6445C25.3428 87.3721 25.7822 87.2344 26.3418 87.2314H27.1592V86.5679C27.1592 86.228 27.0742 85.9849 26.9043 85.8384C26.7373 85.689 26.4912 85.6143 26.166 85.6143C25.8643 85.6143 25.6167 85.7021 25.4233 85.8779C25.23 86.0537 25.1333 86.2808 25.1333 86.5591L24.6455 86.5547C24.6455 86.165 24.792 85.8354 25.085 85.5659C25.3779 85.2935 25.7456 85.1572 26.188 85.1572C26.6655 85.1572 27.0273 85.2773 27.2734 85.5176C27.5195 85.7578 27.6426 86.1079 27.6426 86.5679V88.9014C27.6426 89.3672 27.6851 89.7158 27.77 89.9473V90H27.2515ZM25.9111 89.6177C26.1982 89.6177 26.4517 89.543 26.6714 89.3936C26.894 89.2441 27.0566 89.0449 27.1592 88.7959V87.6401H26.3857C25.9404 87.646 25.605 87.7456 25.3794 87.939C25.1538 88.1294 25.041 88.3872 25.041 88.7124C25.041 89.3159 25.3311 89.6177 25.9111 89.6177Z" fill="#34393D"/>
<path d="M60.5024 45.9189L60.542 46.1826L60.5947 45.897L61.5659 42.2451H61.9746L62.937 45.8662L63.0073 46.2397L63.0645 45.9058L63.8862 42.2451H64.3872L63.2227 47H62.814L61.7812 43.2207L61.7593 43.1064L61.7417 43.2251L60.7266 47H60.3135L59.1577 42.2451H59.6543L60.5024 45.9189ZM67.8853 47C67.8413 46.8477 67.812 46.6279 67.7974 46.3408C67.6509 46.5781 67.4619 46.7627 67.2305 46.8945C67.002 47.0234 66.7529 47.0879 66.4834 47.0879C66.0732 47.0879 65.7539 46.9722 65.5254 46.7407C65.2969 46.5093 65.1826 46.1797 65.1826 45.752C65.1826 45.2861 65.3408 44.917 65.6572 44.6445C65.9766 44.3721 66.416 44.2344 66.9756 44.2314H67.793V43.5679C67.793 43.228 67.708 42.9849 67.5381 42.8384C67.3711 42.689 67.125 42.6143 66.7998 42.6143C66.498 42.6143 66.2505 42.7021 66.0571 42.8779C65.8638 43.0537 65.7671 43.2808 65.7671 43.5591L65.2793 43.5547C65.2793 43.165 65.4258 42.8354 65.7188 42.5659C66.0117 42.2935 66.3794 42.1572 66.8218 42.1572C67.2993 42.1572 67.6611 42.2773 67.9072 42.5176C68.1533 42.7578 68.2764 43.1079 68.2764 43.5679V45.9014C68.2764 46.3672 68.3188 46.7158 68.4038 46.9473V47H67.8853ZM66.5449 46.6177C66.832 46.6177 67.0854 46.543 67.3052 46.3936C67.5278 46.2441 67.6904 46.0449 67.793 45.7959V44.6401H67.0195C66.5742 44.646 66.2388 44.7456 66.0132 44.939C65.7876 45.1294 65.6748 45.3872 65.6748 45.7124C65.6748 46.3159 65.9648 46.6177 66.5449 46.6177ZM70.1528 47H69.6606V42.2451H70.1528V47ZM69.5903 40.874C69.5903 40.7744 69.6182 40.6895 69.6738 40.6191C69.7295 40.5488 69.8086 40.5137 69.9111 40.5137C70.0137 40.5137 70.0928 40.5488 70.1484 40.6191C70.207 40.6895 70.2363 40.7744 70.2363 40.874C70.2363 40.9736 70.207 41.0586 70.1484 41.1289C70.0928 41.1963 70.0137 41.23 69.9111 41.23C69.8086 41.23 69.7295 41.1963 69.6738 41.1289C69.6182 41.0586 69.5903 40.9736 69.5903 40.874ZM73.3696 42.7021C73.2524 42.6816 73.1499 42.6714 73.062 42.6714C72.7925 42.6714 72.5654 42.7637 72.3809 42.9482C72.1992 43.1328 72.0703 43.3892 71.9941 43.7173V47H71.5063V42.2451H71.9854L71.9941 42.957C72.2256 42.4238 72.5889 42.1572 73.084 42.1572C73.2129 42.1572 73.311 42.1763 73.3784 42.2144L73.3696 42.7021ZM76.7798 46.4331C76.5103 46.8696 76.0928 47.0879 75.5273 47.0879C75.0967 47.0879 74.7715 46.9385 74.5518 46.6396C74.332 46.3408 74.2207 45.9014 74.2178 45.3213V42.2451H74.7012V45.3081C74.7012 45.7388 74.7773 46.0654 74.9297 46.2881C75.082 46.5107 75.3018 46.6221 75.5889 46.6221C76.2041 46.6221 76.5981 46.3232 76.771 45.7256V42.2451H77.2632V47H76.7886L76.7798 46.4331ZM81.0776 47C81.0337 46.8477 81.0044 46.6279 80.9897 46.3408C80.8433 46.5781 80.6543 46.7627 80.4229 46.8945C80.1943 47.0234 79.9453 47.0879 79.6758 47.0879C79.2656 47.0879 78.9463 46.9722 78.7178 46.7407C78.4893 46.5093 78.375 46.1797 78.375 45.752C78.375 45.2861 78.5332 44.917 78.8496 44.6445C79.1689 44.3721 79.6084 44.2344 80.168 44.2314H80.9854V43.5679C80.9854 43.228 80.9004 42.9849 80.7305 42.8384C80.5635 42.689 80.3174 42.6143 79.9922 42.6143C79.6904 42.6143 79.4429 42.7021 79.2495 42.8779C79.0562 43.0537 78.9595 43.2808 78.9595 43.5591L78.4717 43.5547C78.4717 43.165 78.6182 42.8354 78.9111 42.5659C79.2041 42.2935 79.5718 42.1572 80.0142 42.1572C80.4917 42.1572 80.8535 42.2773 81.0996 42.5176C81.3457 42.7578 81.4688 43.1079 81.4688 43.5679V45.9014C81.4688 46.3672 81.5112 46.7158 81.5962 46.9473V47H81.0776ZM79.7373 46.6177C80.0244 46.6177 80.2778 46.543 80.4976 46.3936C80.7202 46.2441 80.8828 46.0449 80.9854 45.7959V44.6401H80.2119C79.7666 44.646 79.4312 44.7456 79.2056 44.939C78.98 45.1294 78.8672 45.3872 78.8672 45.7124C78.8672 46.3159 79.1572 46.6177 79.7373 46.6177Z" fill="#34393D"/>
<path d="M124.481 45.9189L124.521 46.1826L124.573 45.897L125.544 42.2451H125.953L126.916 45.8662L126.986 46.2397L127.043 45.9058L127.865 42.2451H128.366L127.201 47H126.792L125.76 43.2207L125.738 43.1064L125.72 43.2251L124.705 47H124.292L123.136 42.2451H123.633L124.481 45.9189ZM129.838 42.9922C129.979 42.7373 130.156 42.5352 130.37 42.3857C130.586 42.2334 130.834 42.1572 131.112 42.1572C131.941 42.1572 132.366 42.7095 132.387 43.814V47H131.903V43.8667C131.9 43.4419 131.826 43.1284 131.679 42.9263C131.533 42.7241 131.303 42.623 130.989 42.623C130.734 42.623 130.504 42.7197 130.299 42.9131C130.097 43.1035 129.943 43.3657 129.838 43.6997V47H129.35V40.25H129.838V42.9922ZM136.197 47C136.153 46.8477 136.124 46.6279 136.109 46.3408C135.962 46.5781 135.773 46.7627 135.542 46.8945C135.313 47.0234 135.064 47.0879 134.795 47.0879C134.385 47.0879 134.065 46.9722 133.837 46.7407C133.608 46.5093 133.494 46.1797 133.494 45.752C133.494 45.2861 133.652 44.917 133.969 44.6445C134.288 44.3721 134.728 44.2344 135.287 44.2314H136.104V43.5679C136.104 43.228 136.02 42.9849 135.85 42.8384C135.683 42.689 135.437 42.6143 135.111 42.6143C134.81 42.6143 134.562 42.7021 134.369 42.8779C134.175 43.0537 134.079 43.2808 134.079 43.5591L133.591 43.5547C133.591 43.165 133.737 42.8354 134.03 42.5659C134.323 42.2935 134.691 42.1572 135.133 42.1572C135.611 42.1572 135.973 42.2773 136.219 42.5176C136.465 42.7578 136.588 43.1079 136.588 43.5679V45.9014C136.588 46.3672 136.63 46.7158 136.715 46.9473V47H136.197ZM134.856 46.6177C135.144 46.6177 135.397 46.543 135.617 46.3936C135.839 46.2441 136.002 46.0449 136.104 45.7959V44.6401H135.331C134.886 44.646 134.55 44.7456 134.325 44.939C134.099 45.1294 133.986 45.3872 133.986 45.7124C133.986 46.3159 134.276 46.6177 134.856 46.6177ZM136.434 41.063H134.114V40.6323H136.434V41.063ZM138.385 42.2451L138.398 43.001C138.539 42.7432 138.718 42.5381 138.935 42.3857C139.154 42.2334 139.403 42.1572 139.682 42.1572C140.511 42.1572 140.936 42.7095 140.956 43.814V47H140.473V43.8667C140.47 43.4419 140.395 43.1284 140.249 42.9263C140.102 42.7241 139.872 42.623 139.559 42.623C139.304 42.623 139.074 42.7197 138.869 42.9131C138.667 43.1035 138.513 43.3657 138.407 43.6997V47H137.919V42.2451H138.385ZM144.766 47C144.722 46.8477 144.693 46.6279 144.678 46.3408C144.532 46.5781 144.343 46.7627 144.111 46.8945C143.883 47.0234 143.634 47.0879 143.364 47.0879C142.954 47.0879 142.635 46.9722 142.406 46.7407C142.178 46.5093 142.063 46.1797 142.063 45.752C142.063 45.2861 142.222 44.917 142.538 44.6445C142.857 44.3721 143.297 44.2344 143.856 44.2314H144.674V43.5679C144.674 43.228 144.589 42.9849 144.419 42.8384C144.252 42.689 144.006 42.6143 143.681 42.6143C143.379 42.6143 143.131 42.7021 142.938 42.8779C142.745 43.0537 142.648 43.2808 142.648 43.5591L142.16 43.5547C142.16 43.165 142.307 42.8354 142.6 42.5659C142.893 42.2935 143.26 42.1572 143.703 42.1572C144.18 42.1572 144.542 42.2773 144.788 42.5176C145.034 42.7578 145.157 43.1079 145.157 43.5679V45.9014C145.157 46.3672 145.2 46.7158 145.285 46.9473V47H144.766ZM143.426 46.6177C143.713 46.6177 143.966 46.543 144.186 46.3936C144.409 46.2441 144.571 46.0449 144.674 45.7959V44.6401H143.9C143.455 44.646 143.12 44.7456 142.894 44.939C142.668 45.1294 142.556 45.3872 142.556 45.7124C142.556 46.3159 142.846 46.6177 143.426 46.6177ZM149.038 46.4331C148.768 46.8696 148.351 47.0879 147.785 47.0879C147.354 47.0879 147.029 46.9385 146.81 46.6396C146.59 46.3408 146.479 45.9014 146.476 45.3213V42.2451H146.959V45.3081C146.959 45.7388 147.035 46.0654 147.188 46.2881C147.34 46.5107 147.56 46.6221 147.847 46.6221C148.462 46.6221 148.856 46.3232 149.029 45.7256V42.2451H149.521V47H149.046L149.038 46.4331Z" fill="#34393D"/>
<path d="M172.793 87.9922C172.934 87.7373 173.111 87.5352 173.325 87.3857C173.542 87.2334 173.789 87.1572 174.067 87.1572C174.896 87.1572 175.321 87.7095 175.342 88.814V92H174.858V88.8667C174.855 88.4419 174.781 88.1284 174.634 87.9263C174.488 87.7241 174.258 87.623 173.944 87.623C173.689 87.623 173.459 87.7197 173.254 87.9131C173.052 88.1035 172.898 88.3657 172.793 88.6997V92H172.305V85.25H172.793V87.9922ZM177.183 92H176.691V87.2451H177.183V92ZM176.621 85.874C176.621 85.7744 176.648 85.6895 176.704 85.6191C176.76 85.5488 176.839 85.5137 176.941 85.5137C177.044 85.5137 177.123 85.5488 177.179 85.6191C177.237 85.6895 177.267 85.7744 177.267 85.874C177.267 85.9736 177.237 86.0586 177.179 86.1289C177.123 86.1963 177.044 86.23 176.941 86.23C176.839 86.23 176.76 86.1963 176.704 86.1289C176.648 86.0586 176.621 85.9736 176.621 85.874ZM179.002 87.2451L179.016 88.001C179.156 87.7432 179.335 87.5381 179.552 87.3857C179.771 87.2334 180.021 87.1572 180.299 87.1572C181.128 87.1572 181.553 87.7095 181.573 88.814V92H181.09V88.8667C181.087 88.4419 181.012 88.1284 180.866 87.9263C180.719 87.7241 180.489 87.623 180.176 87.623C179.921 87.623 179.691 87.7197 179.486 87.9131C179.284 88.1035 179.13 88.3657 179.024 88.6997V92H178.537V87.2451H179.002ZM184.438 92.0879C183.879 92.0879 183.441 91.9048 183.125 91.5386C182.808 91.1724 182.647 90.6509 182.641 89.9741V89.394C182.641 88.6968 182.793 88.1504 183.098 87.7549C183.403 87.3564 183.822 87.1572 184.355 87.1572C184.871 87.1572 185.263 87.3257 185.533 87.6626C185.805 87.9995 185.944 88.5151 185.95 89.2095V89.6665H183.125V89.9346C183.125 90.4795 183.24 90.8999 183.472 91.1958C183.706 91.4917 184.036 91.6396 184.46 91.6396C184.929 91.6396 185.309 91.4683 185.599 91.1255L185.854 91.4507C185.543 91.8755 185.071 92.0879 184.438 92.0879ZM184.355 87.6143C183.971 87.6143 183.675 87.7505 183.467 88.0229C183.262 88.2925 183.149 88.688 183.129 89.2095H185.462V89.082C185.439 88.1035 185.07 87.6143 184.355 87.6143ZM187.458 87.2451L187.471 88.001C187.611 87.7432 187.79 87.5381 188.007 87.3857C188.227 87.2334 188.476 87.1572 188.754 87.1572C189.583 87.1572 190.008 87.7095 190.028 88.814V92H189.545V88.8667C189.542 88.4419 189.467 88.1284 189.321 87.9263C189.174 87.7241 188.944 87.623 188.631 87.623C188.376 87.623 188.146 87.7197 187.941 87.9131C187.739 88.1035 187.585 88.3657 187.479 88.6997V92H186.992V87.2451H187.458ZM191.153 89.4028C191.153 88.6528 191.282 88.0918 191.54 87.7197C191.798 87.3447 192.185 87.1572 192.7 87.1572C193.248 87.1572 193.655 87.4077 193.922 87.9087L193.948 87.2451H194.401V92.1362C194.398 92.7104 194.26 93.147 193.988 93.4458C193.718 93.7446 193.324 93.894 192.806 93.894C192.545 93.894 192.281 93.8296 192.015 93.7007C191.751 93.5747 191.55 93.4194 191.413 93.2349L191.641 92.8833C191.966 93.2554 192.343 93.4414 192.771 93.4414C193.166 93.4414 193.453 93.3359 193.632 93.125C193.813 92.9141 193.906 92.5933 193.909 92.1626V91.4067C193.642 91.8608 193.238 92.0879 192.696 92.0879C192.201 92.0879 191.821 91.9019 191.558 91.5298C191.297 91.1577 191.162 90.6201 191.153 89.917V89.4028ZM191.646 89.8467C191.646 90.4561 191.738 90.9043 191.922 91.1914C192.107 91.4785 192.397 91.6221 192.792 91.6221C193.32 91.6221 193.692 91.3716 193.909 90.8706V88.4404C193.689 87.8984 193.32 87.6274 192.801 87.6274C192.403 87.6274 192.111 87.7695 191.927 88.0537C191.742 88.3379 191.648 88.7773 191.646 89.3721V89.8467ZM198.215 92C198.171 91.8477 198.142 91.6279 198.127 91.3408C197.981 91.5781 197.792 91.7627 197.561 91.8945C197.332 92.0234 197.083 92.0879 196.813 92.0879C196.403 92.0879 196.084 91.9722 195.855 91.7407C195.627 91.5093 195.513 91.1797 195.513 90.752C195.513 90.2861 195.671 89.917 195.987 89.6445C196.307 89.3721 196.746 89.2344 197.306 89.2314H198.123V88.5679C198.123 88.228 198.038 87.9849 197.868 87.8384C197.701 87.689 197.455 87.6143 197.13 87.6143C196.828 87.6143 196.581 87.7021 196.387 87.8779C196.194 88.0537 196.097 88.2808 196.097 88.5591L195.609 88.5547C195.609 88.165 195.756 87.8354 196.049 87.5659C196.342 87.2935 196.709 87.1572 197.152 87.1572C197.629 87.1572 197.991 87.2773 198.237 87.5176C198.483 87.7578 198.606 88.1079 198.606 88.5679V90.9014C198.606 91.3672 198.649 91.7158 198.734 91.9473V92H198.215ZM196.875 91.6177C197.162 91.6177 197.416 91.543 197.635 91.3936C197.858 91.2441 198.021 91.0449 198.123 90.7959V89.6401H197.35C196.904 89.646 196.569 89.7456 196.343 89.939C196.118 90.1294 196.005 90.3872 196.005 90.7124C196.005 91.3159 196.295 91.6177 196.875 91.6177ZM201.801 87.7021C201.684 87.6816 201.582 87.6714 201.494 87.6714C201.224 87.6714 200.997 87.7637 200.812 87.9482C200.631 88.1328 200.502 88.3892 200.426 88.7173V92H199.938V87.2451H200.417L200.426 87.957C200.657 87.4238 201.021 87.1572 201.516 87.1572C201.645 87.1572 201.743 87.1763 201.81 87.2144L201.801 87.7021ZM202.39 89.3809C202.39 88.6953 202.545 88.1533 202.856 87.7549C203.167 87.3564 203.59 87.1572 204.126 87.1572C204.665 87.1572 205.088 87.3535 205.396 87.7461C205.707 88.1387 205.863 88.6792 205.866 89.3677V89.873C205.866 90.5703 205.709 91.1138 205.396 91.5034C205.085 91.8931 204.665 92.0879 204.135 92.0879C203.604 92.0879 203.184 91.8975 202.874 91.5166C202.563 91.1357 202.402 90.6113 202.39 89.9434V89.3809ZM202.882 89.873C202.882 90.4209 202.992 90.8516 203.212 91.165C203.435 91.4785 203.742 91.6353 204.135 91.6353C204.536 91.6353 204.842 91.4844 205.053 91.1826C205.267 90.8809 205.375 90.4487 205.378 89.8862V89.3809C205.378 88.833 205.267 88.4023 205.044 88.0889C204.822 87.7725 204.516 87.6143 204.126 87.6143C203.748 87.6143 203.448 87.7681 203.225 88.0757C203.002 88.3833 202.888 88.8066 202.882 89.3457V89.873Z" fill="#34393D"/>
<path d="M7.91992 68V59.4688H10.3516C11.1289 59.4688 11.7129 59.6582 12.1035 60.0371C12.498 60.416 12.6953 60.9844 12.6953 61.7422C12.6953 62.1406 12.5957 62.4922 12.3965 62.7969C12.1973 63.1016 11.9277 63.3379 11.5879 63.5059C11.9785 63.623 12.2871 63.8633 12.5137 64.2266C12.7441 64.5898 12.8594 65.0273 12.8594 65.5391C12.8594 66.3047 12.6484 66.9062 12.2266 67.3438C11.8086 67.7812 11.2109 68 10.4336 68H7.91992ZM8.99219 64.0098V67.0801H10.457C10.8633 67.0801 11.1855 66.9473 11.4238 66.6816C11.6621 66.4121 11.7812 66.0352 11.7812 65.5508C11.7812 64.5234 11.3477 64.0098 10.4805 64.0098H8.99219ZM8.99219 63.1074H10.3691C10.7402 63.1074 11.0391 62.9824 11.2656 62.7324C11.4961 62.4824 11.6113 62.1504 11.6113 61.7363C11.6113 61.2676 11.5078 60.9277 11.3008 60.7168C11.0938 60.502 10.7773 60.3945 10.3516 60.3945H8.99219V63.1074ZM14.1074 64.5371C14.1074 63.6152 14.3301 62.8867 14.7754 62.3516C15.2246 61.8125 15.8164 61.543 16.5508 61.543C17.2852 61.543 17.875 61.8047 18.3203 62.3281C18.7695 62.8516 19 63.5645 19.0117 64.4668V65.1348C19.0117 66.0527 18.7891 66.7793 18.3438 67.3145C17.8984 67.8496 17.3047 68.1172 16.5625 68.1172C15.8281 68.1172 15.2383 67.8574 14.793 67.3379C14.3516 66.8184 14.123 66.1152 14.1074 65.2285V64.5371ZM15.1445 65.1348C15.1445 65.7871 15.2715 66.3008 15.5254 66.6758C15.7832 67.0469 16.1289 67.2324 16.5625 67.2324C17.4766 67.2324 17.9473 66.5723 17.9746 65.252V64.5371C17.9746 63.8887 17.8457 63.377 17.5879 63.002C17.3301 62.623 16.9844 62.4336 16.5508 62.4336C16.125 62.4336 15.7832 62.623 15.5254 63.002C15.2715 63.377 15.1445 63.8867 15.1445 64.5312V65.1348ZM20.1309 64.543C20.1309 63.5664 20.3125 62.8223 20.6758 62.3105C21.043 61.7988 21.5684 61.543 22.252 61.543C22.8574 61.543 23.3301 61.7891 23.6699 62.2812V59H24.707V68H23.7578L23.7051 67.3203C23.3652 67.8516 22.8789 68.1172 22.2461 68.1172C21.5898 68.1172 21.0742 67.8633 20.6992 67.3555C20.3281 66.8438 20.1387 66.123 20.1309 65.1934V64.543ZM21.168 65.1348C21.168 65.8457 21.2734 66.3691 21.4844 66.7051C21.6953 67.0371 22.0391 67.2031 22.5156 67.2031C23.0312 67.2031 23.416 66.9434 23.6699 66.4238V63.2246C23.4043 62.7168 23.0215 62.4629 22.5215 62.4629C22.0449 62.4629 21.7012 62.6309 21.4902 62.9668C21.2793 63.2988 21.1719 63.8105 21.168 64.502V65.1348ZM28.0352 66.2773L29.1895 61.6602H30.291L28.2168 68.8965C28.0605 69.4395 27.8398 69.8516 27.5547 70.1328C27.2695 70.418 26.9453 70.5605 26.582 70.5605C26.4414 70.5605 26.2617 70.5293 26.043 70.4668V69.5879L26.2715 69.6113C26.5723 69.6113 26.8066 69.5391 26.9746 69.3945C27.1465 69.2539 27.2852 69.0078 27.3906 68.6562L27.5957 67.9473L25.7324 61.6602H26.8633L28.0352 66.2773Z" fill="#34393D"/>
<circle cx="70" cy="19" r="19" fill="white"/>
<path d="M61.6465 20.8438C61.6465 20.418 61.5312 20.0918 61.3008 19.8652C61.0703 19.6387 60.6543 19.418 60.0527 19.2031C59.4512 18.9883 58.9902 18.7637 58.6699 18.5293C58.3535 18.291 58.1152 18.0215 57.9551 17.7207C57.7988 17.416 57.7207 17.0684 57.7207 16.6777C57.7207 16.002 57.9453 15.4453 58.3945 15.0078C58.8477 14.5703 59.4395 14.3516 60.1699 14.3516C60.6699 14.3516 61.1152 14.4648 61.5059 14.6914C61.8965 14.9141 62.1973 15.2246 62.4082 15.623C62.6191 16.0215 62.7246 16.459 62.7246 16.9355H61.6465C61.6465 16.4082 61.5195 16 61.2656 15.7109C61.0117 15.4219 60.6465 15.2773 60.1699 15.2773C59.7363 15.2773 59.4004 15.3984 59.1621 15.6406C58.9238 15.8828 58.8047 16.2227 58.8047 16.6602C58.8047 17.0195 58.9336 17.3203 59.1914 17.5625C59.4492 17.8047 59.8477 18.0215 60.3867 18.2129C61.2266 18.4902 61.8262 18.832 62.1855 19.2383C62.5488 19.6445 62.7305 20.1758 62.7305 20.832C62.7305 21.5234 62.5059 22.0781 62.0566 22.4961C61.6074 22.9102 60.9961 23.1172 60.2227 23.1172C59.7266 23.1172 59.2676 23.0098 58.8457 22.7949C58.4277 22.5762 58.0977 22.2715 57.8555 21.8809C57.6172 21.4863 57.498 21.0352 57.498 20.5273H58.5762C58.5762 21.0547 58.7227 21.4648 59.0156 21.7578C59.3125 22.0508 59.7148 22.1973 60.2227 22.1973C60.6953 22.1973 61.0508 22.0762 61.2891 21.834C61.5273 21.5918 61.6465 21.2617 61.6465 20.8438ZM68.5781 20.1348C68.5781 21.1387 68.3965 21.8867 68.0332 22.3789C67.6738 22.8711 67.1641 23.1172 66.5039 23.1172C65.8672 23.1172 65.377 22.877 65.0332 22.3965V25.4375H64.002V16.6602H64.9395L64.9922 17.3633C65.3398 16.8164 65.8379 16.543 66.4863 16.543C67.1816 16.543 67.7012 16.7852 68.0449 17.2695C68.3887 17.7539 68.5664 18.4785 68.5781 19.4434V20.1348ZM67.5469 19.543C67.5469 18.832 67.4375 18.3086 67.2188 17.9727C67 17.6328 66.6484 17.4629 66.1641 17.4629C65.668 17.4629 65.291 17.7109 65.0332 18.207V21.5059C65.2871 21.9902 65.668 22.2324 66.1758 22.2324C66.6445 22.2324 66.9883 22.0645 67.207 21.7285C67.4297 21.3887 67.543 20.8711 67.5469 20.1758V19.543ZM71.0332 23H69.9961V16.6602H71.0332V23ZM71.1152 14.9785C71.1152 15.1543 71.0664 15.3008 70.9688 15.418C70.8711 15.5352 70.7227 15.5938 70.5234 15.5938C70.3281 15.5938 70.1816 15.5352 70.084 15.418C69.9863 15.3008 69.9375 15.1543 69.9375 14.9785C69.9375 14.8027 69.9863 14.6543 70.084 14.5332C70.1816 14.4121 70.3281 14.3516 70.5234 14.3516C70.7188 14.3516 70.8652 14.4141 70.9629 14.5391C71.0645 14.6602 71.1152 14.8066 71.1152 14.9785ZM75.2871 17.6328C75.1426 17.6055 74.9863 17.5918 74.8184 17.5918C74.2871 17.5918 73.916 17.8828 73.7051 18.4648V23H72.668V16.6602H73.6758L73.6934 17.3047C73.9707 16.7969 74.3633 16.543 74.8711 16.543C75.0352 16.543 75.1719 16.5703 75.2812 16.625L75.2871 17.6328ZM77.4434 23H76.4062V16.6602H77.4434V23ZM77.5254 14.9785C77.5254 15.1543 77.4766 15.3008 77.3789 15.418C77.2812 15.5352 77.1328 15.5938 76.9336 15.5938C76.7383 15.5938 76.5918 15.5352 76.4941 15.418C76.3965 15.3008 76.3477 15.1543 76.3477 14.9785C76.3477 14.8027 76.3965 14.6543 76.4941 14.5332C76.5918 14.4121 76.7383 14.3516 76.9336 14.3516C77.1289 14.3516 77.2754 14.4141 77.373 14.5391C77.4746 14.6602 77.5254 14.8066 77.5254 14.9785ZM80.4375 15.125V16.6602H81.3926V17.498H80.4375V21.4297C80.4375 21.6797 80.4785 21.8691 80.5605 21.998C80.6426 22.127 80.7832 22.1914 80.9824 22.1914C81.1191 22.1914 81.2578 22.168 81.3984 22.1211L81.3867 23C81.1523 23.0781 80.9121 23.1172 80.666 23.1172C80.2559 23.1172 79.9434 22.9707 79.7285 22.6777C79.5137 22.3848 79.4062 21.9707 79.4062 21.4355V17.498H78.4395V16.6602H79.4062V15.125H80.4375Z" fill="#34393D"/>
<circle cx="136" cy="19" r="19" fill="white"/>
<path d="M125.646 21.8438C125.646 21.418 125.531 21.0918 125.301 20.8652C125.07 20.6387 124.654 20.418 124.053 20.2031C123.451 19.9883 122.99 19.7637 122.67 19.5293C122.354 19.291 122.115 19.0215 121.955 18.7207C121.799 18.416 121.721 18.0684 121.721 17.6777C121.721 17.002 121.945 16.4453 122.395 16.0078C122.848 15.5703 123.439 15.3516 124.17 15.3516C124.67 15.3516 125.115 15.4648 125.506 15.6914C125.896 15.9141 126.197 16.2246 126.408 16.623C126.619 17.0215 126.725 17.459 126.725 17.9355H125.646C125.646 17.4082 125.52 17 125.266 16.7109C125.012 16.4219 124.646 16.2773 124.17 16.2773C123.736 16.2773 123.4 16.3984 123.162 16.6406C122.924 16.8828 122.805 17.2227 122.805 17.6602C122.805 18.0195 122.934 18.3203 123.191 18.5625C123.449 18.8047 123.848 19.0215 124.387 19.2129C125.227 19.4902 125.826 19.832 126.186 20.2383C126.549 20.6445 126.73 21.1758 126.73 21.832C126.73 22.5234 126.506 23.0781 126.057 23.4961C125.607 23.9102 124.996 24.1172 124.223 24.1172C123.727 24.1172 123.268 24.0098 122.846 23.7949C122.428 23.5762 122.098 23.2715 121.855 22.8809C121.617 22.4863 121.498 22.0352 121.498 21.5273H122.576C122.576 22.0547 122.723 22.4648 123.016 22.7578C123.312 23.0508 123.715 23.1973 124.223 23.1973C124.695 23.1973 125.051 23.0762 125.289 22.834C125.527 22.5918 125.646 22.2617 125.646 21.8438ZM127.779 20.5371C127.779 19.6152 128.002 18.8867 128.447 18.3516C128.896 17.8125 129.488 17.543 130.223 17.543C130.957 17.543 131.547 17.8047 131.992 18.3281C132.441 18.8516 132.672 19.5645 132.684 20.4668V21.1348C132.684 22.0527 132.461 22.7793 132.016 23.3145C131.57 23.8496 130.977 24.1172 130.234 24.1172C129.5 24.1172 128.91 23.8574 128.465 23.3379C128.023 22.8184 127.795 22.1152 127.779 21.2285V20.5371ZM128.816 21.1348C128.816 21.7871 128.943 22.3008 129.197 22.6758C129.455 23.0469 129.801 23.2324 130.234 23.2324C131.148 23.2324 131.619 22.5723 131.646 21.252V20.5371C131.646 19.8887 131.518 19.377 131.26 19.002C131.002 18.623 130.656 18.4336 130.223 18.4336C129.797 18.4336 129.455 18.623 129.197 19.002C128.943 19.377 128.816 19.8867 128.816 20.5312V21.1348ZM136.223 23.2324C136.566 23.2324 136.842 23.127 137.049 22.916C137.256 22.7012 137.369 22.3965 137.389 22.002H138.367C138.344 22.6113 138.127 23.1172 137.717 23.5195C137.311 23.918 136.812 24.1172 136.223 24.1172C135.438 24.1172 134.838 23.8711 134.424 23.3789C134.014 22.8828 133.809 22.1465 133.809 21.1699V20.4727C133.809 19.5156 134.014 18.7891 134.424 18.293C134.834 17.793 135.432 17.543 136.217 17.543C136.865 17.543 137.379 17.748 137.758 18.1582C138.141 18.5684 138.344 19.1289 138.367 19.8398H137.389C137.365 19.3711 137.252 19.0195 137.049 18.7852C136.85 18.5508 136.572 18.4336 136.217 18.4336C135.756 18.4336 135.414 18.5859 135.191 18.8906C134.969 19.1914 134.854 19.6875 134.846 20.3789V21.1875C134.846 21.9336 134.955 22.4609 135.174 22.7695C135.396 23.0781 135.746 23.2324 136.223 23.2324ZM140.682 24H139.645V17.6602H140.682V24ZM140.764 15.9785C140.764 16.1543 140.715 16.3008 140.617 16.418C140.52 16.5352 140.371 16.5938 140.172 16.5938C139.977 16.5938 139.83 16.5352 139.732 16.418C139.635 16.3008 139.586 16.1543 139.586 15.9785C139.586 15.8027 139.635 15.6543 139.732 15.5332C139.83 15.4121 139.977 15.3516 140.172 15.3516C140.367 15.3516 140.514 15.4141 140.611 15.5391C140.713 15.6602 140.764 15.8066 140.764 15.9785ZM145.58 24C145.518 23.8633 145.473 23.6328 145.445 23.3086C145.078 23.8477 144.609 24.1172 144.039 24.1172C143.465 24.1172 143.016 23.957 142.691 23.6367C142.371 23.3125 142.211 22.8574 142.211 22.2715C142.211 21.627 142.43 21.1152 142.867 20.7363C143.305 20.3574 143.904 20.1641 144.666 20.1562H145.428V19.4824C145.428 19.1035 145.344 18.834 145.176 18.6738C145.008 18.5137 144.752 18.4336 144.408 18.4336C144.096 18.4336 143.842 18.5273 143.646 18.7148C143.451 18.8984 143.354 19.1328 143.354 19.418H142.316C142.316 19.0938 142.412 18.7852 142.604 18.4922C142.795 18.1953 143.053 17.9629 143.377 17.7949C143.701 17.627 144.062 17.543 144.461 17.543C145.109 17.543 145.602 17.7051 145.938 18.0293C146.277 18.3496 146.451 18.8184 146.459 19.4355V22.6348C146.463 23.123 146.529 23.5469 146.658 23.9062V24H145.58ZM144.197 23.1738C144.451 23.1738 144.693 23.1035 144.924 22.9629C145.154 22.8223 145.322 22.6465 145.428 22.4355V20.9238H144.842C144.35 20.9316 143.961 21.043 143.676 21.2578C143.391 21.4688 143.248 21.7656 143.248 22.1484C143.248 22.5078 143.32 22.7695 143.465 22.9336C143.609 23.0938 143.854 23.1738 144.197 23.1738ZM149.189 24H148.152V15H149.189V24Z" fill="#34393D"/>
<circle cx="188" cy="64" r="19" fill="white"/>
<path d="M177.303 59.4688L179.529 66.4297L181.756 59.4688H183.139V68H182.066V64.6777L182.166 61.3496L179.934 68H179.113L176.893 61.373L176.992 64.6777V68H175.92V59.4688H177.303ZM185.963 68H184.926V61.6602H185.963V68ZM186.045 59.9785C186.045 60.1543 185.996 60.3008 185.898 60.418C185.801 60.5352 185.652 60.5938 185.453 60.5938C185.258 60.5938 185.111 60.5352 185.014 60.418C184.916 60.3008 184.867 60.1543 184.867 59.9785C184.867 59.8027 184.916 59.6543 185.014 59.5332C185.111 59.4121 185.258 59.3516 185.453 59.3516C185.648 59.3516 185.795 59.4141 185.893 59.5391C185.994 59.6602 186.045 59.8066 186.045 59.9785ZM188.576 61.6602L188.605 62.3457C189.008 61.8105 189.521 61.543 190.146 61.543C191.268 61.543 191.836 62.291 191.852 63.7871V68H190.82V63.834C190.82 63.3379 190.736 62.9863 190.568 62.7793C190.404 62.5684 190.156 62.4629 189.824 62.4629C189.566 62.4629 189.334 62.5488 189.127 62.7207C188.924 62.8926 188.76 63.1172 188.635 63.3945V68H187.598V61.6602H188.576ZM193.193 64.543C193.193 63.5664 193.375 62.8223 193.738 62.3105C194.105 61.7988 194.631 61.543 195.314 61.543C195.92 61.543 196.393 61.7891 196.732 62.2812V59H197.77V68H196.82L196.768 67.3203C196.428 67.8516 195.941 68.1172 195.309 68.1172C194.652 68.1172 194.137 67.8633 193.762 67.3555C193.391 66.8438 193.201 66.123 193.193 65.1934V64.543ZM194.23 65.1348C194.23 65.8457 194.336 66.3691 194.547 66.7051C194.758 67.0371 195.102 67.2031 195.578 67.2031C196.094 67.2031 196.479 66.9434 196.732 66.4238V63.2246C196.467 62.7168 196.084 62.4629 195.584 62.4629C195.107 62.4629 194.764 62.6309 194.553 62.9668C194.342 63.2988 194.234 63.8105 194.23 64.502V65.1348Z" fill="#34393D"/>
<defs>
<filter id="filter0_f" x="45.0092" y="159.083" width="114.996" height="34.7938" filterUnits="userSpaceOnUse" color-interpolation-filters="sRGB">
<feFlood flood-opacity="0" result="BackgroundImageFix"/>
<feBlend mode="normal" in="SourceGraphic" in2="BackgroundImageFix" result="shape"/>
<feGaussianBlur stdDeviation="6.5" result="effect1_foregroundBlur"/>
</filter>
</defs>
</svg>
