<svg width="30" height="30" viewBox="0 0 30 30" fill="none" xmlns="http://www.w3.org/2000/svg">
<path d="M21.1607 13.9286H16.0714V8.83927C16.0714 8.69195 15.9509 8.57141 15.8036 8.57141H14.1964C14.0491 8.57141 13.9286 8.69195 13.9286 8.83927V13.9286H8.83927C8.69195 13.9286 8.57141 14.0491 8.57141 14.1964V15.8036C8.57141 15.9509 8.69195 16.0714 8.83927 16.0714H13.9286V21.1607C13.9286 21.308 14.0491 21.4286 14.1964 21.4286H15.8036C15.9509 21.4286 16.0714 21.308 16.0714 21.1607V16.0714H21.1607C21.308 16.0714 21.4286 15.9509 21.4286 15.8036V14.1964C21.4286 14.0491 21.308 13.9286 21.1607 13.9286Z" fill="#425461"/>
<path d="M15 0C6.71652 0 0 6.71652 0 15C0 23.2835 6.71652 30 15 30C23.2835 30 30 23.2835 30 15C30 6.71652 23.2835 0 15 0ZM15 27.4554C8.12277 27.4554 2.54464 21.8772 2.54464 15C2.54464 8.12277 8.12277 2.54464 15 2.54464C21.8772 2.54464 27.4554 8.12277 27.4554 15C27.4554 21.8772 21.8772 27.4554 15 27.4554Z" fill="#425461"/>
</svg>
