<svg width="111" height="51" viewBox="0 0 111 51" fill="none" xmlns="http://www.w3.org/2000/svg">
<path d="M48.9769 31.7805C48.9769 32.0045 48.9769 32.3405 48.9769 32.5645C50.2083 32.5645 51.5516 32.5645 52.6711 32.4525C53.1188 32.3405 53.4547 32.0045 53.7905 31.5565L48.9769 31.7805Z" fill="#FECC9B"/>
<path d="M29.8346 49.9245C30.1704 50.9325 37.5587 49.9245 37.5587 49.9245C37.5587 49.9245 54.3502 51.4925 57.9324 50.7085C61.4026 49.9245 60.2832 37.0445 60.2832 37.0445L55.2457 31.5565L53.6785 31.6685C53.3427 32.1165 53.0069 32.4525 52.5591 32.5645C51.5516 32.7885 50.0963 32.7885 48.865 32.6765C49.0888 39.9565 54.4621 46.9005 54.686 47.1245C53.0069 45.7805 37.4467 48.0205 37.4467 48.0205C37.4467 48.0205 36.5512 47.0125 35.3198 47.2365C34.0884 47.4605 34.984 48.5805 33.9765 49.1405C32.8571 49.5885 29.4988 48.9165 29.8346 49.9245Z" fill="#FECC9B"/>
<path d="M48.9769 31.7805C48.9769 32.0045 48.9769 32.3405 48.9769 32.5645C50.2083 32.5645 51.5516 32.5645 52.6711 32.4525C53.1188 32.3405 53.4547 32.0045 53.7905 31.5565L48.9769 31.7805Z" fill="#FECC9B"/>
<path d="M48.6411 33.1245C48.6411 33.1245 48.5291 35.5885 50.768 41.0765C50.768 41.0765 57.2607 39.6205 60.731 41.0765C60.731 41.0765 60.731 36.8205 59.9474 35.1405C59.1637 33.4605 55.0218 30.8845 55.0218 30.8845L48.5291 30.6605L48.6411 33.1245Z" fill="#3E5068"/>
<path d="M54.2382 37.0445C52.2233 36.2605 50.5441 34.9165 48.6411 34.0205C48.5291 33.3485 48.5291 33.0125 48.5291 33.0125L48.3052 30.5485L54.798 30.7725C54.798 30.7725 58.9399 33.4605 59.7235 35.0285C60.0593 35.7005 60.2832 36.9325 60.3951 38.0525C58.4921 37.9405 56.2532 37.8285 54.2382 37.0445Z" fill="#273749"/>
<path d="M3.08013 27.1885C6.43843 26.9645 8.34147 25.7325 8.34147 25.7325C8.34147 25.7325 15.17 28.5325 23.006 28.9805C30.8421 29.4285 41.1409 32.1165 46.85 32.3405C46.85 32.3405 47.7455 32.4525 48.9769 32.4525C48.9769 32.2285 48.9769 31.8925 48.9769 31.6685L53.7905 31.4445C55.2457 29.3165 56.1413 24.3885 56.1413 24.3885C56.1413 24.3885 53.2307 21.8125 47.2977 22.5965C41.3647 23.3805 29.1629 25.7325 25.021 25.3965C20.8791 25.0605 15.6178 23.8285 8.45341 24.0525C8.45341 24.0525 6.88621 22.4845 5.65483 23.7165C4.42345 24.9485 2.07264 25.2845 1.62487 25.8445C0.953211 26.4045 -0.278165 27.5245 3.08013 27.1885Z" fill="#FECC9B"/>
<path d="M56.4771 24.5005C56.4771 24.5005 53.9024 20.6925 42.932 22.9325C42.932 22.9325 44.2753 31.6685 42.932 32.5645C42.932 32.5645 48.4172 33.7965 52.6711 33.3485C57.0369 33.0125 56.4771 24.5005 56.4771 24.5005Z" fill="#3E5068"/>
<path d="M86.0302 27.4125C86.0302 27.4125 86.5899 27.5245 86.4779 25.6205C86.366 23.7165 86.0302 22.4845 85.5824 22.4845C85.0227 22.5965 84.4629 27.3005 86.0302 27.4125Z" fill="#C65265"/>
<path d="M67.8953 6.02048C67.8953 6.02048 67.5595 3.33248 71.9253 1.87649C76.291 0.420485 80.7688 1.76449 82.8957 5.57248C85.0226 9.38048 84.7987 14.6445 83.9032 16.7725C82.8957 18.9005 83.6793 22.5965 84.351 23.4925C85.0226 24.3885 84.9107 29.8765 83.7912 32.0045C82.6718 34.1325 82.6718 37.3805 82.6718 37.3805C82.6718 37.3805 81.5524 35.4765 81.2166 33.3485C81.2166 33.3485 81.1046 34.9165 81.5524 36.1485C81.5524 36.1485 79.2016 35.0285 78.7538 29.2045C78.418 23.4925 77.6344 21.3645 77.6344 21.3645L77.2985 17.1085L67.8953 6.02048Z" fill="#F29031"/>
<path d="M78.5299 21.0285C78.5299 21.0285 89.5003 23.8285 92.8586 23.9405C96.2169 24.0525 104.389 23.9405 104.389 23.9405C104.389 23.9405 106.852 23.4925 108.307 23.0445C109.762 22.5965 111.105 22.0365 110.993 22.7085C110.882 23.3805 109.986 24.2765 109.65 24.8365C109.314 25.3965 108.867 26.4045 107.971 26.6285C107.075 26.9645 104.501 26.8525 103.493 26.6285C102.374 26.4045 93.5303 28.0845 89.5003 27.3005C85.4704 26.5165 80.4329 26.2925 80.4329 26.2925L78.5299 21.0285Z" fill="#FECC9B"/>
<path d="M85.8062 22.7085C86.254 23.8285 86.3659 25.0605 86.3659 26.2925C86.3659 26.4045 86.3659 26.6285 86.4779 26.7405C83.3435 26.2925 80.4329 26.1805 80.4329 26.1805L78.5299 20.9165C78.5299 21.0285 82.1121 21.9245 85.8062 22.7085Z" fill="#F6B07F"/>
<path d="M78.0822 20.8045L85.5823 22.5965C85.5823 22.5965 84.7987 27.0765 86.0301 27.5245C86.0301 27.5245 81.1046 27.4125 80.5449 27.5245C79.8732 27.5245 78.0822 20.8045 78.0822 20.8045Z" fill="#E9707F"/>
<path d="M79.6494 22.2605C79.7613 22.2605 79.7613 22.3725 79.7613 22.3725C80.433 23.2685 81.1046 24.2765 81.4404 25.2845C81.6643 26.0685 81.8882 26.7405 82.224 27.4125C81.4404 27.4125 80.7688 27.4125 80.5449 27.4125C80.0971 27.5245 78.8657 23.3805 78.306 21.5885C78.7538 21.8125 79.0896 22.1485 79.6494 22.2605Z" fill="#C65265"/>
<path d="M78.0822 20.8045C78.0822 20.8045 81.3286 22.5965 80.6569 26.6285C80.0972 30.6605 74.612 36.2605 61.4026 36.9325C61.4026 36.9325 53.3427 37.6045 51.6636 34.1325C49.9844 30.6605 52.2233 24.3885 56.0294 24.6125C59.8354 24.8365 61.0668 26.7405 64.649 24.1645C68.2312 21.5885 71.1417 19.6845 73.6045 20.1325C76.0672 20.4685 78.0822 20.8045 78.0822 20.8045Z" fill="#E9707F"/>
<path d="M104.501 23.8285C104.501 23.8285 105.844 23.2685 106.404 23.9405C106.964 24.6125 106.852 25.3965 107.076 25.9565C107.299 26.5165 107.635 27.1885 107.076 27.0765C106.516 26.9645 106.18 25.9565 106.18 25.7325C106.18 25.6205 103.829 24.3885 104.501 23.8285Z" fill="#F6B07F"/>
<path d="M73.0447 24.0525C73.0447 24.0525 74.8358 27.5245 75.3955 29.7645C76.0672 32.1165 76.403 32.5645 76.403 32.5645C76.403 32.5645 73.2686 35.1405 66.8878 36.2605C66.8878 36.2605 66.9998 33.1245 66.8878 30.9965C66.7759 28.9805 67.2237 24.3885 67.2237 24.3885L73.0447 24.0525Z" fill="#C65265"/>
<path d="M72.373 17.3325C72.373 17.3325 73.4925 18.5645 73.3805 20.2445C73.2686 21.8125 76.6269 23.3805 77.5224 22.3725C78.5299 21.3645 78.1941 18.1165 78.1941 18.1165L72.373 17.3325Z" fill="#FECC9B"/>
<path d="M75.1716 19.4605C74.6119 19.2365 73.6044 18.7885 72.9328 18.4525C72.7089 17.7805 72.373 17.4445 72.373 17.4445L78.1941 18.2285C78.1941 18.2285 78.306 19.0125 78.1941 19.9085C77.1866 20.0205 76.1791 19.7965 75.1716 19.4605Z" fill="#F6B07F"/>
<path d="M70.9178 16.1005C70.9178 16.1005 73.0447 19.2365 77.7463 18.7885C82.4479 18.4525 82.8957 12.1805 82.5599 10.1645C82.2241 8.14848 81.4405 3.66848 77.5224 2.66048C73.6044 1.65248 68.2311 3.55648 67.8953 6.91648C67.5595 10.2765 69.0147 13.7485 70.9178 16.1005Z" fill="#FECC9B"/>
<path d="M72.597 17.7805C72.597 17.7805 71.0297 17.8925 68.567 14.7565C66.1042 11.6205 65.5445 5.57248 68.567 5.57248C71.5895 5.57248 74.5 12.1805 73.8283 11.7325C73.1567 11.2845 72.0372 11.0605 72.0372 11.0605L72.485 13.5245C72.597 13.4125 71.0297 15.8765 72.597 17.7805Z" fill="#F29031"/>
<path d="M71.0297 7.58849C71.0297 7.58849 78.418 9.26849 83.0076 4.11649C83.0076 4.11649 81.3285 3.44449 79.5374 1.98849C77.7463 0.532486 70.8058 -2.93951 67.8953 5.23649C67.8953 5.12449 67.7834 6.80449 71.0297 7.58849Z" fill="#F29031"/>
<path d="M72.485 10.2765C72.485 10.2765 71.5894 9.49249 70.6939 9.94049C69.7983 10.3885 72.0372 11.9565 72.0372 12.6285C72.0372 13.3005 72.8208 13.6365 73.0447 13.1885C73.2686 12.6285 73.8283 11.6205 72.485 10.2765Z" fill="#FECC9B"/>
<path d="M74.6119 29.0925C74.6119 29.0925 75.1716 34.4685 76.0672 36.7085C76.9627 38.9485 79.8733 48.3565 80.9927 49.4765C80.9927 49.4765 82.2241 49.4765 82.8957 49.4765C83.5674 49.4765 85.4704 49.5885 84.5749 50.1485C83.6793 50.5965 79.6494 50.8205 79.2016 50.4845C78.7538 50.1485 79.2016 49.8125 77.9702 47.7965C76.7388 45.7805 73.4925 41.5245 72.0372 37.9405C70.582 34.4685 69.4625 31.3325 69.4625 31.3325L74.6119 29.0925Z" fill="#FECC9B"/>
<path d="M74.388 30.4365C73.9402 30.9965 72.7089 31.4445 72.1492 31.7805C71.4775 32.1165 70.8058 32.3405 70.0222 32.4525C69.6864 31.6685 69.5745 31.2205 69.5745 31.2205L74.5 29.0925C74.5 29.0925 74.5 29.5405 74.6119 30.1005C74.6119 30.2125 74.5 30.3245 74.388 30.4365Z" fill="#F6B07F"/>
<path d="M70.582 21.0285C70.582 21.0285 68.0073 20.9165 67.4476 23.0445C66.8879 25.1725 68.4551 31.4445 68.4551 31.4445C68.4551 31.4445 73.0447 30.6605 74.6119 29.0925C74.6119 29.0925 73.1567 21.7005 70.582 21.0285Z" fill="#E9707F"/>
<path d="M80.321 11.0605C80.433 10.8365 80.433 10.7245 80.433 10.3885C80.433 9.94049 80.0972 9.49249 79.7613 9.60449C79.5374 9.60449 79.3135 9.94049 79.3135 10.3885C79.3135 10.5005 79.3135 10.5005 79.3135 10.6125C79.3135 11.0605 79.6494 11.5085 79.9852 11.3965C80.0971 11.3965 80.0972 11.3965 80.2091 11.2845C80.2091 11.2845 80.321 11.1725 80.321 11.0605Z" fill="#2B1F1B"/>
<path d="M77.1866 11.3965C77.2986 11.2845 77.2986 11.0605 77.2986 10.8365C77.2986 10.3885 76.9627 9.94049 76.6269 10.0525C76.403 10.0525 76.2911 10.2765 76.1791 10.5005V10.6125V10.7245C76.1791 10.8365 76.1791 10.9485 76.1791 11.0605C76.1791 11.5085 76.515 11.9565 76.8508 11.8445C76.9627 11.8445 76.9627 11.8445 77.0747 11.7325C77.0747 11.6205 77.0747 11.6205 77.1866 11.3965C77.1866 11.5085 77.1866 11.5085 77.1866 11.3965Z" fill="#2B1F1B"/>
<path d="M79.4255 7.47649C80.0972 7.47649 81.2166 7.70049 81.7763 8.26049C81.7763 8.26049 80.6569 7.92449 80.2091 8.03649C79.7613 8.14849 78.9777 8.26049 78.8658 8.03649C78.7538 7.70049 78.6419 7.47649 79.4255 7.47649Z" fill="#F29031"/>
<path d="M76.6269 8.37249C76.6269 8.70849 75.8433 8.70849 75.2836 8.70849C74.7239 8.70849 73.7164 9.26849 73.7164 9.26849C74.1641 8.59649 75.1716 8.14849 75.8433 8.03649C76.6269 7.81249 76.6269 8.14849 76.6269 8.37249Z" fill="#F29031"/>
<path d="M79.0896 13.5245C79.5374 13.4125 79.5374 13.7485 78.9777 13.8605C78.5299 13.9725 77.0746 13.5245 77.9702 13.5245C77.9702 13.5245 78.6419 13.6365 79.0896 13.5245Z" fill="#F6B07F"/>
<path d="M77.4105 15.3165C77.9703 15.3165 79.0897 15.3165 80.2091 15.0925C80.433 15.0925 80.5449 15.2045 80.433 15.4285C80.2091 15.8765 79.7613 16.5485 78.6419 16.6605C78.53 16.6605 77.5225 16.5485 77.1866 15.6525C77.1866 15.5405 77.2986 15.3165 77.4105 15.3165Z" fill="#433029"/>
<path d="M80.3211 15.0925C80.3211 15.0925 80.2091 15.5405 79.7613 15.7645C79.4255 15.9885 78.0822 16.1005 77.4105 15.8765C77.2986 15.8765 77.1866 15.7645 77.1866 15.6525C77.1866 15.5405 77.0747 15.4285 77.0747 15.3165C77.0747 15.3165 79.3136 15.3165 80.3211 15.0925Z" fill="white"/>
</svg>
