<svg width="57" height="81" viewBox="0 0 57 81" fill="none" xmlns="http://www.w3.org/2000/svg">
<path d="M36.7019 45.818C36.7019 45.818 37.9333 40.666 38.7169 37.642C39.5005 34.618 42.1871 24.762 41.0677 21.626C39.9482 18.602 32.1122 9.64203 29.4256 8.18603C29.4256 8.18603 28.53 6.95403 28.1942 5.16203C27.8584 3.37003 26.9628 -0.21397 26.4031 0.0100297C25.8434 0.34603 26.2912 5.16203 26.4031 6.05803C26.5151 6.95403 26.739 8.85803 27.5226 9.64203C28.3062 10.426 34.2391 20.17 37.1497 22.522C37.1497 22.522 35.6944 26.778 34.9108 30.25C34.1272 33.722 34.3511 44.25 34.3511 44.25L36.7019 45.818Z" fill="#FECC9B"/>
<path d="M18.0073 48.506C18.0073 48.506 14.3132 40.666 13.5296 37.642C12.746 34.618 10.0594 24.65 11.1788 21.626C12.2982 18.602 20.1343 9.64203 22.8209 8.18603C22.8209 8.18603 23.7164 6.95403 24.0523 5.16203C24.3881 3.37003 25.2837 -0.21397 25.8434 0.0100297C26.4031 0.23403 25.9553 5.16203 25.8434 6.05803C25.7314 6.95403 25.5075 8.85803 24.7239 9.64203C23.9403 10.426 18.0073 20.17 15.0968 22.522C15.0968 22.522 16.5521 26.778 17.3357 30.25C18.1193 33.722 19.6865 44.81 19.6865 44.81L18.0073 48.506Z" fill="#FECC9B"/>
<path d="M16.7759 27.898C15.7685 31.146 16.3282 34.394 16.664 37.642C16.9998 40.89 18.3431 43.802 17.3357 47.05C17.6715 47.946 18.0073 48.394 18.0073 48.394L19.7984 44.698C19.7984 44.698 18.2312 33.722 17.4476 30.138C17.2237 29.466 16.9998 28.682 16.7759 27.898Z" fill="#F6B07F"/>
<path d="M35.8063 26.666C35.4705 27.786 35.1347 29.13 34.7989 30.25C34.0153 33.722 34.2391 44.25 34.2391 44.25L36.7019 45.706C36.7019 45.706 36.8138 45.37 36.9258 44.698C34.2391 39.434 38.381 32.266 35.8063 26.666Z" fill="#F6B07F"/>
<path d="M0.880005 64.186C0.880005 64.186 2.78304 61.498 10.2832 62.394C17.7834 63.29 22.2612 63.178 22.2612 63.178L37.5974 63.29C37.5974 63.29 49.0156 58.25 55.5083 64.186L27.9703 76.506L0.880005 64.186Z" fill="#4B4B70"/>
<path d="M26.627 78.858C26.627 78.858 29.4256 79.082 33.0077 78.858C36.5899 78.634 41.5154 78.746 41.8513 78.41C42.1871 78.074 45.4335 74.714 44.0901 74.378C42.7468 74.042 33.5675 75.162 31.8883 75.162C30.2092 75.162 27.8584 74.378 27.8584 74.378C27.8584 74.378 23.8284 75.386 26.627 78.858Z" fill="#FECC9B"/>
<path d="M32.7839 78.858C34.3511 78.41 35.9183 77.962 37.5974 77.514C39.9482 76.954 41.9632 76.17 44.2021 75.386C44.426 74.826 44.5379 74.378 44.0902 74.266C42.7468 73.93 33.5675 75.05 31.8883 75.05C30.2092 75.05 27.8584 74.266 27.8584 74.266C27.8584 74.266 23.7165 75.274 26.627 78.746C26.627 78.858 29.3136 79.082 32.7839 78.858Z" fill="#F6B07F"/>
<path d="M20.694 26.442L22.4851 35.066L31.4405 35.626L32.0002 27.114L20.694 26.442Z" fill="#BC6722"/>
<path d="M19.7984 34.73C19.7984 34.73 19.0148 33.722 19.1268 36.522C19.3507 39.21 19.6865 46.49 17.2237 48.506C17.2237 48.506 18.9029 53.546 18.4551 57.578C18.0073 61.61 16.2163 62.842 17.2237 64.746C18.2312 66.65 23.9403 71.354 30.8808 68.442C37.8213 65.418 37.5974 63.29 37.5974 63.29C37.5974 63.29 35.8063 60.378 35.8063 56.906C35.8063 53.434 36.9258 46.378 36.9258 46.378C36.9258 46.378 34.6869 43.578 34.3511 35.402C34.3511 35.402 33.9033 34.17 33.6794 35.402C33.4555 36.634 19.7984 34.73 19.7984 34.73Z" fill="#F9629D"/>
<path d="M28.4181 74.378C28.4181 74.378 49.6873 61.834 53.9412 63.178C58.195 64.522 56.6278 70.682 51.3665 72.81C46.1051 74.826 35.3586 77.85 29.7614 78.858C29.7614 78.858 30.657 76.394 28.4181 74.378Z" fill="#7674A4"/>
<path d="M27.9703 74.378C27.9703 74.378 6.70107 61.834 2.44723 63.178C-1.80662 64.522 -0.239414 70.682 5.02192 72.81C10.2833 74.826 21.0298 77.85 26.627 78.858C26.627 78.858 25.6195 76.394 27.9703 74.378Z" fill="#7674A4"/>
<path d="M20.8059 75.162C18.7909 75.05 16.9998 75.61 15.0968 76.058C19.3506 77.29 23.7164 78.298 26.627 78.858C26.627 78.858 25.6195 76.394 27.8583 74.378C27.8583 74.378 27.6345 74.266 27.4106 74.042C25.3956 75.274 23.2687 75.274 20.8059 75.162Z" fill="#54547F"/>
<path d="M28.4181 74.378C28.4181 74.378 23.7165 76.842 22.1493 76.394C20.4701 75.834 19.7985 75.162 18.5671 76.282C17.3357 77.402 14.4252 76.394 12.9699 76.842C11.4027 77.178 11.0669 77.738 11.7386 78.746C12.4102 79.754 12.5222 80.426 13.3058 80.426C14.0894 80.426 20.3582 79.866 22.0373 79.866C23.7165 79.866 27.8584 79.642 29.6495 78.97C31.5525 78.186 29.7614 74.266 28.4181 74.378Z" fill="#FECC9B"/>
<path d="M28.4181 74.378C28.4181 74.378 28.1942 74.49 27.9703 74.602C28.0823 74.714 28.0823 74.826 28.1942 74.938C28.8659 76.058 29.3137 77.626 29.3137 78.97C29.4256 78.97 29.6495 78.858 29.7614 78.858C31.5525 78.186 29.7614 74.266 28.4181 74.378Z" fill="#F6B07F"/>
<path d="M29.5375 31.146C29.5375 31.146 29.2017 34.17 30.2092 34.73C31.2167 35.29 33.7914 35.29 33.7914 35.29C33.7914 35.29 31.2167 39.546 26.9628 39.546C22.597 39.546 19.9104 34.73 19.9104 34.73C19.9104 34.73 22.597 34.954 23.3806 33.946C24.1642 32.938 24.1642 30.922 24.1642 30.922L29.5375 31.146Z" fill="#FECC9B"/>
<path d="M26.9628 33.722C28.0822 33.61 28.7539 32.826 29.4255 32.042C29.4255 31.594 29.5375 31.146 29.5375 31.146L24.0523 31.034C24.0523 31.034 24.0523 31.706 23.9403 32.378C24.3881 33.386 25.7314 33.834 26.9628 33.722Z" fill="#F6B07F"/>
<path d="M26.627 32.602C26.627 32.602 29.3136 32.602 30.8808 29.802C32.448 27.002 32.0002 17.37 27.1867 17.258C22.3731 17.146 21.8134 18.938 21.3656 19.946C20.8059 20.954 20.1342 32.826 26.627 32.602Z" fill="#FECC9B"/>
<path d="M23.1567 23.642C23.0448 23.978 23.0448 24.202 23.2687 24.426C23.7164 24.762 24.3881 24.426 24.9478 23.754C25.1717 23.53 25.2836 23.194 25.2836 22.97C25.0598 23.754 24.0523 24.314 23.1567 23.642Z" fill="#2B1F1B"/>
<path d="M27.5225 23.642C27.5225 23.642 27.4106 23.642 27.5225 23.642C27.4106 23.978 27.4106 24.202 27.6344 24.426C28.0822 24.762 28.7539 24.426 29.3136 23.754C29.5375 23.53 29.6494 23.194 29.6494 22.97C29.4255 23.754 28.418 24.314 27.5225 23.642Z" fill="#2B1F1B"/>
<path d="M24.7239 20.058C23.9403 20.17 22.7089 20.506 22.1492 21.178C22.1492 21.178 23.3806 20.73 23.9403 20.842C24.5 20.954 25.3956 20.954 25.3956 20.73C25.3956 20.282 25.3956 19.946 24.7239 20.058Z" fill="#BC6722"/>
<path d="M27.6345 20.618C27.7464 20.954 28.53 20.842 29.0897 20.73C29.6494 20.618 30.8808 21.066 30.8808 21.066C30.3211 20.394 29.0897 20.058 28.3061 19.946C27.6345 19.946 27.6345 20.282 27.6345 20.618Z" fill="#BC6722"/>
<path d="M25.7315 26.778C25.2837 26.778 25.2837 27.002 25.8434 27.114C26.4031 27.226 27.9703 26.442 26.9628 26.554C26.9628 26.554 26.2912 26.778 25.7315 26.778Z" fill="#F6B07F"/>
<path d="M27.9703 28.57C27.1867 28.682 25.7314 28.794 24.2761 28.682C24.0522 28.682 23.8284 28.906 23.9403 29.13C24.2761 29.69 24.9478 30.474 26.515 30.474C26.515 30.474 26.515 30.474 26.6269 30.474C26.8508 30.474 28.0822 30.138 28.418 28.906C28.418 28.794 28.1942 28.57 27.9703 28.57Z" fill="#433029"/>
<path d="M24.1642 28.682C24.1642 28.682 24.3881 29.354 24.9478 29.578C25.3956 29.802 27.2986 29.802 28.0822 29.354C28.1942 29.242 28.3061 29.13 28.418 29.018C28.418 28.906 28.53 28.682 28.53 28.57C28.418 28.458 25.6195 28.794 24.1642 28.682Z" fill="white"/>
<path d="M22.1493 37.754C22.1493 37.754 21.0298 38.538 22.1493 39.434C23.2687 40.33 24.0523 38.986 24.0523 38.986L22.2612 37.642L22.1493 37.754Z" fill="#F9EED2"/>
<path d="M23.9404 38.986C23.9404 38.986 23.1568 40.106 24.612 40.554C25.9553 40.89 26.1792 39.434 26.1792 39.434L24.0523 38.874L23.9404 38.986Z" fill="#F9EED2"/>
<path d="M26.0673 39.546C26.0673 39.546 25.7314 40.89 27.0748 40.778C28.4181 40.666 28.1942 39.21 28.1942 39.21L25.9553 39.322L26.0673 39.546Z" fill="#F9EED2"/>
<path d="M28.0823 39.434C28.0823 39.434 28.3062 40.778 29.6495 40.442C30.9928 39.994 30.0973 38.65 30.0973 38.65L27.9703 39.322L28.0823 39.434Z" fill="#F9EED2"/>
<path d="M26.8508 13.674C38.381 11.434 37.9332 35.514 36.5899 41.114C35.3585 46.714 29.4255 48.618 29.4255 48.618C29.4255 48.618 31.1047 47.386 30.433 42.682C29.7614 37.978 30.9927 34.058 31.4405 29.69C32.0002 25.322 30.7689 21.738 30.0972 19.386C29.4255 17.034 26.515 17.37 26.515 17.37C26.515 17.37 23.7164 16.922 22.9328 19.386C22.2612 21.738 21.1417 25.322 21.5895 29.69C22.1492 34.058 23.2687 37.978 22.597 42.682C21.9253 47.386 23.6045 48.618 23.6045 48.618C23.6045 48.618 17.6715 46.714 16.4401 41.114C15.2087 35.514 14.761 11.322 26.1792 13.674H26.4031H26.8508Z" fill="#F29031"/>
<path d="M17.5596 25.21C17.5596 25.21 14.8729 41.674 19.7984 45.258C19.7984 45.258 17.6715 42.57 17.7835 35.738C17.8954 28.794 17.5596 25.21 17.5596 25.21Z" fill="#F9A45F"/>
<path d="M35.5824 25.322C35.5824 25.322 38.2691 41.786 33.3436 45.37C33.3436 45.37 35.4705 42.682 35.3585 35.85C35.2466 28.906 35.5824 25.322 35.5824 25.322Z" fill="#F9A45F"/>
<path d="M25.3956 16.586C25.3956 16.586 22.709 16.698 21.8134 20.842C20.9179 24.986 20.694 27.338 20.694 27.338C20.694 27.338 20.582 21.626 22.597 17.93C22.597 17.818 23.6045 16.474 25.3956 16.586Z" fill="#F9A45F"/>
<path d="M28.0823 16.586C28.0823 16.586 30.7689 16.698 31.6645 20.842C32.56 24.986 32.7839 27.338 32.7839 27.338C32.7839 27.338 32.8958 21.626 30.8809 17.93C30.9928 17.818 29.8734 16.474 28.0823 16.586Z" fill="#F9A45F"/>
</svg>
