<svg width="28" height="28" viewBox="0 0 28 28" fill="none" xmlns="http://www.w3.org/2000/svg">
<g clip-path="url(#clip0)">
<path d="M27.6854 14.3215C27.6854 13.3698 27.6075 12.413 27.4415 11.4767H14.1203V16.8679H21.7487C21.4322 18.6066 20.415 20.1448 18.9257 21.1222V24.6202H23.4768C26.1493 22.1819 27.6854 18.5809 27.6854 14.3215Z" fill="#4285F4"/>
<path d="M14.1203 28C17.9293 28 21.1415 26.7602 23.4819 24.6202L18.9309 21.1222C17.6646 21.9761 16.03 22.4597 14.1255 22.4597C10.441 22.4597 7.317 19.9956 6.19609 16.6827H1.49969V20.2888C3.89719 25.0163 8.78041 28 14.1203 28Z" fill="#34A853"/>
<path d="M6.19091 16.6827C5.59932 14.944 5.59932 13.0612 6.19091 11.3224V7.71634H1.4997C-0.5034 11.6722 -0.5034 16.3329 1.4997 20.2888L6.19091 16.6827Z" fill="#FBBC04"/>
<path d="M14.1203 5.54032C16.1338 5.50946 18.0798 6.26052 19.538 7.63917L23.5702 3.64211C21.017 1.26548 17.6283 -0.0411564 14.1203 -2.60132e-06C8.78041 -2.60132e-06 3.89719 2.98365 1.49969 7.71633L6.1909 11.3224C7.30662 8.00441 10.4358 5.54032 14.1203 5.54032Z" fill="#EA4335"/>
</g>
<defs>
<clipPath id="clip0">
<rect width="27.6854" height="28" fill="white"/>
</clipPath>
</defs>
</svg>
