<svg width="61" height="105" viewBox="0 0 61 105" fill="none" xmlns="http://www.w3.org/2000/svg">
<path d="M4.85911 96.8446C4.85911 96.8446 2.95498 95.9556 2.06639 95.8286C2.06639 95.8286 -0.218565 102.941 0.16226 103.957H2.06639C2.06639 103.957 2.06639 103.322 1.17779 102.814C0.289202 102.306 3.20886 99.3848 4.60522 99.2578C6.00158 99.2578 4.85911 96.8446 4.85911 96.8446Z" fill="#2A2220"/>
<path d="M29.9936 102.052C29.9936 102.052 29.105 103.83 29.105 104.592H38.8796C38.8796 104.592 38.6257 103.83 37.1024 103.449C35.5791 103.068 32.9133 102.052 32.6594 101.544C32.5325 101.163 30.2475 100.782 29.9936 102.052Z" fill="#2A2220"/>
<path d="M27.8356 81.8579C27.8356 81.8579 28.0895 102.687 23.7735 103.83C19.4575 104.973 16.5378 101.925 4.60529 99.7658L4.85917 96.7176C4.85917 96.7176 10.1907 95.5746 18.4419 96.4636C18.4419 96.4636 18.9497 92.9074 18.6958 89.2243C18.4419 85.5411 17.8072 78.6828 17.8072 78.6828L28.4703 75.1266L27.8356 81.8579Z" fill="#685548"/>
<path d="M18.4419 96.4636C18.4419 96.4636 20.2191 96.9717 20.9808 97.2257C20.9808 97.2257 19.5844 96.0826 19.4575 93.7965C19.2036 91.5104 18.6958 84.9061 18.188 82.62C18.0611 82.62 18.8227 90.2403 18.4419 96.4636Z" fill="#514237"/>
<path d="M16.03 64.5851L16.9186 68.7763L20.5999 71.1894L28.7242 66.8712L26.1854 63.569L16.03 64.5851Z" fill="#604D3F"/>
<path d="M42.1801 51.6305C42.1801 51.6305 46.623 54.4246 48.1463 53.1545C49.6696 51.7575 56.0167 42.74 57.0322 39.8189C57.9208 36.8977 55.2551 37.1518 53.9856 38.5488C52.7162 39.9459 47.6386 45.5342 47.6386 45.5342L45.2267 42.994C45.0997 42.867 40.149 48.4553 42.1801 51.6305Z" fill="#FECC9B"/>
<path d="M47.5116 45.4072L45.6075 47.4393C45.6075 47.4393 46.4961 46.2962 46.3691 45.4072C46.1152 44.6451 44.8458 44.3911 44.3381 45.9152C43.9572 47.5663 42.5609 51.7575 43.0686 52.1385L42.0531 51.5035C42.0531 51.5035 42.5609 44.3911 44.9728 42.8671L47.5116 45.4072Z" fill="#F6B07F"/>
<path d="M54.1126 38.1678C54.1126 38.1678 54.4934 37.1518 54.4934 36.1357C54.4934 35.1197 54.6204 33.0876 54.7473 31.5635C54.8743 30.0394 55.2551 29.1504 55.2551 29.1504C55.2551 29.1504 56.1437 29.0234 56.1437 30.4205C56.2706 31.8175 56.1437 33.8496 56.3976 34.3576C56.6514 34.7387 58.5556 36.6437 57.0323 39.4379C55.6359 42.232 54.1126 38.1678 54.1126 38.1678Z" fill="#FECC9B"/>
<path d="M55.7628 33.4686C55.7628 33.4686 56.6514 32.1985 58.4286 31.8175C60.2058 31.4365 60.7135 31.9445 60.3327 33.8496C59.9519 35.7547 60.0788 36.8978 59.0633 37.7868C58.0477 38.6758 57.1592 40.0729 56.3975 39.0569C55.7628 38.1678 55.255 34.1036 55.7628 33.4686Z" fill="#FFDBBB"/>
<path d="M29.4859 28.8964C29.4859 28.8964 34.0558 30.2934 37.4832 32.5796C40.9106 34.8657 45.4805 41.978 45.4805 41.978C45.4805 41.978 42.4339 48.3283 41.9261 53.2816L36.9754 49.8524C36.9754 49.8524 35.0713 54.0436 34.9443 55.6947C34.6905 57.3457 33.421 63.9501 33.6749 66.1092C33.6749 66.1092 23.0118 67.7602 14.3798 66.1092C14.3798 66.1092 16.03 55.4407 15.2684 49.3444L13.9989 53.0275C13.9989 53.0275 9.3021 50.9954 7.01715 48.0743C7.01715 48.0743 10.1907 37.0248 13.3642 34.7387C16.5378 32.4525 21.2346 29.7854 21.2346 29.7854L29.4859 28.8964Z" fill="#59BAE5"/>
<path d="M36.8484 49.9794C36.8484 49.9794 39.2603 44.3911 37.864 40.1999C37.864 40.1999 38.6256 43.5021 38.7526 46.4232C38.8795 49.2174 42.0531 52.0115 42.0531 52.0115C42.0531 52.0115 41.9261 53.0275 41.7992 53.4086L36.8484 49.9794Z" fill="#449DBC"/>
<path d="M15.1414 49.4714C15.1414 49.4714 14.6337 46.0422 14.5067 45.1532C14.5067 45.1532 16.4108 48.3283 16.6647 51.2495C16.9186 54.1706 15.5223 65.6011 33.548 64.4581C33.548 64.4581 33.421 65.7282 33.548 66.2362C33.548 66.2362 22.7579 68.2683 13.872 66.7442C13.999 66.7442 15.7761 54.8056 15.1414 49.4714Z" fill="#449DBC"/>
<path d="M18.0611 12.5126C18.0611 12.5126 17.2994 11.8776 16.7917 12.6396C16.2839 13.4016 16.5378 14.1637 16.9186 14.9257C17.2994 15.8148 17.6803 17.7199 18.5689 17.0848C19.3305 16.4498 18.0611 12.5126 18.0611 12.5126Z" fill="#FECC9B"/>
<path d="M32.1517 12.8936C32.1517 12.8936 33.4211 11.7506 33.8019 12.6396C34.1827 13.5286 32.9133 15.0527 32.9133 15.5607C32.9133 16.0688 32.6594 16.9578 32.1517 16.5768C31.8978 16.1958 32.1517 12.8936 32.1517 12.8936Z" fill="#FECC9B"/>
<path d="M32.5325 13.9097C32.5325 13.9097 33.6749 12.5126 33.1672 9.59144C32.6594 6.67031 29.8667 5.27324 29.8667 5.27324L29.105 7.43234L32.5325 13.9097Z" fill="#604D3F"/>
<path d="M29.4858 23.6891C29.4858 23.6891 29.2319 27.7533 29.4858 29.2774C29.7397 30.8015 27.9625 32.5796 25.1698 32.5796C22.3771 32.5796 20.9807 30.4205 20.9807 30.4205C20.9807 30.4205 20.7268 25.0862 20.473 23.6891C20.2191 22.0381 29.4858 23.6891 29.4858 23.6891Z" fill="#FECC9B"/>
<path d="M24.789 28.2613C26.5662 28.0073 28.2164 26.8643 29.3589 25.4672C29.3589 24.4512 29.4858 23.5621 29.4858 23.5621C29.4858 23.5621 20.2191 21.911 20.473 23.4351C20.5999 23.9431 20.7268 24.9592 20.7268 25.9752C21.9963 27.1183 22.8849 28.5153 24.789 28.2613Z" fill="#F6B07F"/>
<path d="M7.27102 48.7093C7.27102 48.7093 5.49384 55.6947 5.87466 56.9647C6.38243 58.2348 12.9834 63.442 15.6492 65.3471C18.4419 67.2522 20.8538 68.5223 20.8538 68.5223L21.9963 66.3632C21.9963 66.3632 14.8875 59.6319 13.4912 57.5998C12.0948 55.5677 12.0948 55.5677 12.0948 55.5677L13.2373 52.9005L7.27102 48.7093Z" fill="#FECC9B"/>
<path d="M12.7295 54.1706L13.3642 52.9005L7.27101 48.7093C7.27101 48.7093 7.01713 49.5984 6.76324 50.6144C8.1596 52.6465 10.5715 53.4086 12.7295 54.1706Z" fill="#F6B07F"/>
<path d="M20.8538 68.5223C20.8538 68.5223 20.9808 69.0303 21.7424 68.9033C22.5041 68.7763 26.4393 66.9982 27.7087 66.6172C27.7087 66.6172 27.3279 65.7281 25.6776 66.1091C24.0274 66.4902 21.9963 66.3632 21.9963 66.3632L20.8538 68.5223Z" fill="#FECC9B"/>
<path d="M19.5844 22.038C19.5844 22.038 20.7269 26.4833 25.1699 26.4833C29.6129 26.4833 32.2786 19.6249 32.5325 15.5607C32.7864 11.4965 32.1517 6.16228 26.8201 6.28929C21.4886 6.4163 19.0767 7.17833 18.9497 9.46444C18.8228 11.7506 17.6803 17.0848 19.5844 22.038Z" fill="#FECC9B"/>
<path d="M19.7113 8.5754C19.7113 8.5754 19.9652 10.6075 19.3305 12.5126C18.6958 14.4177 19.5844 16.9578 19.0766 17.4658C18.4419 17.8468 18.5689 15.0527 18.188 13.9097C17.8072 12.6396 16.7917 10.9885 16.9186 9.33743C17.0456 7.68636 17.4264 7.17833 18.4419 7.55935C19.4575 7.94037 19.7113 8.19438 19.7113 8.5754Z" fill="#604D3F"/>
<path d="M18.9497 8.06738C18.9497 8.06738 22.2502 9.97247 27.0739 9.59145C31.8977 9.21043 33.2941 5.01923 32.9133 2.60612C32.9133 2.60612 32.5324 4.2572 30.7553 4.51121C30.7553 4.51121 32.1516 1.59007 29.105 0.320007C29.105 0.320007 29.8667 1.71707 27.8356 2.47911C25.6776 3.24115 21.3616 2.2251 18.5688 5.40025C18.5688 5.40025 17.4264 7.05133 17.5533 7.68636C17.6802 7.68636 18.0611 7.68636 18.9497 8.06738Z" fill="#604D3F"/>
<path d="M21.2347 12.2586C21.9963 12.0046 23.0119 11.8776 24.1543 12.0046C24.4082 12.0046 24.6621 11.8776 24.6621 11.6236L24.789 10.8615C24.789 10.7345 24.6621 10.4805 24.2813 10.4805C23.5196 10.4805 21.9963 10.6075 20.7269 11.4965C20.3461 11.7506 20.7269 12.3856 21.2347 12.2586Z" fill="#604D3F"/>
<path d="M31.0092 12.3856C30.2476 12.1316 29.359 12.0046 28.3434 12.1316C28.0896 12.1316 27.9626 12.0046 27.8357 11.7506L27.7087 11.1155C27.7087 10.8615 27.8357 10.6075 28.0896 10.6075C28.8512 10.6075 30.1206 10.7345 31.3901 11.4966C31.7709 11.8776 31.3901 12.5126 31.0092 12.3856Z" fill="#604D3F"/>
<path d="M24.1543 21.53C24.789 21.53 26.1854 21.657 27.7087 21.53C27.9626 21.53 28.0895 21.784 28.0895 21.911C27.7087 22.6731 26.947 24.0701 25.6776 24.0701C24.2813 24.0701 23.9004 22.6731 23.7735 21.911C23.7735 21.657 23.9004 21.53 24.1543 21.53Z" fill="#433029"/>
<path d="M27.4548 21.53C27.4548 21.53 27.074 22.6731 25.9315 22.8001C24.789 22.9271 23.9005 22.5461 23.9005 22.5461C23.9005 22.5461 23.5196 21.784 23.9005 21.53C24.4082 21.403 24.916 21.784 27.4548 21.53Z" fill="white"/>
<path d="M25.6776 19.7519C25.0429 19.7519 25.1699 20.1329 25.9315 20.1329C26.5662 20.1329 28.3434 19.2439 27.2009 19.3709C27.074 19.3709 26.1854 19.7519 25.6776 19.7519Z" fill="#F6B07F"/>
<path d="M24.2813 15.6878C24.1543 15.0527 23.7735 14.6717 23.3927 14.6717C22.8849 14.6717 22.631 15.3067 22.631 16.0688C22.631 16.4498 22.758 16.7038 22.8849 16.9578C23.0119 17.0848 23.0119 17.2118 23.1388 17.2118C23.1388 17.2118 23.2658 17.2118 23.2658 17.3388H23.3927C23.9005 17.3388 24.1543 16.7038 24.1543 15.9418C24.4082 15.9418 24.2813 15.8148 24.2813 15.6878Z" fill="#2B1F1B"/>
<path d="M29.7398 15.4337C29.6128 14.7987 29.232 14.4177 28.8512 14.4177C28.3434 14.4177 28.0895 15.0527 28.0895 15.8148C28.0895 16.1958 28.2165 16.4498 28.3434 16.7038C28.3434 16.8308 28.4704 16.8308 28.4704 16.8308L28.5973 16.9578C28.5973 16.9578 28.7242 16.9578 28.7242 17.0848H28.8512C29.359 17.0848 29.6128 16.4498 29.6128 15.6878C29.7398 15.6878 29.7398 15.5607 29.7398 15.4337Z" fill="#2B1F1B"/>
<path d="M34.3097 65.7281C28.9781 65.0931 20.3461 69.1573 20.3461 69.1573C20.3461 69.1573 19.5844 68.1412 17.9342 67.1252C16.9186 67.1252 15.0145 66.4902 13.999 66.4902C12.7296 68.7763 10.1907 76.0156 12.7296 78.0477C15.5223 80.0798 27.3279 76.3966 27.3279 76.3966C27.3279 76.3966 27.7087 83.128 28.3434 86.6841C28.9781 90.1133 29.3589 102.306 29.3589 102.306C30.8822 101.671 33.1672 101.671 33.1672 101.671C33.1672 101.671 39.6412 66.3632 34.3097 65.7281Z" fill="#776151"/>
<path d="M27.4548 76.5237C27.4548 76.5237 27.4548 74.2375 28.2164 71.3164C28.2164 71.3164 25.0429 75.5076 20.9808 77.1587C16.9186 78.8098 15.3953 78.8098 15.3953 78.8098C15.3953 78.8098 19.8383 79.0638 27.4548 76.5237Z" fill="#604D3F"/>
</svg>
