<svg width="23" height="21" viewBox="0 0 23 21" fill="none" xmlns="http://www.w3.org/2000/svg">
<path fill-rule="evenodd" clip-rule="evenodd" d="M9.46624 1.92873C11.3272 1.55856 13.2562 1.74854 15.0092 2.47466C16.7622 3.20077 18.2605 4.43041 19.3146 6.00806C20.3688 7.58572 20.9314 9.44054 20.9314 11.338C20.9314 13.8824 19.9207 16.3225 18.1215 18.1217C16.3224 19.9208 13.8822 20.9316 11.3379 20.9316C9.44042 20.9316 7.5856 20.3689 6.00794 19.3147C4.43028 18.2606 3.20065 16.7623 2.47454 15.0093C1.74842 13.2563 1.55843 11.3273 1.92861 9.46636C2.29878 7.60539 3.21248 5.89597 4.55416 4.55429C5.89585 3.2126 7.60526 2.2989 9.46624 1.92873ZM14.3416 4.08617C12.9074 3.49207 11.3291 3.33663 9.80653 3.6395C8.28392 3.94237 6.88531 4.68994 5.78756 5.78768C4.68982 6.88543 3.94224 8.28404 3.63938 9.80665C3.33651 11.3293 3.49195 12.9075 4.08605 14.3418C4.68014 15.776 5.68621 17.0019 6.97702 17.8644C8.26783 18.7269 9.78541 19.1873 11.3379 19.1873C13.4196 19.1873 15.4161 18.3603 16.8881 16.8883C18.3602 15.4162 19.1871 13.4197 19.1871 11.338C19.1871 9.78553 18.7268 8.26795 17.8643 6.97714C17.0018 5.68633 15.7759 4.68026 14.3416 4.08617Z" fill="#425461"/>
<path fill-rule="evenodd" clip-rule="evenodd" d="M3.47436 3.05176e-05L3.48894 0.00010028C4.2978 0.00397027 5.07905 0.294733 5.69362 0.820633L5.12658 1.48328L5.69809 0.824479C5.81834 0.928801 5.91582 1.05678 5.98443 1.20045C6.05269 1.34339 6.09092 1.4988 6.09677 1.65707C6.10286 1.81599 6.07637 1.97448 6.01889 2.1228C5.96113 2.27186 5.87332 2.40744 5.76092 2.52112L5.75644 2.52565L2.46798 5.75567C2.38291 5.85079 2.281 5.92978 2.16711 5.98852C2.02418 6.06224 1.8662 6.10208 1.70539 6.10496L1.69759 6.1051H1.60594L1.57018 6.10215C1.41415 6.08929 1.26256 6.04387 1.12517 5.96881C0.990628 5.89531 0.872639 5.795 0.778476 5.67411L0.775347 5.67015C0.612992 5.46501 0.404179 5.20117 0.250838 4.87169C0.0855863 4.51663 0.000144165 4.12534 1.00991e-05 3.65331C-0.00431236 1.76873 1.37934 0.120605 3.28022 0.00603106L3.29395 0.00520364L3.47436 3.05176e-05ZM3.98179 1.82378C3.82504 1.77365 3.66062 1.74658 3.49366 1.74448L3.37294 1.74794C2.49403 1.80775 1.74156 2.59638 1.7443 3.64993L1.7443 3.65106V3.65219C1.7443 3.79676 1.75847 3.90339 1.77951 3.98693L3.98179 1.82378Z" fill="#425461"/>
<path fill-rule="evenodd" clip-rule="evenodd" d="M19.1938 3.05176e-05L19.3742 0.00520364L19.388 0.00603106C21.2889 0.120605 22.6725 1.76875 22.6682 3.65333C22.668 4.12535 22.5826 4.51663 22.4173 4.87169C22.264 5.20117 22.0552 5.46501 21.8928 5.67015L21.8892 5.67478C21.7946 5.79582 21.6762 5.89616 21.5411 5.96951C21.4038 6.04413 21.2523 6.08917 21.0964 6.10173L21.0615 6.10455H20.9706L20.9628 6.10441C20.802 6.10154 20.644 6.06169 20.5011 5.98798C20.3872 5.92924 20.2853 5.85025 20.2002 5.75516L16.9118 2.52567L16.9073 2.52112C16.7949 2.40744 16.707 2.27186 16.6493 2.1228C16.5918 1.97447 16.5653 1.81596 16.5714 1.65703C16.5773 1.49876 16.6155 1.34337 16.6838 1.20045C16.7524 1.05679 16.8498 0.928807 16.9701 0.824479L17.5416 1.48328L16.9746 0.820633C17.5891 0.294733 18.3704 0.00397027 19.1792 0.00010028L19.1938 3.05176e-05ZM18.6865 1.82376L20.8888 3.98657C20.9097 3.90308 20.9239 3.79655 20.9239 3.65219V3.65106L20.9239 3.64993C20.9266 2.59638 20.1741 1.80775 19.2952 1.74794L19.1745 1.74448C19.0076 1.74658 18.8432 1.77364 18.6865 1.82376Z" fill="#425461"/>
<path fill-rule="evenodd" clip-rule="evenodd" d="M11.3378 4.36081C11.8195 4.36081 12.21 4.75128 12.21 5.23295V11.338C12.21 11.8196 11.8195 12.2101 11.3378 12.2101H6.97712C6.49545 12.2101 6.10498 11.8196 6.10498 11.338C6.10498 10.8563 6.49545 10.4658 6.97712 10.4658H10.4657V5.23295C10.4657 4.75128 10.8562 4.36081 11.3378 4.36081Z" fill="#425461"/>
<path fill-rule="evenodd" clip-rule="evenodd" d="M17.2623 17.2623C17.6029 16.9217 18.1551 16.9217 18.4957 17.2623L20.676 19.4427C21.0166 19.7833 21.0166 20.3355 20.676 20.6761C20.3354 21.0167 19.7832 21.0167 19.4426 20.6761L17.2623 18.4957C16.9217 18.1551 16.9217 17.6029 17.2623 17.2623Z" fill="#425461"/>
<path fill-rule="evenodd" clip-rule="evenodd" d="M5.41347 17.2623C5.75406 17.6029 5.75406 18.1551 5.41347 18.4957L3.23311 20.6761C2.89251 21.0167 2.3403 21.0167 1.99971 20.6761C1.65911 20.3355 1.65911 19.7833 1.99971 19.4427L4.18007 17.2623C4.52066 16.9217 5.07287 16.9217 5.41347 17.2623Z" fill="#425461"/>
</svg>
