<svg width="25" height="28" viewBox="0 0 25 28" fill="none" xmlns="http://www.w3.org/2000/svg">
<path d="M2.81254 8.00003L6.80146 6.00003L9.79315 6.50003L13.2835 7.00003L18.2696 6.00003L20.2641 7.00003L21.7599 9.50003L22.7571 14L21.7599 20L18.7682 25L15.2779 25.5L12.2862 24L8.79592 25.5L6.80146 25.5L4.30838 23L1.81531 18L1.81531 12L2.81254 8.00003Z" fill="white"/>
<path fill-rule="evenodd" clip-rule="evenodd" d="M9.91573 5.26159C10.8008 5.50453 11.4505 5.68285 12.0827 5.68285C12.7176 5.68285 13.3703 5.50427 14.2583 5.26136C14.3021 5.24938 14.3464 5.23724 14.3914 5.22496C15.2639 4.98666 16.3809 4.69066 17.5588 4.79618C19.875 5.00358 21.6129 6.1522 22.7075 8.06105C23.7521 9.88269 24.1654 12.3098 24.1654 15.0881C24.1654 17.6282 23.1703 20.5417 21.8684 22.8008C21.2116 23.9403 20.4386 24.981 19.6049 25.7561C18.8079 26.497 17.7658 27.1698 16.5885 27.1698C14.9751 27.1698 14.0194 26.7405 13.2784 26.3247C13.1959 26.2783 13.1214 26.2361 13.0535 26.1977C12.5386 25.9061 12.4069 25.8316 12.0827 25.8316C11.7584 25.8316 11.6265 25.9062 11.1115 26.1979C11.0436 26.2363 10.9691 26.2784 10.8867 26.3247C10.1457 26.7404 9.19003 27.1698 7.57695 27.1698C6.39965 27.1698 5.35763 26.497 4.56071 25.7561C3.72704 24.981 2.95403 23.9403 2.29728 22.8008C0.995269 20.5418 -1.55655e-09 17.6283 -1.24898e-09 15.0881C-9.10097e-10 12.2893 0.461432 9.86473 1.52776 8.0488C2.63491 6.16333 4.35852 5.0069 6.6009 4.7967L6.60189 4.79661C7.78255 4.68679 8.90184 4.98378 9.77483 5.22294C9.82246 5.23599 9.86942 5.24888 9.91573 5.26159ZM6.85722 7.53644C5.53098 7.66091 4.57807 8.28879 3.90086 9.44206C3.18273 10.665 2.75193 12.5339 2.75193 15.0881C2.75193 17.0087 3.54112 19.4481 4.68159 21.4268C5.24607 22.4062 5.8588 23.2056 6.43457 23.7408C7.04709 24.3103 7.43821 24.4181 7.57695 24.4181C8.59594 24.4181 9.08844 24.1783 9.54 23.925C9.59568 23.8937 9.65576 23.8585 9.72038 23.8206C10.2175 23.529 10.9833 23.0799 12.0827 23.0799C13.1821 23.0799 13.9478 23.529 14.4449 23.8206C14.5095 23.8585 14.5696 23.8938 14.6253 23.925C15.0766 24.1783 15.5691 24.4181 16.5885 24.4181C16.7274 24.4181 17.1186 24.3102 17.7311 23.7408C18.3069 23.2056 18.9196 22.4062 19.484 21.4268C20.6244 19.4481 21.4135 17.0088 21.4135 15.0881C21.4135 12.5135 21.0182 10.6471 20.3202 9.42981C19.6722 8.29976 18.7334 7.66407 17.3133 7.53691L17.3133 7.53691C16.6923 7.48128 16.0248 7.63136 15.1165 7.87943C15.0469 7.89843 14.9754 7.91818 14.9022 7.93842C14.1078 8.1579 13.1065 8.43455 12.0827 8.43455C11.0598 8.43455 10.0589 8.15701 9.26591 7.93712C9.19127 7.91643 9.11847 7.89624 9.04767 7.87684C8.1399 7.62816 7.47484 7.47909 6.85722 7.53644Z" fill="#425461"/>
<path d="M15.9666 3.85148C14.7664 5.05591 13.3571 5.40004 12.605 5.5027C12.5362 5.51265 12.4661 5.50674 12.3999 5.48542C12.3338 5.4641 12.2733 5.42793 12.2232 5.37967C12.1731 5.3314 12.1346 5.2723 12.1106 5.20686C12.0866 5.14142 12.0778 5.07136 12.0849 5.002C12.2205 3.71186 12.7985 2.50906 13.72 1.5992C14.9773 0.337418 16.3489 0.0563845 17.0759 0.00189845C17.1438 -0.00431622 17.2122 0.00477229 17.2761 0.0284992C17.34 0.052226 17.3978 0.0899911 17.4453 0.139032C17.4928 0.188073 17.5288 0.247148 17.5506 0.311938C17.5724 0.376728 17.5795 0.445592 17.5714 0.513494C17.4279 1.77624 16.8622 2.9529 15.9666 3.85148Z" fill="#425461"/>
<path d="M9.88553 18.7252C10.6944 18.7252 11.3501 17.4923 11.3501 15.9715C11.3501 14.4506 10.6944 13.2178 9.88553 13.2178C9.07667 13.2178 8.42096 14.4506 8.42096 15.9715C8.42096 17.4923 9.07667 18.7252 9.88553 18.7252Z" fill="#425461"/>
<path d="M14.2801 18.7252C15.0889 18.7252 15.7446 17.4923 15.7446 15.9715C15.7446 14.4506 15.0889 13.2178 14.2801 13.2178C13.4712 13.2178 12.8155 14.4506 12.8155 15.9715C12.8155 17.4923 13.4712 18.7252 14.2801 18.7252Z" fill="#425461"/>
</svg>
