<svg width="30" height="29" viewBox="0 0 30 29" fill="none" xmlns="http://www.w3.org/2000/svg">
<path d="M11.1238 9.78025C10.4756 10.179 12.8594 15.9312 13.4409 16.8679C13.6856 17.2598 14.0755 17.539 14.5255 17.6444C14.9754 17.7498 15.4487 17.6727 15.8421 17.4302C16.2354 17.1876 16.5167 16.7993 16.6246 16.3499C16.7325 15.9006 16.6581 15.4268 16.4177 15.0322C15.8421 14.0926 11.7705 9.38005 11.1238 9.78025ZM10.638 3.4829C13.4162 2.51331 16.4409 2.51331 19.2191 3.4829C19.6962 3.6482 20.3284 3.31615 20.0485 2.59695C19.8441 2.07495 19.6469 1.56455 19.5671 1.3572C19.3772 0.86565 18.6971 0.45965 18.4013 0.39295C17.2819 0.14065 16.1219 0 14.9286 0C13.7352 0 12.5752 0.14065 11.4544 0.39295C11.1586 0.45965 10.48 0.86565 10.29 1.3572L9.80863 2.59695C9.52878 3.31615 10.161 3.64965 10.638 3.4829ZM28.1207 4.6197C27.5576 3.94419 26.935 3.3206 26.2603 2.75645C26.0385 2.5694 25.386 2.41715 24.9727 2.8304L22.5831 5.21855C23.1784 5.63927 23.7385 6.10771 24.2579 6.61925C24.7828 7.1427 25.2395 7.70965 25.6586 8.294L28.0467 5.90585C28.4614 5.49115 28.3092 4.8401 28.1207 4.6197ZM14.9286 4.205C13.3861 4.20481 11.8587 4.50846 10.4335 5.09862C9.00838 5.68878 7.71345 6.55388 6.62267 7.64452C5.53189 8.73516 4.66663 10.03 4.0763 11.4551C3.48597 12.8801 3.18213 14.4075 3.18213 15.95C3.18194 17.4926 3.48564 19.0202 4.07589 20.4454C4.66613 21.8706 5.53136 23.1656 6.62216 24.2564C7.71296 25.3472 9.00795 26.2125 10.4332 26.8027C11.8584 27.3929 13.386 27.6966 14.9286 27.6965C18.0437 27.6965 21.0313 26.459 23.2341 24.2562C25.4368 22.0535 26.6743 19.0659 26.6743 15.9507C26.6743 12.8356 25.4368 9.848 23.2341 7.64525C21.0313 5.44249 18.0437 4.205 14.9286 4.205ZM14.9286 24.7965C13.7669 24.7964 12.6167 24.5675 11.5435 24.1228C10.4703 23.6782 9.49525 23.0266 8.67392 22.2051C7.85258 21.3836 7.20109 20.4084 6.75664 19.3352C6.31219 18.2619 6.08348 17.1116 6.08358 15.95C6.08367 14.7884 6.31257 13.6381 6.7572 12.5649C7.20182 11.4918 7.85348 10.5167 8.67494 9.69534C9.49641 8.87401 10.4716 8.22252 11.5449 7.77807C12.6181 7.33361 13.7684 7.10491 14.93 7.105C17.2759 7.1052 19.5256 8.03726 21.1842 9.69616C22.8428 11.3551 23.7745 13.6049 23.7743 15.9507C23.7741 18.2966 22.842 20.5463 21.1831 22.2049C19.5243 23.8635 17.2744 24.7952 14.9286 24.795V24.7965Z" fill="#425461"/>
</svg>
