<svg width="30" height="28" viewBox="0 0 30 28" fill="none" xmlns="http://www.w3.org/2000/svg">
<path d="M26.6251 1.10717C22.6514 4.55716 19.2896 7.84131 16.2117 12.1262C14.8543 14.016 13.3448 16.2404 12.3581 18.3406C11.7948 19.4542 10.7794 21.1943 10.4332 22.8673C8.53989 21.1003 6.5062 19.0946 4.4254 17.5237C2.94228 16.4044 -1.32951 18.6864 0.409348 19.999C3.52583 22.3505 6.11764 25.2793 9.14887 27.7357C10.4168 28.7619 13.2266 26.5332 13.8869 25.5982C16.0544 22.5177 16.3506 18.7521 17.9303 15.3919C20.3422 10.2528 24.6197 6.03127 28.8429 2.36536C31.641 -0.252609 28.7511 -0.735476 26.6293 1.10717" fill="#761925"/>
</svg>
