<svg width="32" height="31" viewBox="0 0 32 31" fill="none" xmlns="http://www.w3.org/2000/svg">
<path d="M22.3869 2.58334H6.88688C6.54431 2.58334 6.21577 2.71943 5.97354 2.96166C5.7313 3.2039 5.59521 3.53244 5.59521 3.87501V24.5417C5.59521 24.8842 5.7313 25.2128 5.97354 25.455C6.21577 25.6973 6.54431 25.8333 6.88688 25.8333H8.17855V27.125C8.17855 27.4676 8.31463 27.7961 8.55687 28.0384C8.7991 28.2806 9.12764 28.4167 9.47021 28.4167C9.81279 28.4167 10.1413 28.2806 10.3836 28.0384C10.6258 27.7961 10.7619 27.4676 10.7619 27.125V25.8333H22.3869C23.4146 25.8333 24.4002 25.4251 25.1269 24.6984C25.8536 23.9717 26.2619 22.9861 26.2619 21.9583V6.45834C26.2619 5.43063 25.8536 4.44501 25.1269 3.7183C24.4002 2.9916 23.4146 2.58334 22.3869 2.58334ZM18.5119 23.25H8.17855V5.16668H18.5119V23.25ZM23.6785 21.9583C23.6785 22.3009 23.5425 22.6295 23.3002 22.8717C23.058 23.1139 22.7295 23.25 22.3869 23.25H21.0952V5.16668H22.3869C22.7295 5.16668 23.058 5.30276 23.3002 5.545C23.5425 5.78723 23.6785 6.11577 23.6785 6.45834V21.9583Z" fill="#425461"/>
</svg>
