<svg width="26" height="26" viewBox="0 0 26 26" fill="none" xmlns="http://www.w3.org/2000/svg">
<path d="M25.4608 12.7913L14.3795 1.06437L13.6367 0.277915C13.4675 0.0999058 13.2386 0 13.0001 0C12.7615 0 12.5326 0.0999058 12.3634 0.277915L0.539273 12.7913C0.365858 12.9742 0.228805 13.192 0.136204 13.4319C0.0436032 13.6718 -0.0026689 13.9289 0.000118871 14.1881C0.0115902 15.2569 0.851868 16.1102 1.86135 16.1102H3.08018V26H22.9199V16.1102H24.1646C24.655 16.1102 25.1167 15.9067 25.4637 15.5393C25.6346 15.359 25.7699 15.1445 25.862 14.9084C25.9541 14.6723 26.001 14.4192 26 14.1638C26 13.6476 25.8078 13.1587 25.4608 12.7913ZM14.606 23.8137H11.3941V17.6193H14.606V23.8137ZM20.8551 13.9239V23.8137H16.4415V16.8905C16.4415 16.2195 15.9281 15.6759 15.2943 15.6759H10.7058C10.072 15.6759 9.55864 16.2195 9.55864 16.8905V23.8137H5.14503V13.9239H2.3919L13.0029 2.698L13.6654 3.39942L23.6111 13.9239H20.8551Z" fill="#425461"/>
</svg>
