<svg width="100" height="23" viewBox="0 0 100 23" fill="none" xmlns="http://www.w3.org/2000/svg">
<path d="M3.16214e-09 22.8841L0 14.9132L1.92287 14.9132C2.81034 14.9132 3.50553 15.1886 4.02323 15.7393C4.54092 16.29 4.80716 17.0581 4.82195 18.0291L4.82195 19.6957C4.82195 20.6957 4.55571 21.4783 4.03802 22.0435C3.52032 22.6087 2.79555 22.8841 1.84891 22.8841L3.16214e-09 22.8841ZM0.636025 15.5074L0.636025 22.3044L1.8637 22.3044C2.58847 22.3044 3.15054 22.087 3.54991 21.6522C3.94927 21.2175 4.15635 20.5798 4.17114 19.7682L4.17114 18.0871C4.17114 17.2755 3.97885 16.6378 3.57949 16.1885C3.19491 15.7393 2.63285 15.5074 1.89328 15.5074L0.636025 15.5074Z" fill="#34393D"/>
<path d="M14.7764 19.5653L12.8831 19.5653L12.8831 22.8841L12.2471 22.8841L12.2471 14.9132L14.4806 14.9132C15.2201 14.9132 15.797 15.1161 16.1963 15.5364C16.6105 15.9422 16.8176 16.5219 16.8176 17.261C16.8176 17.7827 16.6845 18.232 16.433 18.6233C16.1816 19.0146 15.8414 19.2755 15.4124 19.4349L17.0986 22.8261L17.0986 22.8986L16.4182 22.8986L14.7764 19.5653ZM12.8831 18.9856L14.5841 18.9856C15.0574 18.9856 15.442 18.8262 15.7378 18.5074C16.0188 18.1885 16.1668 17.7682 16.1668 17.261C16.1668 16.6958 16.0188 16.2755 15.723 15.9567C15.4272 15.6523 15.013 15.4929 14.4658 15.4929L12.8831 15.4929L12.8831 18.9856Z" fill="#34393D"/>
<path d="M27.9554 20.6522L24.9084 20.6522L24.2132 22.8841L23.5476 22.8841L26.1361 14.9132L26.7277 14.9132L29.3162 22.8841L28.6506 22.8841L27.9554 20.6522ZM25.0859 20.0725L27.7631 20.0725L26.4319 15.7973L25.0859 20.0725Z" fill="#34393D"/>
<path d="M41.1494 21.9565C40.8831 22.3043 40.5282 22.5652 40.114 22.7391C39.6998 22.913 39.2413 23 38.7532 23C37.9249 23 37.2593 22.7246 36.786 22.1739C36.3126 21.6232 36.0612 20.8696 36.0464 19.8986L36.0464 17.9566C36.0464 16.9421 36.2683 16.1595 36.7268 15.6233C37.1853 15.0726 37.8213 14.8117 38.6644 14.8117C39.4188 14.8117 39.9957 15.0146 40.4246 15.4204C40.8536 15.8262 41.0902 16.4059 41.1346 17.174L40.4986 17.174C40.4246 16.5653 40.2471 16.116 39.9513 15.8262C39.6555 15.5363 39.2265 15.4059 38.6644 15.4059C37.9988 15.4059 37.5107 15.6233 37.1705 16.0581C36.8451 16.4928 36.6824 17.116 36.6824 17.9566L36.6824 19.7971C36.6824 20.6232 36.8599 21.2754 37.2297 21.7391C37.5995 22.2029 38.1024 22.4348 38.7532 22.4348C39.4632 22.4348 40.04 22.2174 40.4986 21.7681L40.4986 19.6957L38.7236 19.6957L38.7236 19.116L41.1494 19.116L41.1494 21.9565Z" fill="#34393D"/>
<path d="M53.7514 19.7537C53.7514 20.7827 53.5148 21.5798 53.0562 22.145C52.5977 22.7102 51.9469 22.9855 51.1186 22.9855C50.2903 22.9855 49.6542 22.7102 49.1809 22.145C48.7224 21.5798 48.4857 20.7972 48.4709 19.7682L48.4709 18.0291C48.4709 17.0001 48.7076 16.203 49.1661 15.6378C49.6247 15.0726 50.2755 14.7828 51.1038 14.7828C51.9321 14.7828 52.5829 15.0726 53.0415 15.6378C53.5 16.203 53.7366 17.0146 53.7366 18.0436L53.7366 19.7537L53.7514 19.7537ZM53.1154 18.0291C53.1154 17.1595 52.9379 16.5074 52.5977 16.0581C52.2575 15.6233 51.7546 15.406 51.1186 15.406C50.4974 15.406 50.0092 15.6233 49.6543 16.0581C49.2993 16.4784 49.1218 17.1306 49.1218 17.9856L49.1218 19.7682C49.1218 20.6378 49.2993 21.3044 49.6543 21.7392C50.0092 22.174 50.4974 22.3913 51.1334 22.3913C51.7842 22.3913 52.2723 22.174 52.6125 21.7392C52.9527 21.3044 53.1154 20.6378 53.1154 19.7682L53.1154 18.0291Z" fill="#34393D"/>
<path d="M66.2944 22.8841L65.6584 22.8841L61.8274 16.0871L61.8274 22.8696L61.1914 22.8696L61.1914 14.8987L61.8274 14.8987L65.6732 21.6957L65.6732 14.9132L66.3092 14.9132L66.3092 22.8841L66.2944 22.8841Z" fill="#34393D"/>
<path d="M77.6395 19.3624L74.8883 19.3624L74.8883 20.1305L74.8883 22.8841L73.8677 22.8841L73.8677 20.1595L73.8677 14.9132L78.098 14.9132L78.098 15.7828L74.8883 15.7828L74.8883 18.5074L77.6395 18.5074L77.6395 19.3624Z" fill="#34393D"/>
<path d="M86.115 22.0145L89.3099 22.0145L89.3099 22.8696L85.0944 22.8696L85.0944 14.8987L86.1298 14.8987L86.1298 22.0145L86.115 22.0145Z" fill="#34393D"/>
<path d="M97.0311 18.9131L98.7025 14.9132L99.8562 14.9132L97.5488 19.9131L97.5488 22.8841L96.5281 22.8841L96.5281 19.9131L94.2207 14.9132L95.3892 14.9132L97.0311 18.9131Z" fill="#34393D"/>
<path d="M78.9885 7.0842C78.5926 6.6306 77.9979 6.22575 77.3141 5.94425C76.8305 5.74515 75.3695 5.25172 73.8569 4.82574C75.3694 4.39976 76.8304 3.90633 77.3141 3.70724C78.9091 3.05057 79.8136 1.84 79.4181 0.891304C79.1819 0.324809 78.5534 0 77.6937 0C77.1391 0 76.528 0.130858 75.9267 0.378403C75.2519 0.656188 73.572 1.50372 72.147 2.32266C72.0977 2.351 72.0511 2.3784 72.003 2.40626C71.896 1.32465 70.9757 0.476645 69.8598 0.476645C68.7437 0.476645 67.8233 1.32457 67.7163 2.40618C67.6682 2.37832 67.6216 2.35093 67.5723 2.32258C66.1472 1.50372 64.4674 0.656188 63.7926 0.378403C63.1913 0.130858 62.5802 0 62.0256 0C61.1659 0 60.5374 0.324809 60.3012 0.891225C59.9056 1.83992 60.8102 3.0505 62.4052 3.70724C62.8889 3.90633 64.3498 4.39976 65.8624 4.82566C64.3498 5.25164 62.8888 5.74507 62.4052 5.94417C61.7213 6.22567 61.1267 6.63052 60.7307 7.08413C60.2383 7.64825 60.0857 8.24348 60.3011 8.76018C60.5373 9.32644 61.1658 9.65125 62.0256 9.65133C62.0257 9.65133 62.0257 9.65133 62.0257 9.65133C62.5803 9.65133 63.1913 9.52047 63.7925 9.273C64.4674 8.99522 66.1472 8.14769 67.5723 7.32874C67.8438 7.17271 68.0946 7.02412 68.328 6.88186V11.4745C68.328 12.103 68.7137 12.6437 69.2623 12.8753V18.7138C69.2623 19.0417 69.5298 19.3076 69.8598 19.3076C70.1897 19.3076 70.4572 19.0417 70.4572 18.7138V12.8752C71.0053 12.6434 71.3906 12.1029 71.3906 11.4745V6.88155C71.6242 7.02388 71.8751 7.17255 72.1468 7.32874C73.572 8.14769 75.2518 8.99522 75.9266 9.273C76.5279 9.52047 77.1389 9.65133 77.6935 9.65133C78.5532 9.65133 79.1819 9.32652 79.418 8.7601C79.6335 8.24356 79.4809 7.64833 78.9885 7.0842ZM73.0983 3.14993C74.4218 2.40626 75.8343 1.7017 76.384 1.47545C76.8351 1.28974 77.3003 1.18746 77.6937 1.18746C78.1168 1.18746 78.2966 1.30351 78.3143 1.34578C78.3731 1.48693 77.9499 2.16014 76.8569 2.61019C76.0211 2.95415 73.12 3.87214 71.3463 4.22212C71.34 4.22101 71.3337 4.2199 71.3275 4.21879C71.7254 3.95296 72.2921 3.60298 73.0983 3.14993ZM69.8598 11.8085C69.6741 11.8085 69.523 11.6587 69.523 11.4745V6.09379C69.637 6.00964 69.7515 5.92224 69.8597 5.83152C69.9676 5.92208 70.0819 6.00932 70.1959 6.09339V11.4745C70.1958 11.6587 70.0451 11.8085 69.8598 11.8085ZM69.8598 1.6641C70.3885 1.6641 70.8186 2.09166 70.8186 2.61715C70.8186 3.14248 70.3885 3.56989 69.8598 3.56989C69.3309 3.56989 68.9006 3.14248 68.9006 2.61715C68.9006 2.09166 69.331 1.6641 69.8598 1.6641ZM62.8625 2.61019C61.7694 2.16014 61.3462 1.48693 61.405 1.34578C61.4226 1.30351 61.6025 1.18746 62.0256 1.18746C62.419 1.18746 62.8842 1.28974 63.3353 1.47545C63.885 1.7017 65.2975 2.40626 66.621 3.14993C67.4272 3.60298 67.9939 3.95288 68.3918 4.21871C68.3856 4.21982 68.3793 4.22093 68.3731 4.22204C66.5992 3.87198 63.6981 2.95407 62.8625 2.61019ZM66.621 6.50148C65.2976 7.24514 63.885 7.94962 63.3353 8.17595C62.8842 8.36167 62.4191 8.46395 62.0258 8.46395H62.0257C61.6026 8.46395 61.4228 8.3479 61.4051 8.3057C61.3914 8.27285 61.4201 8.10668 61.6334 7.86231C61.9062 7.54985 62.3542 7.25053 62.8625 7.0413C63.6981 6.69733 66.5991 5.77935 68.3731 5.42929C68.3793 5.4304 68.3856 5.4315 68.3919 5.43261C67.9939 5.69844 67.4272 6.04851 66.621 6.50148ZM78.3142 8.30554C78.2966 8.34782 78.1167 8.46387 77.6935 8.46387C77.3001 8.46387 76.835 8.36159 76.3839 8.17587C75.8342 7.94962 74.4216 7.24507 73.0982 6.5014C72.2921 6.04843 71.7254 5.69836 71.3274 5.43261C71.3337 5.4315 71.34 5.4304 71.3463 5.42921C73.1202 5.77927 76.0211 6.69725 76.8567 7.04122C77.365 7.25045 77.813 7.54969 78.0858 7.86223C78.2992 8.10668 78.3279 8.27277 78.3142 8.30554Z" fill="#425461"/>
</svg>
