<svg width="28" height="23" viewBox="0 0 28 23" fill="none" xmlns="http://www.w3.org/2000/svg">
<path d="M11.5 0C13.025 0 14.4875 0.605802 15.5659 1.68414C16.6442 2.76247 17.25 4.22501 17.25 5.75C17.25 7.27499 16.6442 8.73753 15.5659 9.81586C14.4875 10.8942 13.025 11.5 11.5 11.5C9.97501 11.5 8.51247 10.8942 7.43414 9.81586C6.3558 8.73753 5.75 7.27499 5.75 5.75C5.75 4.22501 6.3558 2.76247 7.43414 1.68414C8.51247 0.605802 9.97501 0 11.5 0ZM11.5 2.875C10.7375 2.875 10.0062 3.1779 9.46707 3.71707C8.9279 4.25624 8.625 4.9875 8.625 5.75C8.625 6.5125 8.9279 7.24376 9.46707 7.78293C10.0062 8.3221 10.7375 8.625 11.5 8.625C12.2625 8.625 12.9938 8.3221 13.5329 7.78293C14.0721 7.24376 14.375 6.5125 14.375 5.75C14.375 4.9875 14.0721 4.25624 13.5329 3.71707C12.9938 3.1779 12.2625 2.875 11.5 2.875ZM11.5 12.9375C13.0813 12.9375 15.3237 13.2681 17.4081 13.9294C16.5312 14.4756 15.8125 15.2375 15.2519 16.1431C14.0731 15.8556 12.7794 15.6687 11.5 15.6687C7.23063 15.6687 2.73125 17.7675 2.73125 18.6875V20.2688H14.4325C14.5619 21.275 14.9213 22.195 15.4675 23H0V18.6875C0 14.8637 7.66187 12.9375 11.5 12.9375ZM22.2812 8.625H27.3125V11.5H24.4375V19.4062C24.4375 20.3594 24.0589 21.2735 23.3849 21.9474C22.711 22.6214 21.7969 23 20.8438 23C19.8906 23 18.9765 22.6214 18.3026 21.9474C17.6286 21.2735 17.25 20.3594 17.25 19.4062C17.25 18.4531 17.6286 17.539 18.3026 16.8651C18.9765 16.1911 19.8906 15.8125 20.8438 15.8125C21.3612 15.8125 21.8356 15.9131 22.2812 16.1144V8.625Z" fill="#425461"/>
</svg>
