<svg width="24" height="24" viewBox="0 0 24 24" fill="none" xmlns="http://www.w3.org/2000/svg">
<g clip-path="url(#clip0)">
<path d="M22.1667 8.75L20.5625 8.45833C20.4167 8.16667 20.4167 7.875 20.2708 7.58333L21.1458 6.27083L21.875 5.25L18.0833 1.45833L17.0625 2.1875L15.75 3.0625C15.4583 2.91667 15.1667 2.91667 14.875 2.77083L14.5833 1.16667L14.2917 0H9.04167L8.75 1.16667L8.45833 2.77083C8.16667 2.91667 7.875 2.91667 7.58333 3.0625L6.27083 2.1875L5.25 1.60417L1.60417 5.25L2.33333 6.27083L3.20833 7.58333C2.91667 7.875 2.91667 8.16667 2.77083 8.45833L1.16667 8.75L0 9.04167V14.2917L1.16667 14.5833L2.77083 14.875C2.91667 15.1667 2.91667 15.4583 3.0625 15.75L2.1875 17.0625L1.45833 18.0833L5.25 21.875L6.27083 21.1458L7.58333 20.2708C7.875 20.4167 8.16667 20.4167 8.45833 20.5625L8.75 22.1667L9.04167 23.3333H14.2917L14.5833 22.1667L14.875 20.5625C15.1667 20.4167 15.4583 20.4167 15.75 20.2708L17.0625 21.1458L18.0833 21.875L21.875 18.0833L21.1458 17.0625L20.2708 15.75C20.4167 15.4583 20.5625 15.1667 20.5625 14.875L22.1667 14.5833L23.3333 14.2917V9.04167L22.1667 8.75ZM21.875 13.125L19.3958 13.5625C19.25 14.2917 18.9583 15.0208 18.5208 15.75L19.8333 17.7917L17.7917 19.8333L15.75 18.5208C15.0208 18.9583 14.2917 19.25 13.5625 19.3958L13.125 21.875H10.2083L9.77083 19.3958C9.04167 19.25 8.3125 18.9583 7.58333 18.5208L5.54167 19.8333L3.5 17.7917L4.8125 15.75C4.375 15.0208 4.08333 14.2917 3.9375 13.5625L1.45833 13.125V10.2083L3.9375 9.77083C4.08333 9.04167 4.375 8.3125 4.8125 7.58333L3.35417 5.54167L5.39583 3.5L7.4375 4.8125C8.16667 4.375 8.89583 4.08333 9.625 3.9375L10.2083 1.45833H13.125L13.5625 3.9375C14.2917 4.08333 15.0208 4.375 15.75 4.8125L17.7917 3.5L19.8333 5.54167L18.5208 7.58333C18.9583 8.3125 19.25 9.04167 19.3958 9.77083L21.875 10.2083V13.125Z" fill="#425461"/>
<path d="M11.6667 6.5625C8.89583 6.5625 6.5625 8.89583 6.5625 11.6667C6.5625 14.4375 8.89583 16.7708 11.6667 16.7708C14.4375 16.7708 16.7708 14.4375 16.7708 11.6667C16.7708 8.89583 14.4375 6.5625 11.6667 6.5625ZM11.6667 15.3125C9.625 15.3125 8.02083 13.7083 8.02083 11.6667C8.02083 9.625 9.625 8.02083 11.6667 8.02083C13.7083 8.02083 15.3125 9.625 15.3125 11.6667C15.3125 13.7083 13.7083 15.3125 11.6667 15.3125Z" fill="#425461"/>
</g>
<defs>
<clipPath id="clip0">
<rect width="23.3333" height="23.3333" fill="white"/>
</clipPath>
</defs>
</svg>
