<svg width="36" height="23" viewBox="0 0 36 23" fill="none" xmlns="http://www.w3.org/2000/svg">
<ellipse cx="12.0665" cy="11" rx="9.9723" ry="10" fill="white"/>
<path d="M12.0665 23C15.108 23 18.025 21.7884 20.1757 19.6317C22.3264 17.4751 23.5346 14.55 23.5346 11.5C23.5346 8.45001 22.3264 5.52494 20.1757 3.36827C18.025 1.2116 15.108 -1.76178e-09 12.0665 -1.39247e-09C9.02493 -1.02317e-09 6.10796 1.2116 3.95727 3.36827C1.80658 5.52494 0.598328 8.45001 0.598328 11.5C0.598328 14.55 1.80658 17.4751 3.95727 19.6317C6.10796 21.7884 9.02493 23 12.0665 23ZM12.0665 2.15625C14.5377 2.15625 16.9078 3.14068 18.6552 4.89297C20.4026 6.64526 21.3843 9.02188 21.3843 11.5C21.3843 13.9781 20.4026 16.3547 18.6552 18.107C16.9078 19.8593 14.5377 20.8437 12.0665 20.8437C9.59522 20.8437 7.22518 19.8593 5.47775 18.107C3.73031 16.3547 2.7486 13.9781 2.7486 11.5C2.7486 9.02188 3.73031 6.64526 5.47775 4.89297C7.22518 3.14068 9.59522 2.15625 12.0665 2.15625Z" fill="#425461"/>
<path d="M14.9335 15.0937C14.9335 17.0789 13.6505 18.6875 12.0665 18.6875C10.4825 18.6875 9.19946 17.0789 9.19946 15.0938C9.19946 13.1086 10.4825 11.5 12.0665 11.5C13.6505 11.5 14.9335 13.1086 14.9335 15.0937Z" fill="#425461"/>
<path d="M9.91622 7.63742C9.72606 7.63745 9.54361 7.56199 9.40875 7.42755C8.97583 6.99342 7.98814 6.99342 7.55522 7.42755C7.42003 7.55847 7.23898 7.63092 7.05105 7.62928C6.86311 7.62764 6.68334 7.55205 6.55045 7.41879C6.41756 7.28553 6.34218 7.10526 6.34054 6.9168C6.33891 6.72835 6.41115 6.54679 6.54172 6.41123C7.53945 5.41073 9.42452 5.41073 10.4223 6.41123C10.5223 6.51183 10.5903 6.63989 10.6178 6.77924C10.6453 6.91859 10.6309 7.06298 10.5766 7.19417C10.5224 7.32537 10.4305 7.43749 10.3127 7.51638C10.1949 7.59527 10.0564 7.63739 9.91479 7.63742L9.91622 7.63742Z" fill="#425461"/>
<path d="M17.0838 7.63742C16.8937 7.63745 16.7112 7.56199 16.5764 7.42755C16.1434 6.99342 15.1557 6.99342 14.7228 7.42755C14.5876 7.55847 14.4066 7.63092 14.2186 7.62928C14.0307 7.62764 13.8509 7.55205 13.7181 7.41879C13.5852 7.28553 13.5098 7.10526 13.5081 6.9168C13.5065 6.72835 13.5788 6.54679 13.7093 6.41123C14.707 5.41073 16.5921 5.41073 17.5899 6.41123C17.6899 6.51183 17.7579 6.63989 17.7854 6.77924C17.8129 6.91859 17.7985 7.06298 17.7443 7.19417C17.69 7.32537 17.5981 7.43749 17.4803 7.51638C17.3625 7.59527 17.224 7.63739 17.0824 7.63742L17.0838 7.63742Z" fill="#425461"/>
<path d="M36 4.5L32.7364 4.5L32.7364 3.375L34.5803 1.125L32.7364 1.125L32.7364 -1.05674e-09L36 -1.45302e-09L36 1.125L34.1615 3.375L36 3.375L36 4.5ZM31.6485 6.75L28.3848 6.75L28.3848 5.625L30.2288 3.375L28.3848 3.375L28.3848 2.25L31.6485 2.25L31.6485 3.375L29.8099 5.625L31.6485 5.625L31.6485 6.75ZM27.2969 9L24.0333 9L24.0333 7.875L25.8772 5.625L24.0333 5.625L24.0333 4.5L27.2969 4.5L27.2969 5.625L25.4584 7.875L27.2969 7.875L27.2969 9Z" fill="#425461"/>
</svg>
