<svg width="35" height="34" viewBox="0 0 35 34" fill="none" xmlns="http://www.w3.org/2000/svg">
<path d="M14.1784 17C16.9126 17 19.1367 14.7758 19.1367 12.0417C19.1367 9.30751 16.9126 7.08334 14.1784 7.08334C11.4442 7.08334 9.22005 9.30751 9.22005 12.0417C9.22005 14.7758 11.4442 17 14.1784 17ZM14.1784 9.91668C15.3542 9.91668 16.3034 10.8658 16.3034 12.0417C16.3034 13.2175 15.3542 14.1667 14.1784 14.1667C13.0026 14.1667 12.0534 13.2175 12.0534 12.0417C12.0534 10.8658 13.0026 9.91668 14.1784 9.91668ZM14.1784 19.4792C10.8634 19.4792 4.26172 21.1367 4.26172 24.4375V25.5C4.26172 26.2792 4.89922 26.9167 5.67839 26.9167H22.6784C23.4576 26.9167 24.0951 26.2792 24.0951 25.5V24.4375C24.0951 21.1367 17.4934 19.4792 14.1784 19.4792ZM7.57672 24.0833C8.76672 23.2617 11.6426 22.3125 14.1784 22.3125C16.7142 22.3125 19.5901 23.2617 20.7801 24.0833H7.57672ZM24.1517 19.5642C25.7951 20.7542 26.9284 22.3408 26.9284 24.4375V26.9167H31.1784C31.9576 26.9167 32.5951 26.2792 32.5951 25.5V24.4375C32.5951 21.5758 27.6367 19.9467 24.1517 19.5642ZM22.6784 17C25.4126 17 27.6367 14.7758 27.6367 12.0417C27.6367 9.30751 25.4126 7.08334 22.6784 7.08334C21.9134 7.08334 21.2051 7.26751 20.5534 7.57918C21.4459 8.84001 21.9701 10.3842 21.9701 12.0417C21.9701 13.6992 21.4459 15.2433 20.5534 16.5042C21.2051 16.8158 21.9134 17 22.6784 17Z" fill="#425461"/>
</svg>
