<svg width="23" height="26" viewBox="0 0 23 26" fill="none" xmlns="http://www.w3.org/2000/svg">
<path d="M16.1 15.4374C14.6266 15.4374 13.9181 16.2499 11.5 16.2499C9.08193 16.2499 8.37857 15.4374 6.9 15.4374C3.09063 15.4374 0 18.4945 0 22.2624V23.5624C0 24.9081 1.10379 25.9999 2.46429 25.9999H20.5357C21.8962 25.9999 23 24.9081 23 23.5624V22.2624C23 18.4945 19.9095 15.4374 16.1 15.4374ZM20.5357 23.5624H2.46429V22.2624C2.46429 19.8453 4.45625 17.8749 6.9 17.8749C7.64955 17.8749 8.8663 18.6874 11.5 18.6874C14.1543 18.6874 15.3453 17.8749 16.1 17.8749C18.5438 17.8749 20.5357 19.8453 20.5357 22.2624V23.5624ZM11.5 14.6249C15.5815 14.6249 18.8929 11.3496 18.8929 7.31244C18.8929 3.27533 15.5815 -6.10352e-05 11.5 -6.10352e-05C7.41852 -6.10352e-05 4.10714 3.27533 4.10714 7.31244C4.10714 11.3496 7.41852 14.6249 11.5 14.6249ZM11.5 2.43744C14.2159 2.43744 16.4286 4.62611 16.4286 7.31244C16.4286 9.99876 14.2159 12.1874 11.5 12.1874C8.78414 12.1874 6.57143 9.99876 6.57143 7.31244C6.57143 4.62611 8.78414 2.43744 11.5 2.43744Z" fill="#425461"/>
</svg>
