<svg width="168" height="125" viewBox="0 0 168 125" fill="none" xmlns="http://www.w3.org/2000/svg">
<path d="M0.128723 124.805L0.128723 111.415L3.35883 111.415C4.84965 111.415 6.01746 111.878 6.88711 112.803C7.75675 113.728 8.204 115.019 8.22885 116.65L8.22885 119.449C8.22885 121.129 7.7816 122.444 6.91196 123.393C6.04231 124.343 4.82481 124.805 3.2346 124.805L0.128723 124.805ZM1.19714 112.414L1.19714 123.831L3.25945 123.831C4.47695 123.831 5.42114 123.466 6.092 122.736C6.76287 122.006 7.11073 120.934 7.13558 119.571L7.13558 116.747C7.13558 115.384 6.81257 114.313 6.1417 113.558C5.49568 112.803 4.55149 112.414 3.30914 112.414L1.19714 112.414Z" fill="#34393D"/>
<path d="M24.9507 119.23L21.7703 119.23L21.7703 124.805L20.7019 124.805L20.7019 111.415L24.4538 111.415C25.6962 111.415 26.6652 111.756 27.3361 112.462C28.0318 113.144 28.3796 114.118 28.3796 115.359C28.3796 116.236 28.156 116.99 27.7336 117.648C27.3112 118.305 26.7397 118.743 26.0192 119.011L28.8517 124.708L28.8517 124.83L27.7088 124.83L24.9507 119.23ZM21.7703 118.256L24.6277 118.256C25.4228 118.256 26.0689 117.989 26.5658 117.453C27.0379 116.917 27.2864 116.211 27.2864 115.359C27.2864 114.41 27.0379 113.704 26.541 113.168C26.044 112.657 25.3483 112.389 24.429 112.389L21.7703 112.389L21.7703 118.256Z" fill="#34393D"/>
<path d="M47.0895 121.056L41.971 121.056L40.8032 124.805L39.6851 124.805L44.0333 111.415L45.0272 111.415L49.3755 124.805L48.2573 124.805L47.0895 121.056ZM42.2692 120.082L46.7665 120.082L44.5303 112.9L42.2692 120.082Z" fill="#34393D"/>
<path d="M69.2533 123.247C68.8061 123.831 68.2098 124.27 67.514 124.562C66.8183 124.854 66.0481 125 65.2281 125C63.8367 125 62.7186 124.537 61.9234 123.612C61.1283 122.687 60.7059 121.421 60.6811 119.79L60.6811 116.528C60.6811 114.824 61.0538 113.509 61.8241 112.608C62.5943 111.683 63.6627 111.245 65.079 111.245C66.3462 111.245 67.3153 111.586 68.0358 112.267C68.7564 112.949 69.1539 113.923 69.2285 115.213L68.1601 115.213C68.0358 114.191 67.7377 113.436 67.2407 112.949C66.7438 112.462 66.0232 112.243 65.079 112.243C63.9609 112.243 63.141 112.608 62.5695 113.339C62.0228 114.069 61.7495 115.116 61.7495 116.528L61.7495 119.62C61.7495 121.007 62.0477 122.103 62.6689 122.882C63.29 123.661 64.1348 124.051 65.2281 124.051C66.4208 124.051 67.3898 123.685 68.1601 122.931L68.1601 119.449L65.1784 119.449L65.1784 118.475L69.2533 118.475L69.2533 123.247Z" fill="#34393D"/>
<path d="M90.4226 119.547C90.4226 121.275 90.0251 122.614 89.2548 123.564C88.4846 124.513 87.3913 124.976 85.9999 124.976C84.6084 124.976 83.54 124.513 82.7449 123.564C81.9746 122.614 81.5771 121.3 81.5522 119.571L81.5522 116.65C81.5522 114.921 81.9498 113.582 82.7201 112.633C83.4903 111.683 84.5836 111.196 85.975 111.196C87.3665 111.196 88.4597 111.683 89.23 112.633C90.0002 113.582 90.3978 114.946 90.3978 116.674L90.3978 119.547L90.4226 119.547ZM89.3542 116.65C89.3542 115.189 89.0561 114.093 88.4846 113.339C87.9131 112.608 87.0683 112.243 85.9999 112.243C84.9563 112.243 84.1363 112.608 83.54 113.339C82.9437 114.045 82.6455 115.14 82.6455 116.577L82.6455 119.571C82.6455 121.032 82.9437 122.152 83.54 122.882C84.1363 123.612 84.9563 123.978 86.0247 123.978C87.118 123.978 87.9379 123.612 88.5094 122.882C89.0809 122.152 89.3542 121.032 89.3542 119.571L89.3542 116.65Z" fill="#34393D"/>
<path d="M111.493 124.805L110.425 124.805L103.989 113.387L103.989 124.781L102.921 124.781L102.921 111.391L103.989 111.391L110.449 122.809L110.449 111.415L111.518 111.415L111.518 124.805L111.493 124.805Z" fill="#34393D"/>
<path d="M130.551 118.889L125.929 118.889L125.929 120.18L125.929 124.805L124.215 124.805L124.215 120.228L124.215 111.415L131.321 111.415L131.321 112.876L125.929 112.876L125.929 117.453L130.551 117.453L130.551 118.889Z" fill="#34393D"/>
<path d="M144.788 123.345L150.155 123.345L150.155 124.781L143.074 124.781L143.074 111.391L144.813 111.391L144.813 123.345L144.788 123.345Z" fill="#34393D"/>
<path d="M163.125 118.135L165.933 111.415L167.871 111.415L163.995 119.815L163.995 124.805L162.281 124.805L162.281 119.815L158.405 111.415L160.367 111.415L163.125 118.135Z" fill="#34393D"/>
<path d="M130.53 35.6663C128.537 33.3826 125.543 31.3444 122.1 29.9271C119.665 28.9247 112.31 26.4405 104.694 24.2958C112.309 22.1512 119.665 19.6669 122.1 18.6646C130.13 15.3585 134.684 9.26373 132.693 4.48739C131.504 1.63529 128.339 0 124.011 0C121.219 0 118.142 0.65882 115.115 1.90512C111.718 3.30366 103.26 7.57065 96.0853 11.6938C95.8371 11.8364 95.6025 11.9743 95.3602 12.1146C94.8216 6.6691 90.1885 2.39973 84.5704 2.39973C78.9511 2.39973 74.3172 6.66871 73.7786 12.1142C73.5364 11.9739 73.3017 11.836 73.0535 11.6934C65.8789 7.57065 57.4212 3.30366 54.0242 1.90512C50.9966 0.65882 47.92 0 45.1278 0C40.7996 0 37.6352 1.63529 36.446 4.48699C34.4547 9.26333 39.0088 15.3581 47.0389 18.6646C49.4742 19.6669 56.8293 22.1512 64.4446 24.2954C56.8293 26.4401 49.4738 28.9243 47.0389 29.9267C43.5958 31.344 40.6022 33.3822 38.6085 35.6659C36.1296 38.5061 35.3611 41.5028 36.4456 44.1042C37.6348 46.9551 40.7992 48.5904 45.1278 48.5908C45.1282 48.5908 45.1282 48.5908 45.1286 48.5908C47.9204 48.5908 50.9966 47.932 54.0238 46.6861C57.4212 45.2876 65.8789 41.0206 73.0535 36.8975C74.4203 36.1119 75.6832 35.3638 76.858 34.6476V57.7701C76.858 60.9342 78.7999 63.6564 81.562 64.8226V94.2172C81.562 95.868 82.9088 97.2064 84.57 97.2064C86.2312 97.2064 87.578 95.868 87.578 94.2172V64.8218C90.3373 63.6548 92.2772 60.9334 92.2772 57.7701V34.646C93.4532 35.3626 94.7165 36.1111 96.0845 36.8975C103.26 41.0206 111.717 45.2876 115.114 46.6861C118.141 47.932 121.218 48.5908 124.01 48.5908C128.338 48.5908 131.503 46.9555 132.692 44.1039C133.777 41.5032 133.009 38.5065 130.53 35.6663ZM100.875 15.8587C107.538 12.1146 114.649 8.56745 117.417 7.42836C119.688 6.49334 122.03 5.9784 124.011 5.9784C126.141 5.9784 127.046 6.56269 127.135 6.77552C127.431 7.48615 125.301 10.8755 119.798 13.1413C115.59 14.8731 100.984 19.4948 92.0543 21.2568C92.0226 21.2512 91.9909 21.2456 91.9596 21.2401C93.9629 19.9017 96.8157 18.1397 100.875 15.8587ZM84.5704 59.4516C83.6351 59.4516 82.8743 58.6971 82.8743 57.7701V30.68C83.4486 30.2563 84.025 29.8163 84.5696 29.3595C85.113 29.8155 85.6886 30.2547 86.2621 30.678V57.7701C86.2617 58.6971 85.5029 59.4516 84.5704 59.4516ZM84.5704 8.37813C87.2319 8.37813 89.3972 10.5308 89.3972 13.1764C89.3972 15.8212 87.2319 17.9731 84.5704 17.9731C81.9073 17.9731 79.7412 15.8212 79.7412 13.1764C79.7412 10.5308 81.9077 8.37813 84.5704 8.37813ZM49.3414 13.1413C43.838 10.8755 41.7076 7.48615 42.0036 6.77552C42.0922 6.56269 42.9978 5.9784 45.1278 5.9784C47.1087 5.9784 49.4505 6.49334 51.7217 7.42836C54.4895 8.56745 61.6007 12.1146 68.264 15.8587C72.3227 18.1397 75.1759 19.9013 77.1792 21.2397C77.1479 21.2452 77.1162 21.2508 77.085 21.2564C68.1545 19.494 53.5482 14.8727 49.3414 13.1413ZM68.264 32.7325C61.6011 36.4766 54.4895 40.0234 51.7217 41.1629C49.4505 42.0979 47.1091 42.6128 45.129 42.6128H45.1286C42.9982 42.6128 42.093 42.0285 42.004 41.8161C41.935 41.6507 42.0794 40.8141 43.1534 39.5838C44.5266 38.0107 46.7822 36.5037 49.3414 35.4503C53.5482 33.7186 68.1537 29.0969 77.085 27.3344C77.1166 27.34 77.1483 27.3456 77.1796 27.3512C75.1759 28.6895 72.3227 30.452 68.264 32.7325ZM127.135 41.8153C127.046 42.0282 126.141 42.6124 124.01 42.6124C122.029 42.6124 119.688 42.0975 117.417 41.1625C114.649 40.0234 107.537 36.4762 100.874 32.7321C96.8161 30.4516 93.9629 28.6891 91.9592 27.3512C91.9909 27.3456 92.0226 27.34 92.0543 27.334C100.985 29.0965 115.59 33.7182 119.797 35.4499C122.356 36.5033 124.612 38.0099 125.985 39.5834C127.059 40.8141 127.204 41.6503 127.135 41.8153Z" fill="#425461"/>
</svg>
