<svg width="264" height="244" viewBox="0 0 264 244" fill="none" xmlns="http://www.w3.org/2000/svg">
<mask id="mask0" mask-type="alpha" maskUnits="userSpaceOnUse" x="0" y="0" width="264" height="244">
<rect width="264" height="244" fill="#C4C4C4"/>
</mask>
<g mask="url(#mask0)">
<mask id="path-2-outside-1" maskUnits="userSpaceOnUse" x="42" y="57" width="180" height="60" fill="black">
<rect fill="white" x="42" y="57" width="180" height="60"/>
<path d="M217.115 113.563C220.562 111.528 221.728 107.068 219.462 103.768C210.425 90.6119 198.502 79.6503 184.566 71.7427C168.524 62.6401 150.376 57.9022 131.932 58.0015C113.488 58.1009 95.3917 63.034 79.4489 72.3088C65.5989 80.3662 53.7942 91.4556 44.9001 104.708C42.6692 108.032 43.8829 112.48 47.3523 114.477V114.477C50.8216 116.475 55.2299 115.262 57.4971 111.963C65.1018 100.895 75.0802 91.6222 86.7388 84.8397C100.491 76.8394 116.1 72.5841 132.01 72.4985C147.92 72.4128 163.574 76.4996 177.411 84.3514C189.142 91.0079 199.22 100.173 206.943 111.158C209.246 114.433 213.667 115.598 217.115 113.563V113.563Z"/>
</mask>
<path d="M217.115 113.563C220.562 111.528 221.728 107.068 219.462 103.768C210.425 90.6119 198.502 79.6503 184.566 71.7427C168.524 62.6401 150.376 57.9022 131.932 58.0015C113.488 58.1009 95.3917 63.034 79.4489 72.3088C65.5989 80.3662 53.7942 91.4556 44.9001 104.708C42.6692 108.032 43.8829 112.48 47.3523 114.477V114.477C50.8216 116.475 55.2299 115.262 57.4971 111.963C65.1018 100.895 75.0802 91.6222 86.7388 84.8397C100.491 76.8394 116.1 72.5841 132.01 72.4985C147.92 72.4128 163.574 76.4996 177.411 84.3514C189.142 91.0079 199.22 100.173 206.943 111.158C209.246 114.433 213.667 115.598 217.115 113.563V113.563Z" fill="url(#paint0_linear)"/>
<path d="M217.115 113.563C220.562 111.528 221.728 107.068 219.462 103.768C210.425 90.6119 198.502 79.6503 184.566 71.7427C168.524 62.6401 150.376 57.9022 131.932 58.0015C113.488 58.1009 95.3917 63.034 79.4489 72.3088C65.5989 80.3662 53.7942 91.4556 44.9001 104.708C42.6692 108.032 43.8829 112.48 47.3523 114.477V114.477C50.8216 116.475 55.2299 115.262 57.4971 111.963C65.1018 100.895 75.0802 91.6222 86.7388 84.8397C100.491 76.8394 116.1 72.5841 132.01 72.4985C147.92 72.4128 163.574 76.4996 177.411 84.3514C189.142 91.0079 199.22 100.173 206.943 111.158C209.246 114.433 213.667 115.598 217.115 113.563V113.563Z" stroke="white" stroke-width="2" mask="url(#path-2-outside-1)"/>
<g filter="url(#filter0_d)">
<path d="M131.337 45L120.583 104.151H142.581L131.337 45Z" fill="white"/>
</g>
<mask id="mask1" mask-type="alpha" maskUnits="userSpaceOnUse" x="120" y="45" width="23" height="60">
<path d="M131.337 45L120.583 104.151H142.581L131.337 45Z" fill="white"/>
</mask>
<g mask="url(#mask1)">
<rect opacity="0.31" x="131.337" y="44.5112" width="12.7102" height="58.6624" fill="#34393D"/>
</g>
<g opacity="0.18" filter="url(#filter1_f)">
<circle cx="133.5" cy="155.5" r="67.5" fill="#34393D"/>
</g>
<ellipse cx="133" cy="168" rx="75" ry="75" fill="url(#paint1_linear)"/>
<path opacity="0.5" d="M73.0001 168C73.0001 202.242 100.535 230 134.5 230C168.466 230 196 202.242 196 168C196 133.758 168.466 106 134.5 106C100.535 106 73.0001 133.758 73.0001 168ZM188.05 168C188.05 197.815 164.075 221.985 134.5 221.985C104.925 221.985 80.9501 197.815 80.9501 168C80.9501 138.185 104.925 114.015 134.5 114.015C164.075 114.015 188.05 138.185 188.05 168Z" fill="#F2F2F2"/>
<path opacity="0.2" d="M134.5 110.007C134.5 107.794 136.296 105.986 138.505 106.132C150.17 106.899 161.407 111.005 170.877 118.009C181.427 125.811 189.233 136.802 193.162 149.383C197.091 161.965 196.937 175.482 192.723 187.97C188.941 199.176 182.065 209.03 172.943 216.394C171.216 217.788 168.699 217.334 167.435 215.51V215.51C166.184 213.706 166.634 211.242 168.33 209.848C176.096 203.468 181.953 195 185.196 185.388C188.866 174.515 189 162.745 185.579 151.79C182.158 140.834 175.361 131.265 166.175 124.471C158.069 118.476 148.476 114.919 138.504 114.166C136.297 113.999 134.5 112.22 134.5 110.007V110.007Z" fill="#34393D"/>
<rect x="-6" y="76.8531" width="39.542" height="37.9443" rx="18.9722" transform="rotate(-51.5511 -6 76.8531)" fill="#F26364"/>
<circle cx="13.995" cy="77.6842" r="1.79736" transform="rotate(-51.5511 13.995 77.6842)" fill="#34393D"/>
<circle cx="24.178" cy="64.8592" r="1.79736" transform="rotate(-51.5511 24.178 64.8592)" fill="#34393D"/>
<path d="M29.7454 73.3374C27.6011 75.6688 25.3554 78.7001 24.0111 80.5882C23.5166 81.2828 22.5165 81.0745 22.4912 80.2222C22.4465 78.7153 22.7053 76.6706 24.0595 74.9649C25.7795 72.7987 27.8039 72.0971 29.2805 72.0141C30.0156 71.9728 30.2438 72.7955 29.7454 73.3374Z" fill="#34393D"/>
<rect x="249.876" y="46.8631" width="39.542" height="37.9443" rx="18.9722" transform="rotate(58.778 249.876 46.8631)" fill="#9EBF33"/>
<circle cx="242.149" cy="65.3248" r="1.79736" transform="rotate(58.778 242.149 65.3248)" fill="#34393D"/>
<circle cx="250.64" cy="79.3285" r="1.79736" transform="rotate(58.778 250.64 79.3285)" fill="#34393D"/>
<path d="M237.145 70.2927C238.493 75.4946 241.856 79.2817 243.798 81.1191C244.384 81.6739 244.177 82.6579 243.376 82.7572C241.06 83.0443 237.129 82.8527 234.784 78.9836C232.302 74.8892 233.852 71.746 235.418 69.8064C235.932 69.1697 236.94 69.5006 237.145 70.2927Z" fill="#34393D"/>
<rect x="42.7966" y="29.9644" width="39.542" height="37.9443" rx="18.9722" transform="rotate(-28.9913 42.7966 29.9644)" fill="#FDAB24"/>
<circle cx="60.9438" cy="38.4031" r="1.79736" transform="rotate(-28.9913 60.9438 38.4031)" fill="#34393D"/>
<circle cx="75.2674" cy="30.4658" r="1.79736" transform="rotate(-28.9913 75.2674 30.4658)" fill="#34393D"/>
<path fill-rule="evenodd" clip-rule="evenodd" d="M76.7609 42.1563C73.9273 41.3433 70.5267 43.2276 69.7137 46.0613C69.592 46.4853 69.1496 46.7305 68.7255 46.6088C68.3014 46.4871 68.0563 46.0447 68.178 45.6207C69.2343 41.9389 73.5197 39.5643 77.2015 40.6206C77.6256 40.7423 77.8707 41.1847 77.7491 41.6088C77.6274 42.0328 77.185 42.278 76.7609 42.1563Z" fill="#34393D"/>
<rect x="186.656" y="8.86617" width="39.542" height="37.9443" rx="18.9722" transform="rotate(33.4884 186.656 8.86617)" fill="#D8C615"/>
<circle cx="187.558" cy="28.8585" r="1.79736" transform="rotate(33.4884 187.558 28.8585)" fill="#34393D"/>
<circle cx="201.215" cy="37.8941" r="1.79736" transform="rotate(33.4884 201.215 37.8941)" fill="#34393D"/>
<path fill-rule="evenodd" clip-rule="evenodd" d="M186.434 37.7342C187.022 40.6228 190.265 42.768 193.153 42.1797C193.586 42.0916 194.007 42.3707 194.096 42.803C194.184 43.2353 193.905 43.6571 193.472 43.7452C189.719 44.5096 185.633 41.8063 184.868 38.053C184.78 37.6207 185.06 37.1989 185.492 37.1108C185.924 37.0228 186.346 37.3019 186.434 37.7342Z" fill="#34393D"/>
<rect x="111.079" y="2" width="39.542" height="37.9443" rx="18.9722" fill="#FFCA00"/>
<circle cx="122.862" cy="18.1763" r="1.79736" fill="#34393D"/>
<circle cx="139.238" cy="18.1762" r="1.79736" fill="#34393D"/>
<path fill-rule="evenodd" clip-rule="evenodd" d="M138.79 25.2909C138.941 25.7052 138.728 26.164 138.314 26.3157L124.135 31.5081C123.721 31.6598 123.262 31.447 123.11 31.0327C122.958 30.6184 123.171 30.1596 123.586 30.0079L137.765 24.8155C138.179 24.6638 138.638 24.8766 138.79 25.2909Z" fill="#34393D"/>
</g>
<defs>
<filter id="filter0_d" x="110.583" y="37" width="41.9984" height="79.1513" filterUnits="userSpaceOnUse" color-interpolation-filters="sRGB">
<feFlood flood-opacity="0" result="BackgroundImageFix"/>
<feColorMatrix in="SourceAlpha" type="matrix" values="0 0 0 0 0 0 0 0 0 0 0 0 0 0 0 0 0 0 127 0"/>
<feOffset dy="2"/>
<feGaussianBlur stdDeviation="5"/>
<feColorMatrix type="matrix" values="0 0 0 0 0.286275 0 0 0 0 0.372549 0 0 0 0 0.501961 0 0 0 0.3 0"/>
<feBlend mode="normal" in2="BackgroundImageFix" result="effect1_dropShadow"/>
<feBlend mode="normal" in="SourceGraphic" in2="effect1_dropShadow" result="shape"/>
</filter>
<filter id="filter1_f" x="50" y="72" width="167" height="167" filterUnits="userSpaceOnUse" color-interpolation-filters="sRGB">
<feFlood flood-opacity="0" result="BackgroundImageFix"/>
<feBlend mode="normal" in="SourceGraphic" in2="BackgroundImageFix" result="shape"/>
<feGaussianBlur stdDeviation="8" result="effect1_foregroundBlur"/>
</filter>
<linearGradient id="paint0_linear" x1="40.4461" y1="163.5" x2="225.588" y2="163.5" gradientUnits="userSpaceOnUse">
<stop offset="0.00869801" stop-color="#F26364"/>
<stop offset="0.968066" stop-color="#9EBF33"/>
</linearGradient>
<linearGradient id="paint1_linear" x1="133" y1="93" x2="133" y2="243" gradientUnits="userSpaceOnUse">
<stop stop-color="#F7FAFC"/>
<stop offset="1" stop-color="white"/>
</linearGradient>
</defs>
</svg>
