<svg width="273" height="126" viewBox="0 0 273 126" fill="none" xmlns="http://www.w3.org/2000/svg">
<g clip-path="url(#clip0)">
<path d="M106.472 24.2134C106.472 24.2134 107.464 30.1742 105.852 31.7364C102.835 34.7374 93.6178 36.1351 98.495 48.9201H140.943C140.943 48.9201 143.051 43.8225 138.298 40.8627C138.298 40.8627 136.645 39.7116 137.678 36.2584C138.67 32.8052 136.149 30.3387 133.09 26.68L127.014 16.8548L106.472 24.2134Z" fill="#FF6EAE"/>
<path d="M120.897 37.1217C128.909 37.1217 135.405 30.9559 135.405 23.3501C135.405 15.7442 128.909 9.57846 120.897 9.57846C112.885 9.57846 106.389 15.7442 106.389 23.3501C106.389 30.9559 112.885 37.1217 120.897 37.1217Z" fill="#FF6EAE"/>
<path d="M135.762 31.7325C137.568 30.7116 138.2 28.4279 137.174 26.6317C136.147 24.8354 133.851 24.2069 132.045 25.2277C130.239 26.2486 129.607 28.5323 130.633 30.3285C131.66 32.1247 133.956 32.7533 135.762 31.7325Z" fill="#FF9B5B"/>
<path d="M125.94 37.1628L125.568 53.7299L113.54 53.031L115.979 28.6943L125.94 37.1628Z" fill="#FFB076"/>
<path d="M125.774 42.2192C125.774 42.2192 120.401 41.6848 120.153 35.6006L125.857 38.6016L125.774 42.2192Z" fill="#311326"/>
<path d="M132.966 15.2105C133.917 15.9915 134.495 17.1426 134.743 18.3348C135.446 21.9113 136.851 28.201 135.611 31.983C133.958 36.9162 129.949 40.4105 123.418 39.1772C123.418 39.1772 115.607 38.3961 114.036 28.571C111.473 12.9083 124.865 8.38631 132.966 15.2105Z" fill="#FFB076"/>
<path d="M133.379 25.8988C133.503 26.351 133.958 26.6388 134.413 26.5155C134.867 26.3922 135.157 25.94 135.033 25.4878C134.909 25.0355 134.454 24.7478 133.999 24.8711C133.545 24.9533 133.255 25.4466 133.379 25.8988Z" fill="#311326"/>
<path d="M126.146 26.0222C126.27 26.4744 126.725 26.7622 127.18 26.6388C127.634 26.5155 127.924 26.0633 127.8 25.6111C127.676 25.1589 127.221 24.8711 126.766 24.9945C126.27 25.1178 126.022 25.57 126.146 26.0222Z" fill="#311326"/>
<path d="M131.726 27.9543L132.305 29.5576C132.346 29.7631 132.222 29.9687 132.015 30.0098L131.106 30.1742" stroke="#311326" stroke-width="0.8934" stroke-miterlimit="10" stroke-linecap="round" stroke-linejoin="round"/>
<path d="M125.485 19.198C125.485 19.198 128.13 18.7458 128.296 19.938C128.296 19.938 128.378 20.7602 126.064 21.1302C123.749 21.5002 122.798 21.4179 122.509 20.678C122.22 19.8969 124.245 19.2803 125.485 19.198Z" fill="#311326"/>
<path d="M135.198 19.2391C135.198 19.2391 132.883 18.7458 132.553 19.8969C132.553 19.8969 132.346 20.678 134.371 21.0891C135.859 21.3768 136.397 21.1302 136.562 20.5958C136.727 19.938 136.066 19.3214 135.198 19.2391Z" fill="#311326"/>
<path d="M133.007 31.4897L126.436 31.5719C126.436 31.5719 126.56 34.4085 129.618 34.4085C132.635 34.4085 133.007 31.4897 133.007 31.4897Z" fill="#20120C"/>
<path d="M133.462 32.3941H125.981V31.1197L133.462 30.832V32.3941Z" fill="white"/>
<path opacity="0.11" d="M130.073 25.6522C130.032 28.201 127.965 30.2565 125.444 30.2154C122.922 30.1742 120.897 28.0777 120.938 25.5289C120.98 22.9801 123.046 20.9246 125.568 20.9658C128.089 21.0069 130.114 23.1034 130.073 25.6522Z" fill="white"/>
<path opacity="0.11" d="M140.245 25.7585C140.274 23.3067 138.557 21.2992 136.412 21.2746C134.266 21.2499 132.504 23.2175 132.475 25.6693C132.447 28.1211 134.163 30.1286 136.309 30.1533C138.454 30.1779 140.217 28.2103 140.245 25.7585Z" fill="white"/>
<path d="M130.073 25.6522C130.032 28.201 127.965 30.2565 125.444 30.2154C122.922 30.1742 120.897 28.0777 120.938 25.5289C120.98 22.9801 123.046 20.9246 125.568 20.9658C128.089 21.0069 130.114 23.1034 130.073 25.6522Z" stroke="white" stroke-width="1.2607" stroke-miterlimit="10" stroke-linecap="round" stroke-linejoin="round"/>
<path d="M140.245 25.7585C140.274 23.3067 138.557 21.2992 136.412 21.2746C134.266 21.2499 132.504 23.2175 132.475 25.6693C132.447 28.1211 134.163 30.1286 136.309 30.1533C138.454 30.1779 140.217 28.2103 140.245 25.7585Z" stroke="white" stroke-width="1.2607" stroke-miterlimit="10" stroke-linecap="round" stroke-linejoin="round"/>
<path d="M130.073 25.6522C130.073 25.6522 131.106 24.5011 132.47 25.6522" stroke="white" stroke-width="1.2607" stroke-miterlimit="10" stroke-linecap="round" stroke-linejoin="round"/>
<path d="M120.98 25.57L116.888 27.091" stroke="white" stroke-width="1.2607" stroke-miterlimit="10" stroke-linecap="round" stroke-linejoin="round"/>
<path d="M114.987 26.0633C115.607 26.31 126.973 19.5269 121.186 12.1273C121.186 12.1273 112.548 14.1416 113.044 26.0633H114.987Z" fill="#FF6EAE"/>
<path d="M122.137 14.8405C122.137 14.8405 129.784 12.9905 134.247 16.7726C134.247 16.7726 132.098 9.94844 121.6 9.57846L117.632 18.3347L122.137 14.8405Z" fill="#FF6EAE"/>
<path d="M111.154 15.2193C114.288 14.4881 116.232 11.3688 115.497 8.25203C114.762 5.13527 111.625 3.20137 108.492 3.93254C105.358 4.66371 103.414 7.78307 104.149 10.8998C104.884 14.0166 108.02 15.9505 111.154 15.2193Z" fill="#FF6EAE"/>
<path d="M117.384 22.1579L116.64 29.9687L113.912 22.8156L117.384 22.1579Z" fill="#FF6EAE"/>
<path d="M108.456 30.7498C109.2 33.1341 111.721 34.4907 114.119 33.7508C116.516 33.0108 117.88 30.5031 117.136 28.1188C116.392 25.7344 113.871 24.3778 111.473 25.1178C109.076 25.8167 107.712 28.3654 108.456 30.7498Z" fill="#FFB076"/>
<path d="M110.771 28.1188C110.771 28.1188 114.119 27.1733 114.987 30.832" stroke="#311326" stroke-width="0.8934" stroke-miterlimit="10" stroke-linecap="round" stroke-linejoin="round"/>
<path d="M136.603 55.7853C136.603 55.7853 143.093 59.6085 143.093 69.5981V98.169C143.093 101.704 140.489 104.747 136.975 105.322C132.553 106.021 128.585 102.65 128.544 98.2513L128.296 60.5951L136.603 55.7853Z" fill="#BF5180"/>
<path d="M159.915 79.6699L163.015 83.6986L139.083 104.829C136.025 107.049 131.685 105.898 130.197 102.444C128.957 99.5668 130.197 96.2369 133.049 94.8803L159.915 79.6699Z" fill="#FFB076"/>
<path d="M159.915 79.6699L161.609 76.71C162.519 75.1889 163.759 73.8734 165.247 72.8868L167.851 71.1602C168.471 70.7491 169.297 70.9958 169.628 71.6947C169.876 72.2702 169.752 72.9279 169.297 73.3801L166.983 75.7645L179.506 72.188C180.044 72.0235 180.622 72.3524 180.705 72.9279L180.788 73.2979C180.87 73.7501 180.622 74.1612 180.209 74.3257L172.852 76.6689L181.656 75.1478C182.193 75.0245 182.73 75.3945 182.813 75.9289L182.854 76.2167C182.896 76.6689 182.606 77.1211 182.152 77.2033L173.017 79.0532L180.581 78.8888C181.16 78.8477 181.656 79.3821 181.532 79.9576V80.0809C181.449 80.492 181.118 80.7798 180.746 80.862L172.852 81.8898H177.688C178.39 81.8898 178.845 82.5886 178.514 83.2052C178.39 83.493 178.101 83.6986 177.77 83.7397L160.163 85.3429L159.915 79.6699Z" fill="#FFB076"/>
<path d="M108.249 51.6333C108.249 51.6333 96.3457 54.1821 91.7991 65.1994C87.2526 76.2167 90.3938 114.037 90.3938 114.037C90.3938 114.037 113.003 124.602 132.718 112.681L136.521 55.7853C136.521 55.7853 132.098 52.6199 128.502 50.6056L108.249 51.6333Z" fill="#BF5180"/>
<path d="M117.384 48.0979C117.384 48.0979 114.036 48.8379 108.291 51.6333C108.291 51.6333 116.929 58.293 123.749 66.3504C123.749 66.3504 129.081 60.924 128.585 50.6467L121.848 48.139H117.384V48.0979Z" fill="#FFB076"/>
<path d="M135.694 69.1459L134.041 93.6059" stroke="#9B3666" stroke-width="1.7" stroke-miterlimit="10" stroke-linecap="round" stroke-linejoin="round"/>
<path d="M58.8986 116.668C58.8986 116.668 73.9849 119.71 86.3019 113.708L90.3938 62.2395L75.7208 47.399L61.2132 44.3158L53.2361 73.2568L58.8986 116.668Z" fill="#F9FAFC"/>
<path d="M61.2132 44.2747C61.2132 44.2747 63.3211 95.6614 62.7425 121.108L51.5828 119.793C45.6722 119.094 41.2497 113.996 41.415 108.076L42.5723 68.4881L43.8536 51.3866C43.9776 49.9067 44.8869 48.6323 46.2922 48.0568C49.2682 46.9057 54.8067 44.9736 61.2132 44.2747Z" fill="#FFA405"/>
<path d="M22.9808 100.759L18.9716 107.747C18.9716 107.747 11.1184 108.241 3.88525 111.653C3.51326 111.817 3.26527 112.228 3.34793 112.639C3.4306 113.215 4.00925 113.585 4.5879 113.421L9.9611 111.817C9.9611 111.817 4.67057 113.955 0.578667 116.339C0.0413472 116.668 -0.206647 117.326 0.0826795 117.901C0.372006 118.477 1.03332 118.765 1.61198 118.518L10.3331 115.147L2.23196 119.587C1.61198 119.957 1.36398 120.738 1.69464 121.355C2.0253 122.012 2.81061 122.259 3.47193 121.971L11.3664 118.189L5.20789 122.506C4.42257 123.081 4.29858 124.191 5.00123 124.89C5.53855 125.383 6.32386 125.466 6.94384 125.055C9.34112 123.451 15.4583 119.751 19.3849 119.875C19.3849 119.875 18.4342 121.396 16.7809 122.958C15.9956 123.739 16.0783 125.013 16.9463 125.671C17.5663 126.123 18.3516 126.123 18.9716 125.712L23.6008 122.506C24.4688 121.889 25.1301 120.985 25.4194 119.957L26.9487 114.366L33.6859 108.035L22.9808 100.759Z" fill="#FF974D"/>
<path d="M46.9122 47.8512C46.9122 47.8512 44.7629 47.7279 37.6951 56.7308C30.4206 65.9804 17.7729 107.336 17.7729 107.336L30.4619 116.915L51.9961 70.2969L46.9122 47.8512Z" fill="#FFA405"/>
<path d="M42.159 91.6737L49.6401 75.4355" stroke="#EC7600" stroke-width="1.7484" stroke-miterlimit="10" stroke-linecap="round" stroke-linejoin="round"/>
<path d="M86.7152 48.5912C86.7152 48.5912 97.8336 52.0444 102.008 92.8248L92.9564 99.1967L86.7152 48.5912Z" fill="#FFA405"/>
<path d="M124.452 78.3543C124.452 78.3543 120.401 75.23 124.162 70.0503L129.825 61.9106C130.362 61.2118 131.354 61.0884 132.015 61.7051C132.47 62.1162 132.594 62.7328 132.387 63.3083L130.651 68.1181L141.398 60.8829C142.183 60.3074 143.299 60.554 143.754 61.4173C144.084 62.0751 143.919 62.8972 143.34 63.3906L136.438 68.7348L136.562 69.1459L144.498 64.6649C145.366 64.2539 146.399 64.7472 146.647 65.6927C146.812 66.3915 146.482 67.1315 145.82 67.4193L138.174 72.3113L138.298 72.8457L145.779 69.6803C147.639 68.817 148.218 69.6803 148.383 70.338C148.548 70.9547 147.143 71.8591 146.523 72.0646L138.794 75.97L138.877 76.4633L146.068 73.709C146.771 73.6268 147.391 74.1612 147.308 74.8601C147.267 75.3534 146.895 75.7645 146.399 75.8467L138.215 79.2999C138.215 79.2999 130.734 84.3563 127.345 81.5198L124.452 78.3543Z" fill="#FF974D"/>
<path d="M130.652 68.1181C130.652 68.1181 133.007 72.3113 130.114 76.0522" stroke="#FB7928" stroke-width="1.6" stroke-miterlimit="10" stroke-linecap="round" stroke-linejoin="round"/>
<path d="M112.961 79.0532L125.278 73.9145L130.61 81.3142L116.805 88.7139L112.961 79.0532Z" fill="#FF974D"/>
<path d="M88.4512 86.5762L119.574 74.0379L125.816 87.4806L98.6189 105.322C94.3617 107.871 88.8645 106.72 86.0126 102.65C82.7473 98.0046 83.4086 89.2072 88.4512 86.5762Z" fill="#FFA405"/>
<path d="M100.355 81.7664L96.5523 83.2875" stroke="#EC7600" stroke-width="1.7484" stroke-miterlimit="10" stroke-linecap="round" stroke-linejoin="round"/>
<path d="M75.7621 47.3579C75.7621 47.3579 79.3581 51.5511 80.846 69.6803C82.334 87.8095 82.83 118.806 82.83 118.806C89.1952 117.532 93.659 111.858 93.4937 105.404C93.0804 91.9615 92.1297 70.0914 89.9805 60.8418L87.9965 50.8111C87.8725 50.3178 87.4179 48.9201 87.4179 48.9201C87.4179 48.9201 85.8059 47.4813 75.9275 45.2202L75.7621 47.3579Z" fill="#FFA405"/>
<path d="M93.4111 106.679C93.4111 106.679 93.4937 80.9442 90.3938 62.1984" stroke="#EC7600" stroke-width="1.7484" stroke-miterlimit="10" stroke-linecap="round" stroke-linejoin="round"/>
<path d="M60.1385 26.5155C60.1385 26.5155 56.584 32.2297 61.7918 32.0653C61.7918 32.0653 63.9825 30.2976 63.4865 26.9266L60.1385 26.5155Z" fill="#8A331F"/>
<path d="M91.1378 10.6062C91.0138 9.53737 90.6831 8.38631 90.0631 7.19414C82.5407 -6.57747 66.2557 4.39871 66.2557 4.39871L69.1077 14.0594C75.8862 10.0307 83.9873 8.3452 91.1378 10.6062Z" fill="#8A331F"/>
<path d="M69.0663 14.1005L72.2489 26.6388C72.2489 26.6388 92.2124 20.9246 91.0965 10.6062C83.9873 8.34518 76.8781 7.35856 69.0663 14.1005Z" fill="#7B2616"/>
<path d="M78.5728 25.1589C79.1514 27.3377 81.3834 28.6532 83.574 28.0777C85.7646 27.5021 87.0872 25.2822 86.5086 23.1034C85.9299 20.9246 83.698 19.6091 81.5074 20.1847C79.3167 20.7602 77.9941 22.9801 78.5728 25.1589Z" fill="#FF8031"/>
<path d="M75.0595 33.833L75.8035 45.9191C75.4728 50.8111 69.4796 52.9899 66.0904 49.4134L61.2132 44.2747L62.6598 23.1857L75.0595 33.833Z" fill="#FF974D"/>
<path d="M75.4315 39.7938C75.4315 39.7938 67.4957 39.4649 66.8757 31.4897L75.0595 33.833L75.4315 39.7938Z" fill="#311326"/>
<path d="M83.45 7.68746C83.45 7.68746 86.0539 24.1723 84.0286 29.3932C82.0033 34.5729 77.4568 37.7795 70.4716 36.2173C70.4716 36.2173 62.2878 35.6007 60.7999 23.7612C58.5266 6.00198 75.3488 -1.97323 83.45 7.68746Z" fill="#FF974D"/>
<path d="M82.086 21.2946C82.21 21.7879 82.706 22.1168 83.202 21.9935C83.698 21.8701 84.0286 21.3768 83.9046 20.8835C83.7806 20.3902 83.2847 20.0613 82.7887 20.1847C82.2927 20.2669 81.962 20.8013 82.086 21.2946Z" fill="#101010"/>
<path d="M74.1502 21.1302C74.2742 21.6235 74.7702 21.9524 75.2662 21.829C75.7622 21.7057 76.0928 21.2124 75.9688 20.7191C75.8448 20.2258 75.3488 19.8969 74.8528 20.0202C74.3568 20.1436 74.0675 20.6369 74.1502 21.1302Z" fill="#101010"/>
<path d="M80.3501 21.9524L81.2594 25.1589L79.7301 25.8989" stroke="#311326" stroke-width="0.9831" stroke-miterlimit="10" stroke-linecap="round" stroke-linejoin="round"/>
<path d="M73.5302 14.5116C73.5302 14.5116 76.4235 13.8128 76.6301 15.3749C76.6301 15.3749 76.7541 16.4438 74.1915 16.9782C71.6289 17.5126 70.637 17.4715 70.265 16.526C69.9756 15.5393 72.1662 14.6761 73.5302 14.5116Z" fill="#20120C"/>
<path d="M84.4419 14.2649C84.4419 14.2649 81.714 13.6072 81.4247 15.1282C81.4247 15.1282 81.2594 16.156 83.6153 16.6904C85.3513 17.0604 85.9712 16.7315 86.0952 16.0326C86.2606 15.2105 85.4339 14.4294 84.4419 14.2649Z" fill="#20120C"/>
<path d="M75.2662 27.2555L80.6807 27.6666C80.6807 27.6666 80.6394 29.7632 77.8701 29.5987C75.1009 29.3932 75.2662 27.2555 75.2662 27.2555Z" fill="white"/>
<path d="M64.8504 22.6924L65.6357 16.6904C65.6357 16.6904 70.4303 15.1694 71.5463 6.20753C71.5463 6.20753 69.521 2.05549 63.4038 3.94651C57.2866 5.83754 51.9547 10.2362 58.6919 21.3357L64.8504 22.6924Z" fill="#8A331F"/>
<path d="M55.2613 25.2C55.964 27.831 58.6506 29.4343 61.2959 28.7354C63.9411 28.0366 65.5531 25.3645 64.8504 22.7335C64.1478 20.1025 61.4612 18.4992 58.8159 19.1981C56.1706 19.8558 54.5587 22.569 55.2613 25.2Z" fill="#FF974D"/>
<path d="M57.9066 22.4457C57.9066 22.4457 61.5852 21.5413 62.4118 25.57" stroke="#311326" stroke-width="0.9831" stroke-miterlimit="10" stroke-linecap="round" stroke-linejoin="round"/>
<path d="M71.5876 6.20752C71.5876 6.20752 77.6221 5.2209 83.6566 9.04406L82.3753 3.69986L74.4395 2.5899L66.8757 5.42645L68.7357 5.59088L71.5876 6.20752Z" fill="#8A331F"/>
<path d="M83.6566 9.04406C83.6566 9.04406 92.7911 9.08517 92.8324 15.7038C92.8324 15.8271 93.0391 15.8682 93.0804 15.7038C93.4937 13.2372 93.0391 6.49528 82.954 7.27636L83.6566 9.04406Z" fill="#8A331F"/>
<path d="M187.07 16.8548C187.07 16.8548 188.806 27.6254 192.733 33.7096C193.477 34.8607 193.063 36.3817 191.947 37.1217C187.525 39.9582 175.125 45.3435 159.253 39.1771C158.22 38.7661 157.559 37.6972 157.683 36.5461C158.013 33.6274 160.535 27.9132 164.296 22.7745L187.07 16.8548Z" fill="#FF6B21"/>
<path d="M165.081 26.8855C164.503 28.8176 162.436 29.8864 160.493 29.3109C158.551 28.7354 157.476 26.6799 158.055 24.7478C158.633 22.8156 160.7 21.7468 162.643 22.3223C164.585 22.939 165.66 24.9533 165.081 26.8855Z" fill="#FFAC78"/>
<path d="M169.38 34.2851L169.711 49.0434L181.284 47.7279L179.093 26.0222L169.38 34.2851Z" fill="#FFB988"/>
<path d="M169.504 39.7527C169.504 39.7527 174.753 39.506 175.001 33.5452L169.421 36.4639L169.504 39.7527Z" fill="#311326"/>
<path d="M162.519 12.8261C161.609 13.6072 160.989 14.676 160.783 15.8682C160.08 19.3625 158.716 26.5977 159.956 30.2975C161.568 35.1073 165.495 38.1494 171.86 36.9572C171.86 36.9572 179.217 36.6284 181.036 25.8577C183.557 10.6062 170.413 6.16639 162.519 12.8261Z" fill="#FFB988"/>
<path d="M161.279 24.5833C161.735 24.5833 162.105 24.2152 162.105 23.7612C162.105 23.3071 161.735 22.939 161.279 22.939C160.822 22.939 160.452 23.3071 160.452 23.7612C160.452 24.2152 160.822 24.5833 161.279 24.5833Z" fill="#311326"/>
<path d="M169.173 24.1311C169.049 24.5833 168.595 24.83 168.14 24.7066C167.685 24.5833 167.437 24.1311 167.561 23.6789C167.685 23.2267 168.14 22.9801 168.595 23.1034C169.008 23.2267 169.297 23.6789 169.173 24.1311Z" fill="#311326"/>
<path d="M163.511 25.8577L162.684 27.831L164.007 28.201" stroke="#311326" stroke-width="0.8729" stroke-miterlimit="10" stroke-linecap="round" stroke-linejoin="round"/>
<path d="M169.215 19.0336C169.215 19.0336 166.611 18.5814 166.487 19.7735C166.487 19.7735 166.404 20.5957 168.677 20.9246C170.95 21.2946 171.86 21.2124 172.149 20.4724C172.397 19.7324 170.413 19.1569 169.215 19.0336Z" fill="#FF6B21"/>
<path d="M160.328 19.0747C160.328 19.0747 162.601 18.5814 162.932 19.7324C162.932 19.7324 163.139 20.5135 161.155 20.8835C159.708 21.1713 159.171 20.9246 159.005 20.3902C158.799 19.7735 159.46 19.198 160.328 19.0747Z" fill="#FF6B21"/>
<path d="M163.428 29.722L168.099 29.8042C168.099 29.8042 168.099 31.6953 165.743 31.6542C163.345 31.613 163.428 29.722 163.428 29.722Z" fill="white"/>
<path d="M178.225 24.7478C178.225 24.7478 174.381 21.3768 175.125 14.7993C175.125 14.7993 168.595 15.9504 160.824 15.3749C160.824 15.3749 162.56 5.17976 177.274 7.64631C192.609 10.1951 186.946 27.7899 181.242 32.9696L178.225 24.7478Z" fill="#FF6B21"/>
<path d="M183.53 30.3144C185.689 29.1296 186.473 26.4288 185.281 24.282C184.09 22.1353 181.375 21.3555 179.216 22.5403C177.058 23.7251 176.274 26.4259 177.465 28.5727C178.656 30.7194 181.372 31.4992 183.53 30.3144Z" fill="#FFB988"/>
<path d="M183.35 25.1178C183.35 25.1178 180.085 24.1723 179.217 27.7488" stroke="#311326" stroke-width="0.8729" stroke-miterlimit="10" stroke-linecap="round" stroke-linejoin="round"/>
<path d="M171.736 7.27716C171.736 7.27716 158.923 7.48271 157.311 17.6367L177.605 18.0889L178.804 11.347L171.736 7.27716Z" fill="#FF6B21"/>
<path d="M155.244 73.8734L156.65 92.9892L148.755 116.997H157.517L171.24 103.842L169.793 75.1067L155.244 73.8734Z" fill="#FFB988"/>
<path d="M158.757 50.8933C158.757 50.8933 148.714 58.0874 151.69 81.1908H168.099L158.757 50.8933Z" fill="white"/>
<path d="M162.849 92.7015L157.311 116.833C177.894 122.629 197.031 116.833 197.031 116.833C197.031 116.833 195.957 107.542 188.806 92.537L162.849 92.7015Z" fill="#311326"/>
<path d="M186.409 46.5357L166.28 46.8646C166.28 46.8646 161.857 48.3445 158.757 50.8933L159.377 67.7892L162.849 92.7014L188.847 92.537L193.973 53.812L186.409 46.5357Z" fill="white"/>
<path d="M175.414 43.6169C175.414 43.6169 180.54 44.1103 186.409 46.5357C186.409 46.5357 184.714 53.031 175.042 53.0721C173.43 53.0721 171.818 52.8254 170.289 52.2499C168.264 51.4277 165.949 49.8656 166.239 46.9057L175.414 43.6169Z" fill="#FFB988"/>
<path d="M160.824 80.8209L158.964 67.1726" stroke="#DBDBDB" stroke-width="1.7484" stroke-miterlimit="10" stroke-linecap="round" stroke-linejoin="round"/>
<path d="M200.586 93.6058C200.627 93.1125 199.676 69.6391 199.676 69.6391H188.517L188.351 87.1517L200.586 93.6058Z" fill="#FFB988"/>
<path d="M186.409 46.5357C186.409 46.5357 200.255 50.3588 201.95 58.9096C203.644 67.4603 207.695 81.7252 207.695 81.7252L186.409 81.8075L188.021 53.0721L186.409 46.5357Z" fill="white"/>
<path d="M187.194 83.2874L185.375 70.5846" stroke="#DBDBDB" stroke-width="1.7484" stroke-miterlimit="10" stroke-linecap="round" stroke-linejoin="round"/>
<path d="M171.033 69.6391L168.388 74.7367L190.997 97.3057C193.89 99.7311 198.313 98.7856 200.007 95.4558C201.412 92.6603 200.379 89.2482 197.651 87.7272L194.469 85.5895L188.889 81.8075L171.033 69.6391Z" fill="#FFB988"/>
<path d="M172.728 70.9135V67.5014C172.728 65.7337 172.314 63.966 171.488 62.4039L170.083 59.6085C169.752 58.9507 168.884 58.7452 168.305 59.1974C167.809 59.5673 167.561 60.2251 167.727 60.8006L168.553 64.0071L160.369 55.2509C159.997 54.8398 159.088 54.922 158.716 55.3331C158.427 55.662 158.344 56.2786 158.592 56.6486L162.973 61.9517L156.98 56.6897C156.567 56.3197 155.782 56.4019 155.451 56.8541C155.162 57.2241 155.203 57.9641 155.575 58.2518L162.477 64.2949L155.988 60.4306C155.492 60.1018 154.831 60.3484 154.624 60.8828L154.583 61.0062C154.459 61.3761 154.583 61.8284 154.914 62.075L161.237 66.8437L157.022 64.4594C156.443 64.1305 155.658 64.5005 155.616 65.1993C155.575 65.5282 155.74 65.8571 156.03 66.0215L169.669 75.7644L172.728 70.9135Z" fill="#FFB988"/>
<path d="M189.302 82.0952L195.75 86.4528" stroke="#FFA46A" stroke-width="1.6" stroke-miterlimit="10" stroke-linecap="round" stroke-linejoin="round"/>
<path d="M217.329 25.1226C219.292 23.8784 219.87 21.2863 218.619 19.3332C217.368 17.38 214.762 16.8054 212.798 18.0496C210.834 19.2939 210.257 21.886 211.508 23.8391C212.759 25.7923 215.365 26.3669 217.329 25.1226Z" fill="#9E4C3E"/>
<path d="M223.484 31.6953L223.856 48.1801L238.942 47.1113L235.884 20.3491L223.484 31.6953Z" fill="#AD5E4C"/>
<path d="M223.608 38.6016C223.608 38.6016 231.792 37.9439 232.205 28.1599L223.443 32.1475L223.608 38.6016Z" fill="#20120C"/>
<path d="M220.26 3.5765C216.499 5.05643 213.936 8.63294 213.523 12.6617C213.027 17.307 212.613 24.46 214.06 27.9954C216.292 33.4218 221.045 36.6284 228.237 34.6962C228.237 34.6962 236.669 33.6685 237.868 21.048C239.314 6.08417 228.774 0.246645 220.26 3.5765Z" fill="#AD5E4C"/>
<path d="M216.003 19.0336C215.92 19.568 215.383 19.8969 214.887 19.8147C214.349 19.7325 214.019 19.198 214.101 18.7047C214.184 18.1703 214.721 17.8414 215.217 17.9236C215.755 18.0059 216.127 18.4992 216.003 19.0336Z" fill="#20120C"/>
<path d="M224.145 18.5814C224.063 19.1158 223.525 19.4447 223.029 19.3625C222.492 19.2802 222.161 18.7458 222.244 18.2525C222.327 17.7181 222.864 17.3892 223.36 17.4714C223.897 17.5948 224.228 18.0881 224.145 18.5814Z" fill="#20120C"/>
<path d="M217.78 19.6502L217.077 22.4046C216.995 22.6923 217.201 22.9801 217.491 23.0623L218.524 23.2679" stroke="#311326" stroke-width="1.012" stroke-miterlimit="10" stroke-linecap="round" stroke-linejoin="round"/>
<path d="M225.013 12.3739C225.013 12.3739 221.996 11.7573 221.831 13.3605C221.831 13.3605 221.748 14.4705 224.393 14.9227C227.038 15.416 228.072 15.3338 228.402 14.306C228.733 13.3194 226.46 12.5383 225.013 12.3739Z" fill="#20120C"/>
<path d="M213.812 12.5383C213.812 12.5383 216.581 11.7572 216.912 13.3194C216.912 13.3194 217.119 14.3882 214.721 15.0049C212.944 15.4571 212.324 15.1282 212.159 14.3882C211.952 13.5249 212.779 12.7028 213.812 12.5383Z" fill="#20120C"/>
<path d="M217.325 25.2L223.195 25.4055C223.195 25.4055 223.071 27.9132 220.177 27.9132C217.284 27.9543 217.325 25.2 217.325 25.2Z" fill="#20120C"/>
<path d="M233.982 21.0069C233.982 21.0069 230.593 14.6349 231.792 7.68744C231.792 7.68744 221.376 9.41403 215.383 7.523C215.383 7.523 216.788 -0.98662 230.758 0.0822215C249.895 1.60327 244.315 21.8701 235.181 25.3644L233.982 21.0069Z" fill="#20120C"/>
<path d="M243.365 23.1034C242.745 25.8578 240.017 27.5432 237.248 26.9266C234.478 26.31 232.784 23.5967 233.404 20.8424C234.024 18.0881 236.752 16.4026 239.521 17.0193C242.249 17.6359 243.985 20.3491 243.365 23.1034Z" fill="#AD5E4C"/>
<path d="M240.554 20.308C240.554 20.308 236.752 19.5269 236.049 23.679" stroke="#311326" stroke-width="1.012" stroke-miterlimit="10" stroke-linecap="round" stroke-linejoin="round"/>
<path d="M203.024 73.8734V98.2923L191.493 118.354L202.818 116.997L216.54 103.842L215.052 75.1067L203.024 73.8734Z" fill="#AD5E4C"/>
<path d="M210.836 49.9067C210.836 49.9067 201.908 55.0864 200.462 67.9126V86.124L215.052 85.6307L210.836 49.9067Z" fill="#FF6EAE"/>
<path d="M221.831 45.7546C221.831 45.7546 214.515 47.1524 210.836 49.9067L209.762 115.353C233.238 129.453 260.104 115.764 260.104 115.764L252.83 50.2356C252.83 50.2356 251.879 46.5357 241.67 45.7546H221.831Z" fill="#FF6EAE"/>
<path d="M241.67 45.7547C241.67 45.7547 233.238 43.9047 221.831 45.7547C221.831 45.7547 220.756 52.4966 229.89 52.7843C239.852 53.0721 241.67 45.7547 241.67 45.7547Z" fill="#AD5E4C"/>
<path d="M210.258 86.124L210.175 63.185" stroke="#FF3D93" stroke-width="1.7" stroke-miterlimit="10" stroke-linecap="round" stroke-linejoin="round"/>
<path d="M230.345 84.3563C230.345 84.3563 228.733 79.6698 222.905 78.4776L218.813 74.49C218.193 73.8734 217.201 73.7912 216.499 74.3667C215.755 74.9422 215.589 76.0111 216.127 76.7921L218.152 79.5876L217.036 79.1354C215.3 78.3954 213.853 77.0799 212.944 75.3944L210.382 70.6257C210.092 70.0913 209.514 69.7625 208.894 69.7213C207.695 69.7213 206.868 70.9135 207.282 72.0235L209.844 78.6832C210.836 81.2731 212.903 83.2874 215.507 84.2329L228.568 89.9882L230.345 84.3563Z" fill="#AD5E4C"/>
<path d="M230.345 84.3563L266.635 98.169C269.776 99.5256 271.305 104.829 269.9 107.953C268.329 111.406 264.031 112.639 260.89 110.502L228.568 89.9882L230.345 84.3563Z" fill="#AD5E4C"/>
<path d="M270.355 104.335L266.552 75.1478L248.945 73.8734L255.103 99.8545L270.355 104.335Z" fill="#AD5E4C"/>
<path d="M248.407 47.029C248.407 47.029 270.396 50.6466 273 86.124H245.927L244.15 63.1439L248.407 47.029Z" fill="#FF6EAE"/>
<path d="M251.879 86.124H246.754L243.613 67.7892" stroke="#FF3D93" stroke-width="1.7" stroke-miterlimit="10" stroke-linecap="round" stroke-linejoin="round"/>
</g>
<defs>
<clipPath id="clip0">
<rect width="273" height="126" fill="white"/>
</clipPath>
</defs>
</svg>
