<svg width="143" height="58" viewBox="0 0 143 58" fill="none" xmlns="http://www.w3.org/2000/svg">
<path d="M88.594 41.1254C89.8348 40.7295 91.0465 40.407 92.1851 39.9378C94.3894 39.0142 96.2725 37.6067 97.8636 35.8327C98.0972 35.5688 98.3307 35.2462 98.4037 34.909C99.0314 32.3726 99.6446 29.8215 100.228 27.2705C100.316 26.86 100.491 26.7133 100.798 26.9772C101.396 27.4904 102.009 28.0182 102.477 28.6486C102.666 28.8979 102.564 29.455 102.447 29.8069C101.134 33.8241 99.7905 37.8266 98.4475 41.8291C98.3308 42.181 98.2724 42.5475 98.3162 42.9727C99.0169 41.9611 99.6738 40.9201 100.433 39.9525C102.009 37.9439 103.615 35.9646 105.265 34.0147C105.688 33.5015 106.287 33.1203 106.87 32.7685C107.732 32.2553 108.447 32.4166 108.914 33.2816C109.367 34.1319 109.688 35.0556 109.994 35.9646C110.578 37.7533 111.002 38.0172 112.666 37.1375C114.096 36.3898 115.439 35.4368 116.797 34.5571C117.074 34.3812 117.249 34.0586 117.454 33.7947C117.863 33.2523 118.242 32.6805 118.665 32.1527C120.636 29.7922 123.687 29.9242 125.497 32.4606C125.585 32.5779 125.702 32.6951 125.731 32.8271C125.76 32.9737 125.775 33.1936 125.687 33.2816C125.614 33.3549 125.38 33.3256 125.249 33.2669C125.03 33.1643 124.84 33.003 124.651 32.8564C123.789 32.226 123.395 32.138 122.563 32.7978C121.6 33.5602 120.665 34.3959 119.862 35.3342C118.155 37.3574 116.768 39.5859 116.228 42.225C116.14 42.6648 116.257 43.1633 116.271 43.6178C116.724 43.4565 117.308 43.4419 117.629 43.134C119.468 41.3306 121.293 39.5126 123.016 37.592C124.651 35.7593 126.154 33.8094 127.702 31.9034C127.877 31.6982 128.037 31.4929 128.227 31.3023C128.636 30.8771 129.045 30.452 129.731 30.7599C130.461 31.0971 130.986 31.7275 130.869 32.4459C130.723 33.3696 130.446 34.2932 130.183 35.2022C129.088 39.0581 127.964 42.8994 126.869 46.7553C126.738 47.2245 126.665 47.7083 126.636 48.1921C126.577 49.1011 127.118 49.497 127.92 49.0571C128.68 48.6466 129.439 48.1628 130.052 47.547C132.592 44.9666 135.088 42.3276 137.555 39.6739C139.146 37.9585 140.65 36.1699 142.212 34.4398C142.387 34.2492 142.708 34.2053 142.956 34.088C142.898 34.3665 142.942 34.7331 142.781 34.909C138.854 39.4247 134.913 43.9403 130.942 48.412C130.373 49.0571 129.614 49.5409 128.913 50.0688C128.344 50.4939 127.687 50.4646 127.03 50.2447C125.045 49.5703 124.008 47.6057 124.651 45.2599C125.614 41.7265 126.767 38.2518 127.833 34.7477C127.993 34.2199 128.169 33.6921 128.256 33.0763C127.95 33.3842 127.614 33.6628 127.322 33.9853C124.928 36.7123 122.563 39.4687 120.154 42.1663C119.366 43.046 118.461 43.8524 117.556 44.6001C116.899 45.1426 116.125 45.641 115.25 45.0253C114.315 44.3655 113.731 43.4419 114.023 42.269C114.418 40.7002 114.958 39.1608 115.454 37.6213C115.512 37.4454 115.585 37.2841 115.702 36.9909C114.841 37.6067 114.126 38.1638 113.352 38.6623C112.111 39.4393 110.797 39.322 109.892 38.1931C109.206 37.3428 108.754 36.2872 108.301 35.2902C107.79 34.1319 107.469 33.912 106.535 34.7624C105.381 35.7887 104.243 36.9176 103.411 38.1931C101.513 41.0961 99.7905 44.1163 98.0242 47.1072C97.5425 47.9282 97.2067 48.0455 96.5498 47.3271C95.6302 46.3301 95.1338 45.2599 95.6594 43.8231C96.36 41.8878 96.9148 39.8938 97.5133 37.9146C97.5571 37.7533 97.5863 37.592 97.6885 37.2401C97.1191 37.6946 96.6958 38.0172 96.2725 38.3544C93.9806 40.0991 91.4844 41.4186 88.6086 41.8291C88.1561 41.9024 87.9225 42.1223 87.6744 42.4889C86.6525 43.9403 85.6453 45.3918 84.5066 46.7406C83.7914 47.5763 82.8279 48.2508 81.6163 47.8549C80.2879 47.4297 79.3974 46.4328 79.2222 45.0693C79.0909 44.0576 79.3536 43.002 79.4412 41.9611C79.4412 41.8878 79.485 41.8145 79.5142 41.7558C79.9229 40.6709 79.8499 39.8352 79.0179 38.7942C77.4705 36.8589 77.8063 34.5718 78.9011 32.5339C80.6528 29.2497 83.4994 27.5197 87.2218 27.4024C89.7327 27.3291 91.3968 29.2058 91.2508 31.6982C91.0756 34.6598 90.0976 37.3867 88.9152 40.0698C88.813 40.319 88.6962 40.5536 88.594 40.8028C88.5794 40.8175 88.594 40.8761 88.594 41.1254ZM80.2587 38.2958C80.3609 38.2958 80.4631 38.2958 80.5652 38.2958C80.6966 38.0172 80.828 37.7386 80.974 37.4601C81.7769 35.818 82.6381 34.2053 83.9665 32.9151C84.565 32.3286 85.3387 32.3139 85.9956 32.8124C86.5941 33.2669 86.6525 33.7654 86.2292 34.6158C85.3533 36.4338 84.5066 38.2518 83.6308 40.0698C83.441 40.4656 83.4556 40.6855 83.9665 40.7295C84.9738 40.8321 85.981 40.9934 87.0029 41.0814C87.178 41.0961 87.47 40.9201 87.543 40.7588C89.0903 37.6067 90.1852 34.3372 90.229 30.7745C90.2436 28.9712 89.1779 28.0475 87.3824 28.2674C86.9299 28.3261 86.4627 28.4287 86.054 28.634C82.9739 30.1587 81.2367 32.7831 80.2733 35.9646C80.0689 36.683 80.2587 37.5187 80.2587 38.2958ZM81.6309 45.9929C81.7331 46.9019 82.1126 47.1805 82.8717 46.8139C83.1345 46.6967 83.3826 46.5354 83.6016 46.3448C84.9738 45.2452 85.8934 43.7937 86.7693 42.2983C86.9737 41.9464 86.8131 41.9024 86.5065 41.8731C85.4993 41.7851 84.492 41.6532 83.4848 41.5652C83.3242 41.5506 83.0469 41.6678 83.0031 41.7851C82.5213 43.1926 82.0688 44.6001 81.6309 45.9929ZM54.2892 33.1496C53.6323 35.0996 52.9316 37.0349 52.3477 39.0142C51.647 41.3893 51.0047 43.7791 50.45 46.1835C50.1142 47.6643 50.9901 49.1891 52.4207 50.0101C53.7199 50.7578 54.8147 50.3327 55.7928 49.409C56.7854 48.4707 57.7927 47.547 58.6831 46.5207C61.9968 42.7235 65.2813 38.8969 68.5658 35.0849C68.7264 34.909 68.887 34.7037 68.9746 34.4838C69.0184 34.3665 68.9308 34.1613 68.8286 34.044C68.7848 33.9853 68.5658 34.044 68.4491 34.1173C68.3031 34.2053 68.2009 34.3372 68.0841 34.4692C66.5514 36.1992 65.0478 37.9585 63.4858 39.6592C61.0334 42.2983 58.5518 44.908 56.0409 47.4884C55.4862 48.0602 54.8001 48.5147 54.114 48.9252C53.7783 49.1158 53.1944 49.2331 52.917 49.0718C52.6543 48.9105 52.6105 48.3241 52.5813 47.9282C52.5667 47.547 52.6688 47.1512 52.771 46.7846C53.8221 43.0753 54.9023 39.366 55.9534 35.6567C56.2453 34.6011 56.5665 33.5602 56.7562 32.4899C56.8876 31.7715 56.3621 31.1264 55.6322 30.7892C54.9461 30.4666 54.5374 30.8771 54.114 31.3023C53.9097 31.5076 53.7345 31.7422 53.5447 31.9621C51.2091 34.7331 48.9172 37.548 46.5232 40.2604C45.5159 41.4039 44.3189 42.3716 43.1657 43.3832C42.9321 43.5885 42.5088 43.5592 42.173 43.6471C42.1146 43.3539 42.0562 43.0607 42.0271 42.7528C42.0125 42.5915 42.0562 42.4156 42.0854 42.2543C43.0197 38.501 45.1072 35.4954 48.0413 33.047C49.1654 32.1087 49.5303 32.182 50.8003 33.0617C51.0193 33.2083 51.3113 33.2376 51.574 33.3256C51.5156 33.047 51.5448 32.7098 51.3842 32.4899C49.6325 29.9095 46.567 29.7629 44.5817 32.1087C44.5087 32.1967 44.4357 32.2993 44.3627 32.4019C42.6256 34.5864 40.9468 36.8296 39.1221 38.9262C36.874 41.4919 34.4946 43.9403 31.7502 45.9783C31.1663 46.4034 30.5386 46.7993 29.8817 47.1072C28.9474 47.5324 28.5533 47.2391 28.5825 46.2275C28.5971 45.8903 28.6263 45.5384 28.7139 45.2159C29.7065 41.316 31.4291 37.7386 33.3852 34.2639C34.2026 32.8271 34.1588 32.4899 32.8158 31.4489C32.4947 31.1997 32.1443 30.9211 31.7648 30.8185C31.4874 30.7452 30.9327 30.8478 30.8451 31.0384C30.4218 31.8595 29.5897 32.5632 29.9255 33.6628C29.9693 33.8241 29.8525 34.0293 29.7941 34.2199C29.181 36.1552 28.4511 38.0758 27.9694 40.0551C27.5314 41.8584 27.2395 43.7351 27.0789 45.5824C26.9183 47.4444 28.2029 48.4267 29.9839 47.8402C30.8597 47.547 31.7648 47.1218 32.4655 46.5354C34.3924 44.908 36.2463 43.1926 38.071 41.4333C39.1075 40.4363 40.0272 39.2927 41.0052 38.2224C41.0344 38.4277 40.9614 38.5743 40.9176 38.7356C40.5819 39.9525 40.1731 41.1547 39.9396 42.3862C39.7206 43.5298 40.3045 44.4242 41.2388 45.0399C42.0708 45.5824 42.7715 45.0986 43.443 44.6441C43.6766 44.4828 43.9394 44.3215 44.1291 44.1016C46.0706 41.9904 48.0121 39.8792 49.9391 37.7533C51.355 36.1845 52.7418 34.5864 54.1286 33.003C54.1724 33.0617 54.2308 33.1057 54.2892 33.1496ZM0.160576 54.7897C0.160576 55.0536 0.160576 55.3322 0.160576 55.5961C0.189771 56.6223 0.905063 57.6046 1.86852 57.9125C2.55461 58.1325 2.83197 57.9272 2.77358 57.2088C2.72979 56.4757 2.6276 55.7573 2.6568 55.0243C2.75898 50.8458 3.50347 46.7553 4.30635 42.6795C5.9851 34.1906 8.16017 25.8337 10.8316 17.6087C12.1892 13.4596 13.6051 9.32507 15.6488 5.43983C16.5539 3.7098 17.5757 2.06774 19.8092 1.87714C19.9698 1.86248 20.1304 1.68655 20.2763 1.58392C20.1596 1.42265 20.0574 1.15874 19.8968 1.1001C18.9333 0.733565 17.9699 0.352372 16.9772 0.073808C16.2036 -0.13145 15.5029 0.205759 15.0795 0.865517C14.3058 2.0824 13.4884 3.29929 12.8753 4.6188C10.7148 9.20778 9.19661 14.0607 7.75143 18.9282C5.15302 27.637 2.97795 36.4484 1.37219 45.3918C0.817477 48.5 0.452532 51.6375 0 54.7604C0.0583912 54.775 0.102185 54.7897 0.160576 54.7897ZM29.8087 56.6957C29.9109 56.6517 29.9109 56.2998 29.9547 56.0945C29.7649 56.0652 29.5751 56.0066 29.3854 56.0359C28.9766 56.0799 28.5241 56.3291 28.1591 56.2265C26.8891 55.8746 25.5169 55.6107 24.4075 54.9363C16.6415 50.274 11.6928 43.5445 9.80972 34.6158C9.15282 31.5076 9.88271 28.8246 12.0432 26.4641C13.8971 24.4408 15.9262 22.6375 18.1305 21.0394C22.2032 18.0925 26.495 15.5708 31.3123 14.0167C33.1078 13.4449 34.9179 12.9611 36.6989 14.1046C36.7427 14.134 36.7864 14.134 36.8302 14.1486C37.4287 14.3392 37.7499 14.0753 37.4871 13.5182C37.0784 12.6825 36.5383 11.9055 35.969 11.1577C35.5018 10.5273 34.8157 10.3367 34.0129 10.4247C32.2465 10.6153 30.6262 11.2457 29.0496 12.0081C22.6704 15.1016 17.0356 19.2654 12.0724 24.3089C10.6564 25.7604 9.44477 27.4317 8.24776 29.0738C7.40108 30.2467 6.96315 31.6249 7.2989 33.091C7.76603 35.1143 8.18936 37.1815 8.93385 39.1168C11.0213 44.5708 14.0285 49.453 18.5538 53.2649C21.2398 55.5227 24.2761 57.0035 27.8964 57.2674C28.5387 57.0622 29.1956 56.9156 29.8087 56.6957ZM34.334 25.8483C34.48 25.9216 34.8887 25.7897 34.9909 25.6284C35.7062 24.4848 36.4069 23.3119 37.0492 22.1097C37.1514 21.9191 37.1222 21.4793 36.9762 21.3327C36.5237 20.9075 36.0128 20.5409 35.4726 20.2477C35.3267 20.1598 34.8157 20.3357 34.7865 20.4823C34.3778 21.9778 34.0129 23.4879 33.6041 25.1739C33.7939 25.3792 34.0275 25.7017 34.334 25.8483Z" fill="#761925"/>
</svg>
