<svg width="106" height="35" viewBox="0 0 106 35" fill="none" xmlns="http://www.w3.org/2000/svg">
<path d="M0 15.1917C0.0898115 14.4461 0.168397 13.6894 0.291887 12.9549C0.774624 9.86105 1.66151 6.86741 2.75048 3.94054C3.17708 2.77202 3.6935 1.63689 4.19869 0.501752C4.45689 -0.065816 4.62529 -0.0992023 5.18661 0.167888C5.72548 0.434979 6.19699 0.779971 6.44397 1.45883C5.54586 1.39205 5.35501 2.05978 5.07435 2.60509C3.4802 5.72115 2.44736 9.01527 1.90849 12.4541C1.67274 13.9898 1.59415 15.5479 1.49312 17.0948C1.47066 17.4286 1.58293 17.7959 1.70642 18.1075C1.87481 18.5081 2.17793 18.6417 2.57085 18.4525C3.01991 18.241 3.50265 18.0073 3.82821 17.6512C4.80491 16.6162 5.81529 15.5924 6.63482 14.435C8.81275 11.3634 10.9009 8.21399 13.0451 5.12019C13.7187 4.14086 14.4709 3.20604 15.2118 2.27123C15.5374 1.85946 15.9191 1.51447 16.5478 1.78156C17.1989 2.07091 17.6592 2.63848 17.5469 3.29507C17.3673 4.35231 17.1652 5.4318 16.8284 6.44452C15.4251 10.6735 13.9432 14.8801 12.5175 19.1091C11.5969 21.8356 10.7212 24.5844 10.2161 27.4223C10.0252 28.4906 9.89049 29.5701 10.0813 30.6496C10.1599 31.1059 10.4294 31.5399 10.609 31.9851C10.6539 32.0963 10.6988 32.1965 10.7437 32.3078C10.6202 32.3301 10.4855 32.3968 10.3732 32.3746C9.47511 32.1631 8.82398 31.6846 8.59945 30.7386C8.34124 29.648 8.39737 28.5574 8.56577 27.4779C9.09341 24.117 10.2834 20.9564 11.4285 17.7736C12.9665 13.5002 14.4933 9.22671 16.0201 4.94213C16.2559 4.27441 16.4243 3.57329 16.5927 2.87218C16.6264 2.73864 16.5478 2.5717 16.5253 2.42703C16.3794 2.48267 16.1885 2.48267 16.0987 2.58283C15.6496 3.09476 15.1781 3.59555 14.7964 4.15199C13.0227 6.74499 11.305 9.38251 9.49756 11.9533C8.17284 13.834 6.73586 15.648 5.32133 17.462C4.99576 17.8849 4.56916 18.241 4.14255 18.586C3.0985 19.4207 1.69519 19.2537 0.841983 18.2188C0.404152 17.6846 0.202076 17.0725 0.0898115 16.4048C0.0673586 16.2712 0.0336793 16.1488 0 16.0153C0 15.737 0 15.4588 0 15.1917ZM79.9434 8.64802C80.4599 7.50175 80.965 6.34436 81.807 5.37616C82.054 5.09794 82.4357 4.931 82.7501 4.70843C82.8511 4.64166 82.9521 4.58601 83.0532 4.53037C82.9634 4.41908 82.896 4.25215 82.7837 4.21876C82.2785 4.05183 81.7734 3.89603 81.2569 3.79587C80.6507 3.67345 80.5048 3.76248 80.2915 4.31892C79.4944 6.36662 78.7085 8.42544 77.9115 10.4843C77.8441 10.6735 77.788 10.7959 77.541 10.8293C74.7793 11.1186 72.0288 11.3968 69.2783 11.7196C67.8413 11.8865 66.4156 12.1313 64.9898 12.3539C64.5857 12.4207 64.4846 12.5987 64.5969 12.9771C64.7429 13.4556 64.9112 13.5335 65.4052 13.4223C66.8759 13.0773 68.3465 12.7434 69.8846 12.3873C69.8397 12.532 69.8284 12.5765 69.8172 12.621C69.7386 13.2442 70.0866 13.5447 70.6929 13.4111C72.433 13.0216 74.1843 12.6544 75.9356 12.2871C76.3959 12.187 76.8562 12.1425 77.3726 12.0646C77.3277 12.2204 77.3052 12.2983 77.2828 12.3762C76.7888 13.9231 76.2275 15.4477 75.8346 17.0169C75.4978 18.3634 74.9028 19.4874 73.9148 20.4556C72.5564 21.7911 71.2654 23.1822 69.9182 24.5288C69.6376 24.807 69.2671 25.0184 68.8966 25.1965C68.5711 25.3523 68.3129 25.1742 68.3241 24.8181C68.3353 24.5399 68.369 24.2506 68.4476 23.9835C69.0089 22.0359 69.5814 20.0884 70.1428 18.152C70.2663 17.7291 70.401 17.2951 70.502 16.8611C70.5918 16.4604 70.3897 16.1154 69.9968 15.8928C69.6264 15.6814 69.3794 15.8706 69.1436 16.1266C69.0089 16.2601 68.8966 16.4159 68.7731 16.5606C67.5831 17.9517 66.4156 19.365 65.1919 20.7339C64.6755 21.3126 64.0468 21.8022 63.4406 22.3142C63.3395 22.4032 63.1262 22.4254 62.9915 22.3921C62.9242 22.3698 62.8793 22.125 62.9129 22.0025C63.115 21.3348 63.2722 20.6448 63.5865 20.0216C64.1815 18.842 64.9786 17.7847 66.0563 16.9835C66.6289 16.5606 66.7973 16.5828 67.3698 16.9835C67.4484 17.0391 67.527 17.1059 67.6056 17.1393C67.6842 17.1615 67.7852 17.1281 67.8638 17.117C67.8526 17.0391 67.875 16.9501 67.8301 16.8944C67.7066 16.7164 67.5831 16.5272 67.4147 16.3936C66.236 15.4366 65.1695 15.3364 64.1928 16.5717C63.7549 17.117 63.3283 17.7068 63.0477 18.3412C62.6098 19.2983 61.9699 20.0884 61.2402 20.8229C60.9708 21.09 60.7238 21.3793 60.4319 21.6353C59.8369 22.1472 59.2307 22.648 58.6132 23.1377C58.4897 23.2378 58.1978 23.3157 58.1417 23.249C58.0294 23.1377 58.0294 22.9151 57.9958 22.737C57.9845 22.6703 58.007 22.6035 58.0182 22.5367C58.1866 21.7021 58.3662 20.8674 58.5009 20.0328C58.6357 19.2204 58.7479 18.408 58.7928 17.5844C58.8265 17.117 58.5234 16.772 58.0631 16.6051C57.6028 16.427 57.1762 16.4715 56.817 16.8388C56.6823 16.9723 56.5363 17.0948 56.4241 17.2506C55.6719 18.2744 54.9309 19.3205 54.1788 20.3444C53.7185 20.9787 53.2358 21.6019 52.7418 22.214C52.6183 22.3698 52.4275 22.4588 52.2591 22.5812C52.2254 22.559 52.1917 22.5367 52.1692 22.5033C52.2029 22.303 52.2141 22.1138 52.2703 21.9246C52.6744 20.4 53.101 18.8754 53.4827 17.3396C53.6624 16.6273 53.7746 15.8817 53.8532 15.1472C53.8981 14.7243 53.7185 14.3126 53.2694 14.1234C52.7979 13.9119 52.405 14.09 52.1019 14.4461C51.5967 15.0471 51.0466 15.6369 50.6424 16.2935C48.9248 19.1202 47.2633 21.9803 45.5793 24.8181C45.1864 25.4859 44.7486 26.1202 44.3332 26.7768C44.2434 26.9103 44.1872 27.0661 44.1087 27.1997C44.0189 27.144 43.9403 27.0884 43.8505 27.0328C43.9178 26.6321 43.9403 26.2204 44.075 25.842C44.9843 23.1266 45.9049 20.4111 46.8591 17.718C47.3194 16.4048 47.892 15.1361 48.3972 13.834C48.5431 13.4668 48.3972 13.2219 47.9369 12.9771C47.5327 12.7657 47.398 12.7879 47.1735 13.1886C46.8704 13.7116 46.6009 14.2569 46.3203 14.8022C46.2641 14.9024 46.2754 15.0359 46.2529 15.1472C46.2305 15.3698 46.2417 15.6035 46.1743 15.8038C45.3211 18.1631 44.4118 20.5113 43.5922 22.8928C43.2442 23.9167 43.0085 25.0073 42.8288 26.0757C42.6605 27.055 43.1881 27.8229 43.9627 28.0232C44.2209 28.09 44.4006 28.0455 44.5353 27.8006C44.9394 27.0995 45.3773 26.4095 45.7926 25.7084C47.4878 22.8261 49.1718 19.9326 50.8782 17.0502C51.2599 16.4048 51.7314 15.7927 52.1805 15.1806C52.2815 15.0359 52.4611 14.9358 52.5958 14.8245C52.6295 14.8467 52.6632 14.8801 52.6857 14.9024C52.6744 15.0359 52.6744 15.1695 52.6408 15.2919C52.4836 15.8372 52.3264 16.3825 52.158 16.9278C51.7202 18.4413 51.2599 19.9549 50.8558 21.4795C50.6761 22.1361 50.7772 22.8149 51.2711 23.3491C51.8212 23.939 52.2478 24.0391 52.753 23.3936C53.4042 22.559 54.0441 21.7132 54.6615 20.8563C55.4923 19.71 56.2893 18.5526 57.1089 17.4064C57.2211 17.2506 57.3671 17.1393 57.5018 17.0057C57.5579 17.028 57.6028 17.0614 57.659 17.0836C57.5692 17.5065 57.4906 17.9405 57.4008 18.3634C57.1538 19.5765 56.8843 20.7895 56.6598 22.0137C56.5251 22.737 56.9292 23.2156 57.513 23.5828C58.0856 23.9501 58.6244 23.8499 59.096 23.4493C59.7695 22.8817 60.4095 22.2808 61.0606 21.6687C61.3525 21.3905 61.6219 21.0677 61.9587 20.7116C61.8801 21.1568 61.7903 21.4906 61.7566 21.8356C61.7005 22.4032 61.9811 22.8261 62.4414 23.1266C62.868 23.4048 63.2497 23.1822 63.5641 22.9151C64.1029 22.4588 64.6418 21.9914 65.1133 21.4684C66.3258 20.1329 67.5158 18.7641 68.717 17.4175C68.8405 17.2728 68.9864 17.1504 69.1212 17.028C69.0538 17.4509 68.9191 17.8181 68.8068 18.1854C68.2904 19.8769 67.7291 21.5574 67.2688 23.2601C66.9545 24.4397 67.4933 25.3968 68.5149 25.7529C68.8517 25.8642 69.1885 25.8865 69.4916 25.6639C69.8621 25.3857 70.255 25.1297 70.5694 24.7959C71.8492 23.4159 73.1065 22.0025 74.3751 20.6003C74.5211 20.4445 74.6558 20.2776 74.8017 20.1218C74.8354 20.3666 74.7905 20.5669 74.7344 20.7673C73.825 24.2506 73.0167 27.745 72.8596 31.3618C72.8147 32.497 72.9718 33.5876 73.8026 34.4556C74.0271 34.6894 74.3527 34.834 74.6558 34.9787C74.7568 35.0232 74.914 34.9453 75.0375 34.9231C75.0038 34.8006 74.9926 34.6671 74.9252 34.5669C74.4762 33.9326 74.1618 33.2315 74.1955 32.4525C74.2629 30.9946 74.319 29.5367 74.5323 28.1011C75.3294 22.6591 76.7551 17.373 78.5401 12.1647C78.63 11.8976 78.7759 11.8086 79.0341 11.7752C79.6628 11.6973 80.2802 11.6083 80.8977 11.5304C81.5264 11.4525 82.1551 11.3857 82.8399 11.3078C82.7837 11.497 82.7501 11.6194 82.7164 11.7529C81.7846 14.8579 80.7854 17.9405 79.921 21.0677C78.9892 24.4286 78.2595 27.8452 78.1023 31.3396C78.0574 32.3412 78.1921 33.3094 78.7983 34.1552C79.079 34.5447 79.4158 34.8785 79.9322 34.9676C80.0557 34.9898 80.1792 34.9119 80.3139 34.8897C80.2802 34.7784 80.2578 34.656 80.2017 34.5669C79.7189 33.8881 79.427 33.1202 79.4382 32.2967C79.4495 31.3841 79.4832 30.4604 79.5842 29.5479C79.9322 26.4541 80.5834 23.4159 81.3467 20.4C82.1101 17.3952 82.9633 14.4239 84.0411 11.5192C84.0972 11.3857 84.2095 11.1631 84.2993 11.1631C84.7596 11.152 85.2199 11.1742 85.6689 11.2521C85.9384 11.3078 86.1404 11.5081 85.8598 11.8197C85.8036 11.8754 85.8149 12.0757 85.871 12.1202C85.9384 12.1758 86.1068 12.1647 86.1853 12.1202C86.4436 11.9755 86.5446 11.5749 86.3986 11.2967C86.3425 11.1965 86.2752 11.1075 86.1966 10.9739C87.5213 10.8293 88.8011 10.7847 90.0697 11.0073C90.384 11.063 90.7096 11.1631 91.0015 11.2855C91.1811 11.3523 91.3383 11.5192 91.1587 11.7307C91.0239 11.8865 90.9341 12.0645 91.1587 12.1536C91.2597 12.1981 91.4954 12.0757 91.5853 11.9644C91.8659 11.6083 91.7312 11.1186 91.226 10.9072C90.6984 10.6846 90.1146 10.4843 89.542 10.4731C88.2173 10.4397 86.8926 10.5399 85.5679 10.5622C85.1974 10.5733 84.8382 10.5065 84.4116 10.462C84.7147 9.73864 84.9729 9.1043 85.2535 8.46996C85.7587 7.35708 86.2527 6.2442 87.0722 5.32051C87.308 5.05342 87.6785 4.88649 87.9816 4.67504C88.0826 4.60827 88.1949 4.5415 88.3071 4.47472C88.2061 4.37457 88.1275 4.20763 88.0153 4.17425C87.4876 4.00732 86.9487 3.86264 86.3986 3.74023C85.9833 3.65119 85.7138 3.79587 85.5454 4.21876C84.8157 6.1663 84.0411 8.10271 83.3114 10.0502C83.2103 10.3173 83.0981 10.4397 82.795 10.4397C82.2336 10.4397 81.6723 10.4843 81.1222 10.5176C80.4711 10.551 79.82 10.5956 79.1015 10.6512C79.3933 9.96121 79.6516 9.29348 79.9434 8.64802ZM24.5747 21.4016C24.4624 21.9692 24.7431 22.3921 25.1472 22.7482C25.4054 22.9707 25.6861 23.0153 25.978 22.8261C26.2586 22.6369 26.573 22.47 26.8087 22.2362C28.1671 20.8118 29.5255 19.3873 30.8502 17.9294C31.5463 17.1615 32.1862 16.3269 32.8373 15.5145C32.8261 15.6814 32.77 15.8261 32.7138 15.9707C31.8269 17.9183 30.9176 19.8436 30.0644 21.8022C29.5367 23.0153 29.0652 24.2617 28.9081 25.586C28.7846 26.5876 29.5592 27.6003 30.5134 27.7005C30.6369 27.7116 30.7717 27.6226 30.9064 27.5781C30.8615 27.4445 30.8502 27.2442 30.7604 27.1886C30.2216 26.8769 30.1542 26.3762 30.2552 25.8754C30.4461 24.9405 30.6482 23.9946 30.9625 23.0932C31.9617 20.2108 33.2527 17.462 34.5774 14.7243C34.8132 14.2347 34.6897 13.9787 34.1733 13.8006C33.8589 13.6894 33.6456 13.8452 33.466 14.0566C32.6802 14.9803 31.928 15.9151 31.1197 16.8165C29.8286 18.2633 28.5376 19.7211 27.2017 21.1234C26.8424 21.5018 26.3148 21.7355 25.8433 21.9914C25.5514 22.1472 25.3044 21.9692 25.3381 21.6353C25.383 21.2124 25.4279 20.7561 25.6187 20.3889C26.1015 19.4429 26.6628 18.5304 27.1904 17.6067C27.3027 17.4064 27.4711 17.2394 27.2578 16.9946C27.0333 16.7275 26.5056 16.4827 26.2923 16.5717C26.0229 16.6719 25.4166 17.6512 25.5177 17.9294C25.6187 18.241 25.484 18.4191 25.3044 18.6083C24.1817 19.7545 22.857 20.5447 21.2965 20.9342C21.1057 20.9787 20.9148 21.001 20.6679 21.0343C20.7577 20.8229 20.825 20.6894 20.8812 20.5558C21.4874 19.1647 22.015 17.7514 22.0824 16.2045C22.1273 15.0804 21.3415 14.1901 20.2076 14.1011C18.4338 13.9676 16.4018 15.1472 15.6496 16.7943C15.0659 18.0741 15.021 19.3094 16.1212 20.3889C16.1997 20.4668 16.1885 20.656 16.1661 20.7784C16.0538 21.4461 15.8742 22.1027 15.8293 22.7704C15.7844 23.5494 16.2334 24.0948 16.907 24.4397C17.5694 24.7847 18.1082 24.462 18.5124 24.0057C19.1186 23.3269 19.6575 22.5701 20.1964 21.8245C20.3535 21.613 20.4882 21.4684 20.7577 21.435C21.667 21.3237 22.509 21.0121 23.2949 20.5558C23.8674 20.2331 24.4175 19.8547 24.9451 19.5208C24.8329 20.144 24.6982 20.7784 24.5747 21.4016ZM19.4779 17.8626C19.7136 17.373 19.6912 17.117 19.3431 16.8722C18.9727 16.6162 18.5573 16.6162 18.2654 17.028C17.7265 17.7514 17.2663 18.5304 16.7723 19.2871C16.6937 19.4095 16.6376 19.5431 16.5814 19.6766C16.5365 19.6766 16.4804 19.6766 16.4355 19.6655C16.4243 19.2983 16.3232 18.8976 16.4243 18.5526C16.8621 17.0169 17.7041 15.7593 19.1074 14.9135C19.3881 14.7466 19.7361 14.6464 20.0616 14.5797C20.9598 14.4127 21.5548 14.9135 21.566 15.8149C21.5772 17.0169 21.2965 18.1742 20.8924 19.2983C20.7015 19.8213 20.4546 20.311 20.2525 20.834C20.1627 21.0677 20.0167 21.1345 19.781 21.1122C19.2197 21.0455 18.6471 20.9787 17.996 20.9008C18.5124 19.8324 18.9951 18.842 19.4779 17.8626ZM18.0184 23.8833C17.9286 23.9501 17.8276 23.9946 17.7378 24.0391C17.3785 24.1949 17.1877 24.0948 17.2213 23.7164C17.255 23.3046 17.3561 22.8928 17.4571 22.4922C17.5581 22.125 17.6031 21.6464 17.8613 21.4684C18.0858 21.3014 18.5685 21.4795 18.9278 21.5018C19.2084 21.524 19.5003 21.524 19.882 21.5463C19.3544 22.4588 18.8267 23.2824 18.0184 23.8833ZM94.9195 21.958C94.9756 21.7355 95.0205 21.5129 95.0879 21.3014C95.7278 19.3984 96.3789 17.4843 97.0301 15.5812C97.2771 14.8579 96.9852 14.2124 96.2779 13.9119C96.0871 13.834 95.9972 13.8452 95.9411 14.09C95.6829 15.2808 95.4022 16.4604 95.1104 17.6401C95.0655 17.8181 94.9756 18.0073 94.8521 18.1297C93.1794 19.9437 91.473 21.7466 89.4747 23.2267C88.9583 23.6162 88.3857 23.9612 87.7907 24.206C86.8252 24.6067 86.0506 24.0836 86.0282 23.0487C86.0169 22.4811 86.0843 21.9135 86.1966 21.3571C86.4436 20.1886 86.9263 19.1202 87.6223 18.1075C87.7458 18.241 87.8356 18.3412 87.9367 18.4302C88.4306 18.9087 89.0593 18.9978 89.6543 18.6417C90.3167 18.2521 90.7545 17.6846 90.979 16.9501C91.1811 16.249 90.8443 15.6703 90.137 15.4811C89.4522 15.303 88.8348 15.4811 88.2622 15.8372C87.3753 16.3936 86.7242 17.1615 86.1741 18.0407C85.3883 19.3205 84.8494 20.6782 84.8606 22.2029C84.8831 24.551 87.1733 25.3189 88.6103 24.373C88.947 24.1504 89.3063 23.9501 89.6431 23.7052C91.3495 22.4477 92.8314 20.9564 94.3245 19.4541C94.4031 19.3762 94.4929 19.2983 94.5715 19.2204C94.2908 20.3221 93.9877 21.4016 93.5948 22.4477C93.3141 23.2045 93.5723 23.7609 94.0663 24.2839C94.3919 24.6289 94.5603 24.5733 94.796 24.1727C95.6941 22.6591 96.5698 21.1345 97.5577 19.6766C98.0292 18.9755 98.6691 18.3857 99.2978 17.8181C99.6795 17.4731 99.8816 17.5733 100.084 18.063C100.263 18.4859 100.409 18.931 100.656 19.3094C101.229 20.1997 102.071 20.3889 102.913 19.7434C103.923 18.9755 104.855 18.1297 105.82 17.3062C105.888 17.2506 105.955 17.1615 105.978 17.0725C106 17.0057 105.966 16.9167 105.921 16.8611C105.888 16.8277 105.787 16.8165 105.742 16.8499C105.618 16.9056 105.506 16.9946 105.405 17.0725C104.877 17.462 104.383 17.8849 103.833 18.241C103.227 18.6194 102.587 18.9644 101.925 19.2537C101.476 19.4541 101.285 19.3205 101.117 18.8531C100.971 18.4747 100.87 18.0741 100.735 17.6957C100.319 16.5717 99.7469 16.4048 98.86 17.2283C98.1976 17.8404 97.5914 18.5304 97.0189 19.2426C96.3116 20.1329 95.6717 21.0677 94.9981 21.9803C94.9756 21.9692 94.9532 21.9692 94.9195 21.958ZM88.599 18.2744C88.4194 18.2855 88.2286 18.2188 88.0602 18.1409C87.8019 18.0184 87.7346 17.8293 87.9703 17.6067C88.4643 17.1504 88.9358 16.6719 89.441 16.2378C89.5982 16.1043 89.8564 16.0375 90.0809 16.0153C90.1932 16.0041 90.3279 16.1488 90.3953 16.1822C90.4065 17.0614 89.3736 18.2076 88.599 18.2744Z" fill="#761925"/>
</svg>
